<mxfile host="Electron" modified="2024-03-01T02:57:00.023Z" agent="Mozilla/5.0 (Windows NT 10.0; Win64; x64) AppleWebKit/537.36 (KHTML, like Gecko) draw.io/23.1.5 Chrome/120.0.6099.109 Electron/28.1.0 Safari/537.36" etag="gMKt8ykLiSL5LDeotlXF" version="23.1.5" type="device">
  <diagram name="Page-1" id="hrz735oAZPURXSy2egp2">
    <mxGraphModel dx="1895" dy="1826" grid="1" gridSize="10" guides="1" tooltips="1" connect="1" arrows="1" fold="1" page="1" pageScale="1" pageWidth="850" pageHeight="1100" math="0" shadow="0">
      <root>
        <mxCell id="0" />
        <mxCell id="1" parent="0" />
        <mxCell id="uBYqbTjCWljOATmxXfoV-1" value="" style="shape=image;verticalLabelPosition=bottom;labelBackgroundColor=default;verticalAlign=top;aspect=fixed;imageAspect=0;image=data:image/jpeg,/9j/2wBDAAoHBwgHBgoICAgLCgoLDhgQDg0NDh0VFhEYIx8lJCIfIiEmKzcvJik0KSEiMEExNDk7Pj4+JS5ESUM8SDc9Pjv/2wBDAQoLCw4NDhwQEBw7KCIoOzs7Ozs7Ozs7Ozs7Ozs7Ozs7Ozs7Ozs7Ozs7Ozs7Ozs7Ozs7Ozs7Ozs7Ozs7Ozs7Ozv/wAARCAXcBdwDAREAAhEBAxEB/8QAHAABAQEBAQEBAQEAAAAAAAAAAAECAwQFBgcI/8QASRAAAgECBAUBBAYIBAQFBQADAAECAxEEEiExBRNBUWEGFCIycQcVQlKBkRcjVGJyobHBFjNDUyRzgpImNkRj0SU0NUXw8ZPh/8QAGgEBAQEBAQEBAAAAAAAAAAAAAAECAwQFBv/EACwRAQACAgAFBAIBBAMBAAAAAAABEQIDBBQVITESE0FRBTIiI0JhcSRSUzP/2gAMAwEAAhEDEQA/AP7MAAAAAAAAAAAAAAAAAAAAAAAAAAAAAAAAAAAAAAAAAAAAAAAAAAAAAAAAAAAAAAAAAAAAAAAAAAAAAAAAAAAAAAAAAAAAAAAAAAAAAAAAAAAAAAAAAAAAAAAAAAAAAAAAAAAAAAAAAAAAAAAAAAAAAAAAAAAAAAAAAAAAAAAAAAAAAAAAAAAAAAAAAAAAAAAAAAAAAAAAAAAAAAAAAAAAAAAAAAAAAAAAAAAAAAAAAAAAAAAAAAAAAAAAAAAAAAAAAAAAAAAAAAAAAAAAAAAAAAAAAAAAAAAAAAAAAAAAAAAAAAAAAAAAAAAAAAAAAAAAAAAAAAAAAAAAAAAAAAAAAAAAAAAAAAAAAAAAAAAAAAAAAAAAAAAAAAAAAAAAAAAAAAAAAAAAAAAAAAAAAAAAAAAAAAAAAAAAAAAAAAAAAAAAAAAAAAAAAAAAAAAAAAAAAAAAAAAAAAAAAAAAAAAAAAAAAAAAAAAAAAAAAAAAAAAAAAAAAAAAAAAAAAAAAAAAAAAAAAAAAAAAAAAAAAAAAAAAAAAAAAAAAAAAAAAAAAAAAAAAAAAAAAAAAAAAAAAAAAAAAAAAAAAAAAAAAAAAAAAAAAAAAAAAAAAAAAAAAAAAAAAAAAAAAAAAAAAAAAAAAAAAAAAAAAAAAAAAAAAAAAAAAAAAAAAAAAAAAAAAAAAAAAAAAAAAAAAAAAAAAAAAAAAAAAAAAAAAAAAAAAAAAAAAAAAAAAAAAAAAAAAAAAAAAAAAAAAAAAAAAAAAAAAAAAAAAAAAAAAAAAAAAAAAAAAAAAAAAAAAAAAAAAAAAAAAAAAAAAAAAAAAAAAAAAAAAAAAAAAAAAAAAAAAAAAAAAAAAAAAAAAAAAAAAAAAAAAAAAAAAAAAAAAAAAAAAAAAAAAAAAAAAAAAAAAAAAAAAAAAAAAAAAAAAAAAAAAAAAAAAAAAAAAAAAAAAAAAAAAAAAAAAAAAAAAAAAAAAAAAAAAAAAAAAAAAAAAAAAAAAAAAAAAAAAAAAAAAAAAAAAAAAAAAAAAAAAAAAAAAAAAAAAAAAAAAAAAAAAAAAAAAAAAAAAAAAAAAAAAAAAAAAAAAAAAAAAAAAAAAAAAAAAAAAAAAAAAAAAAAAAAAAAAAAAAAAAAAAAAAAAAAAAAAAAAAAAAAAAAAAAAAAAAAAAAAAAAAAAAAAAAAAAAAAAAAAAAAAAAAAAAAAAAAAAAAAAAAAAAAAAAAAAAAAAAAAAAAAAAAAAAAAAAAAAAAAAAAAAAAAAAAAAAAAAAAAAAAAAAAAAAAAAAAAAAAAAAAAAAAAAAAAAAAAAAAAAAAAAAAAAAAAAAAAAAAAAAAAAAAAAAAAAAAAAAAAAAAAAAAAAAAAAAAAAAAAAAAAAAAAAAAAAAAAAAAAAAAAAAAAAAAAAAAAAAAAAAAAAAAAAAAAAAAAAAAAAAAAAAAAAAAAAAAAAAAAAAAAAAAAAAAAAAAAAAAAAAAAAAAAAAAAAAAAAAAAAAAAAAAAAAAAAAAAAAAAAAAAAAAAAAAAAAAAAAAAAAAAAAAAAAAAAAAAAAAAAAAAAAAAAAAAAAAAAAAAAAAAAAAAAAAAAAAAAAAAAAAAAAAAAAAAAAAAAAAAAAAAAAAAAAAAAAAAAAAAAAAAAAAAAAAAAAAAAAAAAAAAAAAAAAAAAAAAAAAAAAAAAAAAAAAAAAAAAAAAAAAAAAAAAAAAAAAAAAAAAAAAAAAAAAAAAAAAAAAAAAAAAAAAAAAAAAAAAAAAAAAAAAAAAAAAAAAAAAAAAAAAAAAAAAAAAAAAAAAAAAAAAAAAAAAAAAAAAAAAAAAAAAAAAAAAAAAAAAAAAAAAAAAAAAAAAAAAAAAAAAAAAAAAAAAAAAAAAAAAAAAAAAAAAAAAAAAAAAAAAAAAAAAAAAAAAAAAAAAAAAAAAAAAAAAAAAAAAAAAAAAAAAAAAAAAAAAAAAAAAAAAAAAAAAAAAAAAAAAAAAAAAAAAAAAAAAAAAAAAAAAAAAAAAAAAAAAAAAAAAAAAAAAAAAAAAAAAAAAAAAAAAAAAAAAAAAAAAAAAAAAAAAAAAAAAAAAAAAAAAAAAAAAAAAAAAAAAAAAAAAAAAAAAAAAAAAAAAAAAAAAAAAAAAAAAAAAAAAAAAAAAAAAAAAAAAAAAAAAAAAAAAAAAAAAAAAAAAAAAAAAAAAAAAAAAAAAAAAAAAAAAAAAAAAAAAAAAAAAAAAAAAAAAAAAAAAAAAAAAAAAAAAAAAAAAAAAAAAAAAAAAAAAAAAAAAAAAAAAAAAAAAAAAAAAAAAAAAAAAAAAAAAAAAAAAAAAAAAAAAAAAAAAAAAAAAAAAAAAAAAAAAAAAAAAAAAAAAAAAAAAAAAAAAAAAAAAAAAAAAAAAAAAAAAAAAAAAAAAAAAAAAAAAAAAAAAAAAAAAAAAAAAAAAAAAAAAAAAAAAAAAAAAAAAAAAAAAAAAAAAAAAAAAAAAAAAAAAAAAAAAAAAAAAAAAAAAAAAAAAAAAAAAAAAAAAAAAAAAAAAAAAAAAAAAAAAAAAAAAAAAAAAAAAAAAAAAAAAAAAAAAAAAAAAAAAAAAAAAAAAAAAAAAAAAAAAAAAAAAAAAAAAAAAAAAAAAAAAAAAAAAAAAAAAAAAAAAAAAAAAAAAAAAAAAAAAAAAAAAAAAAAAAAAAAAAAAAAAAAAAAAAAAAAAAAAAAAAAAAAAAAAAAAAAAAAAAAAAAAAAAAAAAAAAAAAAAAAAAAAAAAAAAAAAAAAAAAAAAAAAAAAAAAAAAAAAAAAAAAAAAAAAAAAAAAAAAAAAAAAAAAAAAAAAAAAAAAAAAAAAAAAAAAAAAAAAAAAAAAAAAAAAAAAAAAAAAAAAAAAAAAAAAAAAAAAAAAAAAAAAAAAAAAAAAAAAAAAAAAAAAAAAAAAAAAAAAAAAAAAAAAAAAAAAAAAAAAAAAAAAAAAAAAAAAAAAAAAAAAAAAAAAAAAAAAAAAAAAAAAAAAAAAAAAAAAAAAAAAAAAAAAAAAAAAAAAAAAAAAAAAAAAAAAAAAAAAAAAAAAAAAAAAAAAAAAAAAAAAAAAAAAAAAAAAAAAAAAAAAAAAAAAAAAAAAAAAAAAAAAAAAAAAAAAAAAAAAAAAAAAAAAAAAAAAAAAAAAAAAAAAAAAAAAAAAAAAAAAAAAAAAAAAAAAAAAAAAAAAAAAAAAAAAAAAAAAAAAAAAAAAAAAAAAAAAAAAAAAAAAAAAAAAAAAAAAAAAAAAAAAAAAAAAAAAAAAAAAAAAAAAAAAAAAAAAAAAAAAAAAAAAAAAAAAAAAAAAAAAAAAAAAAAAAAAAAAAAAAAAAAAAAAAAAAAAAAAAAAAAAAAAAAAAAAAAAAAAAAAAAAAAAAAAAAAAAAAAAAAAAAAAAAAAAAAAAAAAAAAAAAAAAAAAAAAAAAAAAAAAAAAAAAAAAAAAAAAAAAAAAAAAAAAAAAAAAAAAAAAAAAAAAAAAAAAAAAAAAAAAAAAAAAAAAAAAAAAAAAAAAAAAAAAAAAAAAAAAAAAAAAAAAAAAAAAAAAAAAAAAAAAAAAAAAAAAAAAAAAAAAAAAAAAAAAAAAAAAAAAAAAAAAAAAAAAAAAAAAAAAAAAAAAAAAAAAAAAAAAAAAAAAAAAAAAAAAAAAAAAAAAAAAAAAAAAAAAAAAAAAAAAAAAAAAAAAAAAAAAAAAAAAAAAAAAAAAAAAAAAAAAAAAAAAAAAAAAAAAAAAAAAAAAAAAAAAAAAAAAAAAAAAAAAAAAAAAAAAAAAAAAAAAAAAAAAAAAAAAAAAAAAAAAAAAAAAAAAAAAAAAAAAAAAAAAAAAAAAAAAAAAAAAAAAAAAAAAAAAAAAAAAAAAAAAAAAAAAAAAAAAAAAAAAAAAAAAAAAAAAAAAAAAAAAAAAAAAAAAAAAAAAAAAAAAAAAAAAAAAAAAAAAAAAAAAAAAAAAAAAAAAAAAAAAAAAAAAAAAAAAAAAAAAAAAAAAAAAAAAAAAAAAAAAAAAAAAAAAAAAAAAAAAAAAAAAAAAAAAAAAAAAAAAAAAAAAAAAAAAAAAAAAAAAAAAAAAAAAAAAAAAAAAAAAAAAAAAAAAAAAAAAAAAAAAAAAAAAAAAAAAAAAAAAAAAAAAAAAAAAAAAAAAAAAAAAAAAAAAAAAAAAAAAAAAAAAAAAAAAAAAAAAAAAAAAAAAAAAAAAAAAAAAAAAAAAAAAAAAAAAAAAAAAAAAAAAAAAAAAAAAAAAAAAAAAAAAAAAAAAAAAAAAAAAAAAAAAAAAAAAAAAAAAAAAAAAAAAAAAAAAAAAAAAAAAAAAAAAAAAAAAAAAAAAAAAAAAAAAAAAAAAAAAAAAAAAAAAAAAAAAAAAAAAAAAAAAAAAAAAAAAAAAAAAAAAAAAAAAAAAAAAAAAAAAAAAAAAAAAAAAAAAAAAAAAAAAAAAAAAAAAAAAAAAAAAAAAAAAAAAAAAAAAAAAAAAAAAAAAAAAAAAAAAAAAAAAAAAAAAAAAAAAAAAAAAAAAAAAAAAAAAAAAAAAAAAAAAAAAAAAAAAAAAAAAAAAAAAAAAAAAAAAAAAAAAAAAAAAAAAAAAAAAAAAAAAAAAAAAAAAAAAAAAAAAAAAAAAAAAAAAAAAAAAAAAAAAAAAAAAAAAAAAAAAAAAAAAAAAAAAAAAAAAAAAAAAAAAAAAAAAAAAAAAAAAAAAAAAAAAAAAAAAAAAAAAAAAAAAAAAAAAAAAAAAAAAAAAAAAAAAAAAAAAAAAAAAAAAAAAAAAAAAAAAAAAAAAAAAAAAAAAAAAAAAAAAAAAAAAAAAAAAAAAAAAAAAAAAAAAAAAAAAAAAAAAAAAAAAAAAAAAAAAAAAAAAAAAAAAAAAAAAAAAAAAAAAAAAAAAAAAAAAAAAAAAAAAAAAAAAAAAAAAAAAAAAAAAAAAAAAAAAAAAAAAAAAAAAAAAAAAAAAAAAAAAAAAAAAAAAAAAAAAAAAAAAAAAAAAAAAAAAAAAAAAAAAAAAAAAAAAAAAAAAAAAAAAAAAAAAAAAAAAAAAAAAAAAAAAAAAAAAAAAAAAAAAAAAAAAAAAAAAAAAAAAAAAAAAAAAAAAAAAAAAAAAAAAAAAAAAAAAAAAAAAAAAAAAAAAAAAAAAAAAAAAAAAAAAAAAAAAAAAAAAAAAAAAAAAAAAAAAAAAAAAAAAAAAAAAAAAAAAAAAAAAAAAAAAAAAAAAAAAAAAAAAAAAAAAAAAAAAAAAAAAAAAAAAAAAAAAAAAAAAAAAAAAAAAAAAAAAAAAAAAAAAAAAAAAAAAAAAAAAAAAAAAAAAAAAAAAAAAAAAAAAAAAAAAAAAAAAAAAAAAAAAAAAAAAAAAAAAAAAAAAAAAAAAAAAAAAAAAAAAAAAAAAAAAAAAAAAAAAAAAAAAAAAAAAAAAAAAAAAAAAAAAAAAAAAAAAAAAAAAAAAAAAAAAAAAAAAAAAAAAAAAAAAAAAAAAAAAAAAAAAAAAAAAAAAAAAAAAAAAAAAAAAAAAAAAAAAAAAAAAAAAAAAAAAAAAAAAAAAAAAAAAAAAAAAAAAAAAAAAAAAAAAAAAAAAAAAAAAAAAAAAAAAAAAAAAAAAAAAAAAAAAAAAAAAAAAAAAAAAAAAAAAAAAAAAAAAAAAAAAAAAAAAAAAAAAAAAAAAAAAAAAAAAAAAAAAAAAAAAAAAAAAAAAAAAAAAAAAAAAAAAAAAAAAAAAAAAAAAAAAAAAAAAAAAAAAAAAAAAAAAAAAAAAAAAAAAAAAAAAAAAAAAAAAAAAAAAAAAAAAAAAAAAAAAAAAAAAAAAAAAAAAAAAAAAAAAAAAAAAAAAAAAAAAAAAAAAAAAAAAAAAAAAAAAAAAAAAAAAAAAAAAAAAAAAAAAAAAAAAAAAAAAAAAAAAAAAAAAAAAAAAAAAAAAAAAAAAAAAAAAAAAAAAAAAAAAAAAAAAAAAAAAAAAAAAAAAAAAAAAAAAAAAAAAAAAAAAAAAAAAAAAAAAAAAAAAAAAAAAAAAAAAAAAAAAAAAAAAAAAAAAAAAAAAAAAAAAAAAAAAAAAAAAAAAAAAAAAAAAAAAAAAAAAAAAAAAAAAAAAAAAAAAAAAAAAAAAAAAAAAAAAAAAAAAAAAAAAAAAAAAAAAAAAAAAAAAAAAAAAAAAAAAAAAAAAAAAAAAAAAAAAAAAAAAAAAAAAAAAAAAAAAAAAAAAAAAAAAAAAAAAAAAAAAAAAAAAAAAAAAAAAAAAAAAAAAAAAAAAAAAAAAAAAAAAAAAAAAAAAAAAAAAAAAAAAAAAAAAAAAAAAAAAAAAAAAAAAAAAAAAAAAAAAAAAAAAAAAAAAAAAAAAAAAAAAAAAAAAAAAAAAAAAAAAAAAAAAAAAAAAAAAAAAAAAAAAAAAAAAAAAAAAAAAAAAAAAAAAAAAAAAAAAAAAAAAAAAAAAAAAAAAAAAAAAAAAAAAAAAAAAAAAAAAAAAAAAAAAAAAAAAAAAAAAAAAAAAAAAAAAAAAAAAAAAAAAAAAAAAAAAAAAAAAAAAAAAAAAAAAAAAAAAAAAAAAAAAAAAAAAAAAAAAAAAAAAAAAAAAAAAAAAAAAAAAAAAAAAAAAAAAAAAAAAAAAAAAAAAAAAAAAAAAAAAAAAAAAAAAAAAAAAAAAAAAAAAAAAAAAAAAAAAAAAAAAAAAAAAAAAAAAAAAAAAAAAAAAAAAAAAAAAAAAAAAAAAAAAAAAAAAAAAAAAAAAAAAAAAAAAAAAAAAAAAAAAAAAAAAAAAAAAAAAAAAAAAAAAAAAAAAAAAAAAAAAAAAAAAAAAAAAAAAAAAAAAAAAAAAAAAAAAAAAAAAAAAAAAAAAAAAAAAAAAAAAAAAAAAAAAAAAAAAAAAAAAAAAAAAAAAAAAAAAAAAAAAAAAAAAAAAAAAAAAAAAAAAAAAAAAAAAAAAAAAAAAAAAAAAAAAAAAAAAAAAAAAAAAAAAAAAAAAAAAAAAAAAAAAAAAAAAAAAAAAAAAAAAAAAAAAAAAAAAAAAAAAAAAAAAAAAAAAAAAAAAAAAAAAAAAAAAAAAAAAAAAAAAAAAAAAAAAAAAAAAAAAAAAAAAAAAAAAAAAAAAAAAAAAAAAAAAAAAAAAAAAAAAAAAAAAAAAAAAAAAAAAAAAAAAAAAAAAAAAAAAAAAAAAAAAAAAAAAAAAAAAAAAAAAAAAAAAAAAAAAAAAAAAAAAAAAAAAAAAAAAAAAAAAAAAAAAAAAAAAAAAAAAAAAAAAAAAAAAAAAAAAAAAAAAAAAAAAAAAAAAAAAAAAAAAAAAAAAAAAAAAAAAAAAAAAAAAAAAAAAAAAAAAAAAAAAAAAAAAAAAAAAAAAAAAAAAAAAAAAAAAAAAAAAAAAAAAAAAAAAAAAAAAAAAAAAAAAAAAAAAAAAAAAAAAAAAAAAAAAAAAAAAAAAAAAAAAAAAAAAAAAAAAAAAAAAAAAAAAAAAAAAAAAAAAAAAAAAAAAAAAAAAAAAAAAAAAAAAAAAAAAAAAAAAAAAAAAAAAAAAAAAAAAAAAAAAAAAAAAAAAAAAAAAAAAAAAAAAAAAAAAAAAAAAAAAAAAAAAAAAAAAAAAAAAAAAAAAAAAAAAAAAAAAAAAAAAAAAAAAAAAAAAAAAAAAAAAAAAAAAAAAAAAAAAAAAAAAAAAAAAAAAAAAAAAAAAAAAAAAAAAAAAAAAAAAAAAAAAAAAAAAAAAAAAAAAAAAAAAAAAAAAAAAAAAAAAAAAAAAAAAAAAAAAAAAAAAAAAAAAAAAAAAAAAAAAAAAAAAAAAAAAAAAAAAAAAAAAAAAAAAAAAAAAAAAAAAAAAAAAAAAAAAAAAAAAAAAAAAAAAAAAAAAAAAAAAAAAAAAAAAAAAAAAAAAAAAAAAAAAAAAAAAAAAAAAAAAAAAAAAAAAAAAAAAAAAAAAAAAAAAAAAAAAAAAAAAAAAAAAAAAAAAAAAAAAAAAAAAAAAAAAAAAAAAAAAAAAAAAAAAAAAAAAAAAAAAAAAAAAAAAAAAAAAAAAAAAAAAAAAAAAAAAAAAAAAAAAAAAAAAAAAAAAAAAAAAAAAAAAAAAAAAAAAAAAAAAAAAAAAAAAAAAAAAAAAAAAAAAAAAAAAAAAAAAAAAAAAAAAAAAAAAAAAAAAAAAAAAAAAAAAAAAAAAAAAAAAAAAAAAAAAAAAAAAAAAAAAAAAAAAAAAAAAAAAAAAAAAAAAAAAAAAAAAAAAAAAAAAAAAAAAAAAAAAAAAAAAAAAAAAAAAAAAAAAAAAAAAAAAAAAAAAAAAAAAAAAAAAAAAAAAAAAAAAAAAAAAAAAAAAAAAAAAAAAAAAAAAAAAAAAAAAAAAAAAAAAAAAAAAAAAAAAAAAAAAAAAAAAAAAAAAAAAAAAAAAAAAAAAAAAAAAAAAAAAAAAAAAAAAAAAAAAAAAAAAAAAAAAAAAAAAAAAAAAAAAAAAAAAAAAAAAAAAAAAAAAAAAAAAAAAAAAAAAAAAAAAAAAAAAAAAAAAAAAAAAAAAAAAAAAAAAAAAAAAAAAAAAAAAAAAAAAAAAAAAAAAAAAAAAAAAAAAAAAAAAAAAAAAAAAAAAAAAAAAAAAAAAAAAAAAAAAAAAAAAAAAAAAAAAAAAAAAAAAAAAAAAAAAAAAAAAAAAAAAAAAAAAAAAAAAAAAAAAAAAAAAAAAAAAAAAAAAAAAAAAAAAAAAAAAAAAAAAAAAAAAAAAAAAAAAAAAAAAAAAAAAAAAAAAAAAAAAAAAAAAAAAAAAAAAAAAAAAAAAAAAAAAAAAAAAAAAAAAAAAAAAAAAAAAAAAAAAAAAAAAAAAAAAAAAAAAAAAAAAAAAAAAAAAAAAAAAAAAAAAAAAAAAAAAAAAAAAAAAAAAAAAAAAAAAAAAAAAAAAAAAAAAAAAAAAAAAAAAAAAAAAAAAAAAAAAAAAAAAAAAAAAAAAAAAAAAAAAAAAAAAAAAAAAAAAAAAAAAAAAAAAAAAAAAAAAAAAAAAAAAAAAAAAAAAAAAAAAAAAAAAAAAAAAAAAAAAAAAAAAAAAAAAAAAAAAAAAAAAAAAAAAAAAAAAAAAAAAAAAAAAAAAAAAAAAAAAAAAAAAAAAAAAAAAAAAAAAAAAAAAAAAAAAAAAAAAAAAAAAAAAAAAAAAAAAAAAAAAAAAAAAAAAAAAAAAAAAAAAAAAAAAAAAAAAAAAAAAAAAAAAAAAAAAAAAAAAAAAAAAAAAAAAAAAAAAAAAAAAAAAAAAAAAAAAAAAAAAAAAAAAAAAAAAAAAAAAAAAAAAAAAAAAAAAAAAAAAAAAAAAAAAAAAAAAAAAAAAAAAAAAAAAAAAAAAAAAAAAAAAAAAAAAAAAAAAAAAAAAAAAAAAAAAAAAAAAAAAAAAAAAAAAAAAAAAAAAAAAAAAAAAAAAAAAAAAAAAAAAAAAAAAAAAAAAAAAAAAAAAAAAAAAAAAAAAAAAAAAAAAAAAAAAAAAAAAAAAAAAAAAAAAAAAAAAAAAAAAAAAAAAAAAAAAAAAAAAAAAAAAAAAAAAAAAAAAAAAAAAAAAAAAAAAAAAAAAAAAAAAAAAAAAAAAAAAAAAAAAAAAAAAAAAAAAAAAAAAAAAAAAAAAAAAAAAAAAAAAAAAAAAAAAAAAAAAAAAAAAAAAAAAAAAAAAAAAAAAAAAAAAAAAAAAAAAAAAAAAAAAAAAAAAAAAAAAAAAAAAAAAAAAAAAAAAAAAAAAAAAAAAAAAAAAAAAAAAAAAAAAAAAAAAAAAAAAAAAAAAAAAAAAAAAAAAAAAAAAAAAAAAAAAAAAAAAAAAAAAAAAAAAAAAAAAAAAAAAAAAAAAAAAAAAAAAAAAAAAAAAAAAAAAAAAAAAAAAAAAAAAAAAAAAAAAAAAAAAAAAAAAAAAAAAAAAAAAAAAAAAAAAAAAAAAAAAAAAAAAAAAAAAAAAAAAAAAAAAAAAAAAAAAAAAAAAAAAAAAAAAAAAAAAAAAAAAAAAAAAAAAAAAAAAAAAAAAAAAAAAAAAAAAAAAAAAAAAAAAAAAAAAAAAAAAAAAAAAAAAAAAAAAAAAAAAAAAAAAAAAAAAAAAAAAAAAAAAAAAAAAAAAAAAAAAAAAAAAAAAAAAAAAAAAAAAAAAAAAAAAAAAAAAAAAAAAAAAAAAAAAAAAAAAAAAAAAAAAAAAAAAAAAAAAAAAAAAAAAAAAAAAAAAAAAAAAAAAAAAAAAAAAAAAAAAAAAAAAAAAAAAAAAAAAAAAAAAAAAAAAAAAAAAAAAAAAAAAAAAAAAAAAAAAAAAAAAAAAAAAAAAAAAAAAAAAAAAAAAAAAAAAAAAAAAAAAAAAAAAAAAAAAAAAAAAAAAAAAAAAAAAAAAAAAAAAAAAAAAAAAAAAAAAAAAAAAAAAAAAAAAAAAAAAAAAAAAAAAAAAAAAAAAAAAAAAAAAAAAAAAAAAAAAAAAAAAAAAAAAAAAAAAAAAAAAAAAAAAAAAAAAAAAAAAAAAAAAAAAAAAAAAAAAAAAAAAAAAAAAAAAAAAAAAAAAAAAAAAAAAAAAAAAAAAAAAAAAAAAAAAAAAAAAAAAAAAAAAAAAAAAAAAAAAAAAAAAAAAAAAAAAAAAAAAAAAAAAAAAAAAAAAAAAAAAAAAAAAAAAAAAAAAAAAAAAAAAAAAAAAAAAAAAAAAAAAAAAAAAAAAAAAAAAAAAAAAAAAAAAAAAAAAAAAAAAAAAAAAAAAAAAAAAAAAAAAAAAAAAAAAAAAAAAAAAAAAAAAAAAAAAAAAAAAAAAAAAAAAAAAAAAAAAAAAAAAAAAAAAAAAAAAAAAAAAAAAAAAAAAAAAAAAAAAAAAAAAAAAAAAAAAAAAAAAAAAAAAAAAAAAAAAAAAAAAAAAAAAAAAAAAAAAAAAAAAAAAAAAAAAAAAAAAAAAAAAAAAAAAAAAAAAAAAAAAAAAAAAAAAAAAAAAAAAAAAAAAAAAAAAAAAAAAAAAAAAAAAAAAAAAAAAAAAAAAAAAAAAAAAAAAAAAAAAAAAAAAAAAAAAAAAAAAAAAAAAAAAAAAAAAAAAAAAAAAAAAAAAAAAAAAAAAAAAAAAAAAAAAAAAAAAAAAAAAAAAAAAAAAAAAAAAAAAAAAAAAAAAAAAAAAAAAAgAB1AagCBe27KJmj3QDmQX2l+YDPH7yAt77MAAAAUAAAAAAAAAAAAAAAAAAAAAAAAAAAAAAAAAAAAAAAAAAAAAAAAAAAAAAAAAAAAAAAAAAAAAAAAAAAAAAAAAAAAAAAAAAAAAAgFAl+7IAD8BZRdLqUTNH7yFBmj95Cguu6FC/iAAAAKAAAAAAAAAAAAAAAAAAAAAAAAAAAAAAAAAAAAAAAAAAAAAAAAAAAAAAAAAAAAAAAAAAAAAAAAAAAAAAAAAAAAAAAAAEAAAAGZ1IQV5yUV5YHgxPHuH4VPPXi2uiZaHycT63wdO6pRcrFofMreu6sm+XTUS0PBW9ZY2o9KiiKR5ZeqcbLfEfzFQOT9S4x74l/mWoGP8AEOLb/wDuX+YqBuPqLGrbEv8AMVA7U/U/EU7KvcVA9dL1jxGnu8xKKeyj68rxtzaKZJgfTw3rnA1GlVjKFyUr7GF47w7F/wCXiYX7Nih74zjJXjJNd0QUABQAAAAAAAAAAAAAAAAAAAAAAAAAAAAAAAAAAAAAAAAAAAAAAAAAAAAAAAAAAAAAAAAAAAAAAAAAAAAAAAAAAAAAEAXAAZnVhTjmnNRXdsD52J9Q8Mwt8+Ji2ukWWh8nEeuMJDSlBv5ih4p+uZy+GCRYhJl5KvrLET+FtfItQnd55eq8TL/UaFK5P1NiG7Oq/wAxQL1LWX+o/wAxSU0vVGIWiqP8xQ6Q9WYqP+oxSvRS9aYmD95poUPbS9dLacESh9DD+tMBUaVS8WPTKvq4fjXD8V/l4mF+zZke2MoyV4tNeALcAAAoAAAAAAAAAAAAAAAAAAAAAAAAAAAAAAAAAAAAAAAAAAAAAAAAAAAAAAAAAAAAAAAAAAAAAAAAAAAAAAAAAAAIBmpVhSi5VJxilu2wPiY71bw3BNxjN1Z9olofHrer+IYx5cFheWvvSLSW8ksHxjiDbxGLyJ9Ey0lvncQ4N7JTzzrucvma7Lb85jq8qKeXckj5NTiFfrMljzSxdaT+Nixh16r+2yCc2p99lFVWpf4pAdqdape2dix6YVakftMWP0HC8Q5OOeKkgP2uE4dgsTh1KVFXaCW4YrgGDytqKiwW+FiuHvDScqU2rdmUt4Y+rOJ8IrKMajlFdGSWrfqeEfSBUxCjHE4a99MyJSW/b4avHEUIVYqykrmVdQAAAAAAAAAAAAAAAAAAAAAAAAAAAAAAAAAAAAAAAAAAAAAAAAAAAAAAAAAAAAAAAAAAAAAAAAAAAAAAAAAAAAAE6gcsTX9noSqWvZbAfjOLetMXTcqeHoZbdTVJb8viOOcRx9V56zt2uaiFWhgauId5VWrlZfbwnp/D5b1JOXzMj1vhGCpL/JQR+d47OnQfLpU1HTcK/J1MRUcn77CuM8RPbOwOcsRU++xYw8RV3VSS/EWLHG4iO1ZkHWPEsTHebZR6YcWr31SYH0cHi/aFeSsyj7OCwU8Ss1Gu4S+Y7FvfTxnGuGSvCs5xXQlD6eF9fzpWhjcM/LRKLfouHep+G8RSVOsoy7SJSvrRkpK6aa8EGgAAAAAAAAAAAAAAAAAAAAAAAAAAAAAAAAAAAAAAAAAAAAAAAAAAAAAAAAAAAAAAAAAAAAAAAAAAAAAAAAAAAfF9Tce+osBzlDNJ7IsD+bYj1PxHjOIfNqShTvpFM1Q9mDoQum9X5DNvv4WCUUVHvg7R8AfB47VvFq+hB+I4o77ahp8ior90QcmrAQBcCr5oDrC1wPTDRbAfb4ZOMYq76lH9A4PUjLDx95bdwy9eIaSeqBT87xJu0uoH4vjS/XxsJaevgkvh+Y+B/ZOEu/DKOv2TEq9gFAAAAAAAAAAAAAAAAAAAAAAAAAAAAAAAAAAAAAAAAAAAAAAAAAAAAAAAAAAAAAAAAAAAAAAAAAAAAAAAAAACAAAHm4g7YOfyLA/l3Ff8+o1rdm2XzcMrVLsK+/gNWiMv0GHism6/MoYh2g9Y/wDcgPxXqCSWIeqat3Cw/JVJO723Mq4SkBi5BCgBdANwYH0+GyvJ6lH7DgWsrlR9jFL3dvzQR8HF0otu8UB8qtTdKeelKUWtrMNPo8F9ZcTwOKhRqTdSDdrNmaH9T4djFjsJCulbMtiSPURVAAAAAAAAAAAAAAAAAAAAAAAAAAAAAAAAAAAAAAAAAAAAAAAAAAAAAAAAAAAAAAAAAAAAAAAAAAAAAAidwFwMzqU6avOcYry7AfgvpG4rgXgIU44mnKSeqTuWB/NsNxnCYablKTb8Gke+PrbD0F7lCUmvIR0/SRXp/wCTgovyyFOU/pH4tO6hSowX8IKfPxPqbiWOd6tVK/YK8csTWqv35N/iBV7z1uBuNHMB0WFT6AbjhqfWJR1jhKWnuog6LCwj9ko06KWyA5tShonJfJkVh8Rx1BWpYyrD+GRUcn6g4xB6cRrfjIDH+IuKv48VKXzZBzqcRrYmSlWeZhXv4fxSWFa9zMuxUf0XhP0i4ChhKdGtRlFpWbRmlfpOH+ruE8Qko08QoyfRkofbUk0mndPYAAuBQAAAAAAQABQIBQAAAAAAAAAAAAAAAAAAAAAAAAAAAAAAAAAAAAAAAAAAAAAAAAAAAAAAAQAAAoAAAAAAIAAzOpCnBznJRit2wPzvEPXPCMDJw5vMlHfKKH57i30l4eph3TwtCTb7lH4PG+osTXqSnZRuzSPmy43iot5KmV+CK5/4g4ovhxc4/JhG48e4rPR8Qr/9wF+sOIVFaeNrP5yA6J1arTnUlN+WB1jhovdIDssHTe8EUaeCpf7aA5vBU76RsBiWDgtLWIOU8Kk9AMOjbUDKnOlrCVgPVhuOcRwbvRrtfMo9r9Z8Ytac6c15iEYfq7ES/wA2hCXyCucvUVKr/mUXH8RY40eIYepjITzZUmB/aPSvE8FV4TTjHE03JdMyMyP0EZRkrxkmvDIrQAAAAAAAAAAAAAAAAAAAAAAAAAAAAAAAAAAAAAAAAAAAAAAAAAAAAAAAAAAAAAAAAAAAAAAAAAAAAAEA/P8ArD1LS9N8JniNHWatCIH8P4r6043xaq5VsZOEZPSMWaR8WpXq1X+tqTn82BzWgGgFwNJgdKbdwPXTeiYHrpwu0wPTGKXQDpFaFGopAdIq7CuijoAaA41I5kEeOtHQDw1YNdCDzSTAik0B3pVmtwPbRxCe7A9VKtKDU6cnGSejT2A/b8B+kGrg6ccPj4upBaZiUr9jg/WHBsVFWxKg30kKH0I8Y4dPbF0v+5Chr60wH7VS/wC5Cg+tMB+1Uv8AuQoT624f+10v+5EoHxbh6/8AV0v+5FoZfGeHL/1dP/uFCfXfDV/6yn+YoFxvhraSxdO78ihy4p6i4dwmiqmJrxs1dJPcUPxWO+lO1drBYfNBdWEeb9KWN/ZoAP0p439miBP0p4z9miA/SnjP2aID9KeM/ZogX9KeN/ZogP0p439miA/Snjf2aIE/Snjf2aID9KeN/ZogX9KeN/ZoihP0p439miA/SnjP2aID9KeM/ZogP0p4z9miA/SnjP2aIF/SnjP2aIE/SnjP2aID9KeM/ZogP0p4z9miBf0p4z9miA/SnjP2aJQ/SnjP2aJA/SnjP2aID9KeN/ZogP0pY39miA/SljP2aID9KeM/ZogP0pYz9miA/SljP2aJQ/Sljf2aJA/Sljf2aID9KeN/ZogP0pYz9miA/Sljf2aID9KWO/ZogP0pY79miA/Sljv2aID9KWO/ZogP0pY79miA/Sljv2aID9KWM/ZolD9KWM/ZogP0pYz9miA/Sljf2aJA/Sljf2aIF/Sljf2aID9KWN/ZogT9KWN/Zoge3hv0oQnWUMfQVOL2aFK/b4PjGBxuE9qpV48tbtvYUM/XnDLf/d0/zFC/XnDf2yn+YoPrvhv7ZT/MUL9d8N/bKf5gPrrhv7ZS/wC4lB9c8N/bKf8A3FoX644d+10/+4lCT41w2Cu8ZSX/AFItD5eO9b8IwaaVbmtdEKH4f1D66xXFISw+G/VUn/MQj8fOWru231uyjyVq6TtdgeOrWbYHBttgRJgdacdQPbRhdgfQo00+gHqjBdijtGn3A1ZIKxKN/AHNpMDlKn5FI4VIdCDzVI5QPPJ2A5OVwOUmBzbYEuwPRh8bicNZ0a86fyYH6rgPr3ivDa0FUryq0b65mRX9n4NxSjxjh9PF0mnmWqXQg+gAAAAAAAAAAAAAAAAAAAAAAAAAAAAAAAAAAAAAAAAAAAAAAAAAAAAAAAAAAAAAAAAAAAAAAAAAAAEA5YnEU8Jhqleq0oU1dtgf599b+p63qDi9RZ/+Hpu0EiwPzPW/UqIAAXAqeoGgOkAPVSaTA91J3V10A9MZNK4G1K5RqL1A6xegHSOqvewF30SAxONkBwlTi15A8tWhfoB4quHs3ZEHCVNrdAYt4A0pyjsB2p4qUQO8Ma9mFdVjUuqXyCNfWElpzJL8Qo+KTX+tO3zCM/W1TVc2X5gT60qf7sn5uBHxWp/uz/MKfWk7f5kvzAPic/8Acf5gYqcWqQpylGcrpdwj0cV4nVx8aCnVlKMYaJsBgqDnRzAej2ddEVT2bwA9m8BD2bwA9n/dAezeAHs/gB7N4FKez+BQns/gB7N4CHs3gB7N4AezeAK8LpsBPZdNgL7L+6BPZvAF9m8BU9m8BD2bwA9m8AX2fTYKLD+AHs/gIez+Ap7P4Ans/gIqw/gB7O+wD2fwFPZ/BA9n8FQ9n8AX2fwBPZ/AU9n02CCw/gC+z+Ap7P4AnI8APZ/AF9n8APZ/ARPZ32AcjstQKsO+wD2fXYB7PfoB58dRy0szRB5qnGeI4Ph7oUa0o0M2qTCrHik7XdSW3cDX1pPT33+L3AfWcr25kl5uEPrSd/jl+YB8Sn/uS+TALiU/92Sv5Ct/WU1pzJadcwB8Rb3qP5N7hGHjV3u/IHKWObWgHCpiZS0W+wHCUpyAzkuvIGlRA3HDX6Aeujhl1QHrp0bdCj1wjZBXaIG4vyAbTCMzuwqOyWoGHsVHnm02QeSruyDyztYDzzdgOUnqBl6gR7AFvcDrCTT8W1A/d/R96rnwriEcFXm/Zqrsr9CUr+0QnGpBTi7qSuiCgUAAAAAAAAAAAAAAAAAAAAAAAAAAAAAAAAAAAAAAAAAAAAAAAAAAAAAAAAAAAAAAAAAAAAAAABAAH8x+lP1b7PQ+qcJU9+XxtMsD+QO9yiBEAoAABU9QOsXqB3hKzA9dGppuB6Yz03A2p6gdVIDrF3V7lHWMtgNX6tgRtPYDLSA5ySA5TpXvoB554ffQg4Twz7AcpYZoDLotdAOuEwaxFblznlWVvV2v4AuLwsaUcqoVKbvvK9mB0x3CqtCpCNGM5RlC7duoHPHcOlh6eGUbupVp3kn3uB1+qU6bpRnL2qMM7jb+QHHh/D1isPiK1SMpKna0Y9W2BuvwuNPBPEWnSkpJKE/tfIDriOExoZMtGpNygpN66XQHzJUJ57KLWuzA4YmE4Yab8bAc+HYpypXqvwrgfsOEU4y4dGfdmh7eXDwFTJECZI+Ahkj4AqhHwBMkfADlx8AOWu5VOXEBkiAyRIi5I+ALy4+AHLhcA4Q6AMkbAMkQJkigpki+wDJEInLiwHLj4AZI+Ao4RXYCZYsIvLj3QVOXHugLkiETJHwBcke6Ajpx8BTlxQFyRCGSKAuSIE5a8BUUIhFyRAZI+Ao4RAzkiBpQj4AZI+AI4R8BDIgChEC5EAyJuwFyJAeXiVOMsG2uhB+M4zXnTnCjGXuytdEHop0pKN9XddeoH0vq+lhsLSrYhSqTq6xgtkgI+HQr4SriMNmhKk/epvXcDvU4VTo0qUo0KlbmRu3FvQDjicDh8HiuVPNWUkndP4fAF4jgMPhMTPDU6c8ztaTb6oDpPgq+sqmHjOSp0oKcmBxp0cHVqxpunOKk7KbYHpw/BY+04mji5ytQScWvIEp8FvjpUKzeR03OnOO0rK4DC8LpVMIq0KfPq3alSUrNIDzVcNlqtciVJfdk7sDKwvgDtDDabAdYUUgOsYWYHVKxVdFsBrNZAajK0b3AjmuwRJVNNArDqd2Bh1SI4VJoDyVZgeeclvcDhKQHJuwEAjAAai1/8gemhUcJJxlZxd0wP7V9HnqdcW4esFXl/wARRXV7okq/akFAAAAAAAAAAAAAAAAAAAAAAAAAAAAAAAAAAAAAAAAAAAAAAAAAAAAAAAAAAAAAAAAAAAAAAAAQD4Xq31FR9PcIqV5ySqyVoLyB/nniWPr8Tx1TFV5Zp1HdeDSPI2BLgS4ABcBcCpgajPUDpGoB6adW1gO0K2oHeNXyB2hUuB2hU1sB2VS3Uo6KV+oGk/ADV9AM2TArjoFZdLYDPJTWn8yIw6CtsKGPZ12A6UcPh3U/4jPGNtHFFHatVoQwE8LS5laVSV89RaxXgDnxKqsZXjKg5wjGCi1fr3A7PHYNV8JVrQzPDUcuv2pakR5qHFasMVzlVpyk5Xksqu11KrvLEYeNPGxw9OUfaXFwS0y2dwMQqQnw6phayc5qSlTk3e3dAevF1eH4twqOpWpyhTjDKlo2kB8upRi28t7dG0QfO4lSUcDV720A+FQWXDxTVn1TA/X8LxXK4bShfZFHoeMXcWI8YktxYe2dmLD2zyLB43yLE9t8iw9t8iwWN8iw9u13Fh7druLF9t8ixfbVbcWJ7d5Fi+3eRYnt1+osX2394WJ7cr7ixfbl3Fh7au4sT2394WHtv7wsPbL9RYe2pLcWDxq7ixfbFYCe2+RYe2LuLBY1LqLEeMV9xYe2LuLB4zyLD2zuxYe262voLF9t8iw9t8ixfbtBYntnkWHtnkWHtnkWHtyW7FiPGX6ixfbF3Aqxq7gPbF3Ae1q24BYzyLBYvyLBYvyLD2zyLHn4jjH9XVcu4kfjsXGtWnCoouSi7t9iD9RQoqdCnZa5QPq06mHq4WFDGU5S5T9ycNyi1Z4anhamGwdOUXV+OpPS/gDOLrc+FCFNSpOlC0rPcFPHKgk05O/VtkHXiWIw+OxnNjLImkn+AHqlj4fWXtlGinCUMs6bfxIBCHCqVVVY0KsmndU2tL/MotLGQlWxlavScniYWil9gDpw3H08Jh3RxNLmuMWqMvu3VgU8+Ho4JR/WyrUp3bzQ6gp14hWp4ypCUKTjGEVG73kB5OXFbIlBkSKM5LPUCsAnfqBpSsAc/NwI6osYlUa6ixiVbrcDnKuQc5V1bcDhOu+rA4TreQOEqiYGHMDLkBL3AXAoFQHSDsB9ngPF6/BuJ0sVSnbK1dd0B/feDcVo8Y4dSxdFp5o6rszKveBQAAAAAAAAAAAAAAAAAAAAAAAAAAAAAAAAAAAAAAAAAAAAAAAAAAAAAAAAAAAAAAAAAAAAAS4HDG42jgMJUxNeSjCEbu4H+fvWnqer6i4rOSk/Z4StCK2+ZUfm340KMsDLYEbAX0AlwJmAqYBMDalYDcatgOsKvkDtGsB6IVrbMD006qfUD0QqrqUdozXcDopdmBtO61ALXYDVml8wqpLZgH2dmBiWhUc2/IGHKzve5BJTja8tNN2B854vEcQxHs2Ajs7OowPpYf07g8qljK9SrLe0XomKHSp6e4VUVqbq0ZJaNMD4+Lw/EOCVFNS59B/nYD2YXGUcXSU6btl3XVMK75ll21CMSkkiDzV3GcqdPpKSuB871DTjS4xUhTSUElZL5AKWJyUow7IDTxb7gPa394Ce1O9kzWGE5eGZyry1zpnojhNssTuwhHVmxym1PfwObULyW76PfwObULyO76TmMFVSoXkNxzGA51S9P3/SczgZ6penb/pOZ1ilVL03f9HNavtb1i9N3pzer7aXOHTd5zer7VRxD6E6dvOb1faqliXsh07ec3q+1VDF9EOnbzm9X2vs+K8Dp245vV9ns2LfRDp25Oc1fa+y4t9F+Y6duOc1farB4x9i9O3JzmpfYMa+35k6dvOc1KuH43938x07evOavtfq3HPpH8x07ec3rPqzH9o/mOnbl5vWv1ZxD938x07ec3rT6tx/aP5jp285vWfVuP7R/MdO3nN60+rsd2j+ZOn7zm9Y+H45fZX5jp+85vV8svBY1dF+Y6fvTnNP2jwmM7Dp+85zT9o8Ni7bIdP3rzer4lPZ8Xb4V+ZOn715rX9joYr7o6fv+jmtf2y6WKX2R0/f9HNavtMuJW8R0/f9LzOr7L1+qHT9/wBJzWr7Rzrdh0/f9HNavtnmVETkN/0vM6vs51TsTkd/0vM6vtOdU7E5Lf8ARzGr7XnT7E5Pd9LzGv7Tn1OxOU3fS+9rn5Xnz7E5Xd9L72Ce0TJy236PdwVYiaJPD7I+D3cE9ss9WzlOM4+XSJifB7X5INe2PuBiviuZQqQb3QHfgNKnUw2OU7aU7q/zA9eElehTs/sgemNRWWpRvMnp0A8eP4lTwSUV79afwxQVMJwXHcTSrY/FPD0d8kd2KR7V6b4NGK/zm19pyf8A8ihxq8B5K5nDcXOLj/p1NpfiKHHDcQm6rwuKjysRHddH8gPXnjfz/QDSku1+/kK0nfVgLq2r1CJdMoy33II27WAxfXVgRySAw6i7gR1UtmQc51l1YHGdfTcDjLEaAcZYm/UDlLEAYlXYGHVv3AxnAZgJmAqYF2A0gNIDUdwO8GB+6+j71RLhePWDxFT9RVdld7MlD+yQnGpBTg1KMldNEVoCgAAAAAAAAAAAAAAAAAAAAAAAAAAAAAAAAAAAAAAAAAAAAAAAAAAAAAAAAAAAAAAAAAACMDM5qEXOTtGOrA/i30kesp8Sxr4fg6zjQpO0rPdlhH8/6dn0KMsDLAywI2BlvQCXAmawFipzdoxb8IDtDB15fZyryB1WCkviqRA2sJTS1qN/IDSw9FfakBpUKS+1MDajSW0pgdIyilpNr5gdadez0qRYHqhWvrdMD0xmkijpGdwN5rbAVSb/AACo6iAjqKwHKdXoRHCVfoBznW7aAeDiOIqVFTw8JO89fwA+rgYwwmEhTprK38UuoHo9oVnq9OhRVidN7X6AZqVlOlKnPWMlt2IPzteEuG42lWhdU5ycZID3vE72kByqYuT0zAeetiJRpSnfWOqA44d1OJR9oqaykB58RJ0q84P7OgHHnPuA5z7gOc09JGscssPCTET5X2qr946xxO1idWv5Paqv3hzG37Pa1r7XV+8Xmt32nsaz2ur94vN7o+U9jWe2VfvFjjN32exrFja33i87v+05fWe31r2zF53fHynLa19vrLaRY4/f9pPC6lXEa/3ka6hvj5TlNSrimJXVDqPEfZymppcXxK6ovUeIOU1KuNYpdUOo8QcpqaXHMX3Q6jxCcpqX6/xneJepb15TUv8AiDGfujqW9nk9S/4ixi+6XqW45LUL1FjPuxL1PcclqaXqXGr7MB1PcclqaXqfHL7MCdT3HJal/wAU477sB1PcclrX/FeO+7AdT3HJaz/FeN+5AdT3JyWB/ivHfdgOp7l5LA/xTjn9mA6nuTksD/FON+7AvU9xyWtP8U437sB1PcclrZfqbGPeEB1PcnI6mf8AEeM+7AdU3HJaj/EOLfSA6puXktcJ9f4t9Ik6puXk8E+vsS+kR1LcvJ4MvjeJ7RJ1Lccngj4ziX90dS3HJ4Mvi2I8DqW45PX8o+KVvA6luOT1J9Z1n2HUtxyeCPiFZ9idR3SvKYQn1hVZOobl5XWe3VO5nndq8trRY6p3Jzu2Wo4fCPC+21H1Jzm09jFPbancnNbF9nE9sqfeJzWZ7WEI68pat3PPllOU3LrEREdk5zIKqr7gdcNetWUH1QHfGVq3C4xVNpKt7sgPXRruNOKv9lAdY4vXcDcsZkpSm3pFNgeTgcFia08bXWaTl7t+gH6H2rXuUPaX3/FgZeJvuxY8PFKaxmHzR0r03eMuvyIPPh8Y6lFSk/e2fzA7RxTuB1WKA17QmgKqy7gHXsBh1b9QJKor2bA5yrrVpgcnWlJe6rgYlzfkBzak371ZL5AYlTh/vSfyAy6FLeU5gZ9moP7UwMvCUek5r5gZeCi9qzAxLBVVtVjIDnLDV4/YbA5tuLs00AUgNJgaTA2tQNJAbQHSD1A705uNnGVpLZ9gP6t9Hfq72iC4Xjal5x+CTe5B/Rk7q5FAKAAAAAAAAAAAAAAAAAAAAAAAAAAAAAAAAAAAAAAAAAAAAAAAAAAAAAAAAAAAAAAAAAAQD8D9JPq9cLwL4fhZr2iqrOz2Kj+KSm5yc5ScpSd233KMtgYb1Aw2BlsDDlZf3AsYVKmkIt+QPRDAS+KrNJeAO8KFCnqoJvuwOuZ2srJeAJfuAAdAAFasr2sBn5AXUCAW9tgOkMRVp7SuB3pcQkvjWgHrhj4z2dvmB0VfyBHXAw6+gHGdcDzzrNsDCqaATDWqcZpJ/wC2/wCoHvdTLp0TAw6wDnOwDnu6Az6nioYHBu3xNMo+dUqtvcg5ubAxUk5UZrwB+i9F8JljeGxnbRtlH5zjlN0eNYujb4Klv5EIeWpKk4xyqz6hUpzp8uWeLcugRmm4qaz/AA3ATcXN8tPL0A1VlTlTjkTUluBKc6ShJTTculgM05Rzxc08vUBVlBzbgnl6Aam6TpRVOPv/AGmApSoRjJVIu9tGBiGVTi5fD1QFqyg6jdJOMQNzlSdGKinn6sCU3Sipc1O7WgGItZ05bX1A1WdN1HyU1HyBZSoOhFRi+Z9pgKMqSUuar3WgGItKonKN431+QGq0qbqN0o2j0uBZSo+zpKD5nVgKMqKclVTatoBzTjnTabjf+QG6zoud6KajbqBXKj7OrRfM6gSjKjFy5sW1bQDCceZ+7fbwBus6TqLkxtG2zAuaj7P8D5twJQdKMpOtFuNtLAZvHmbaX2A1XlSlP9Umo21Auah7PZxaq9AFF0oz/W6xtpYDF1nbs8t9gN1pUW48lO1tQClRVBpxfM6MCUXTVT9crq3QDLazNpe7fS/YDdXlOzprKuvzAKVJUZKUXn6MCUpQU/1qbj4AzKzk3Ha+iA3VdNqPLT21ARlT5Mrp8zoBKTiqizq8bagSTi5txvboBupKk8uRNd2AhOmoNTTc/ssD6HpzD+2cew2H++ywPt/SBwpcPhgWvtSt/ISPhRk1FLwQaU9QFepmwlVfugevg75fCINdwPXz2BOewHOfUDph6mevFPyB8u/LqVl++wHNVwKq7WwHRYgC+0vYC+1efxAixDmrQ94DTzr45L8AJzYraN33YGXWm1vZeAMNt6ttgNN/6gHdK70QHOWIo0/iqxQsc/rDCLTnRFjcMVQqaRqxA7JLdO6AaAG9rAHaWk4pgcZ4WjPZOPyA4ywc46w94Dk7xdpJ3A0n1T0A6KQG4sDpFgdYOwHsweKqYPEwxFF2lF3QH9w9HepaXHuGR95c+mrSXczKv0aAoAAAAAAAAAAAAAAAAAAAAAAAAAAAAAAAAAAAAAAAAAAAAAAAAAAAAAAAAAAAAAAAACX1A+R6m49Q4Bwmriaklnt7i7sD/PPFuKV+L8RqYutJylNu3hGkeFgYbAw34AxJ9QEKc6rtFfiB66eDpw1m8z8Ad00laKyrwBAC+V/mAcbga26ATrroAvrsB3pUF8cvyA7ThGatYDyVKUqUtVo+oGNQLbuBOoDS4BeLgUDUaso9QOnPk0BJVr+AMyqAYc9QJGWlgO/C4cz1DQi/uP8AqB2qu1Sa7SaA5tsCXAX0A9Pqv/8AF8OfW0f7FHxXdsgagSTeSXyA/qP0a4eC9LYeo0ryb/qyo/mnqlJ+quJWT/zunyRFeCtClCEHTnmk1r4AUoUqlKcqlRxktl3AxRjCdWMasssX1AlaMadWSpzcorZgbrU6MKUJU6jlJ/EgLRp0Z0pupUyyivdS6gc6UYzqxjUk1BvWQFrRpwrONKWeC2YG61OjGhCdOpmqSXvR7AXDUaE4VJVamRxXuruBypRhOrGM5ZYt6vsBcRCnTrNUZ549JMDpVo0IYWFSFVuo94gTDUsPVjUdaq4tL3UBzpRhKtGM5ZYt6vwBrFU6VOu40ZucLbgbqUqCwsKkKt6r+KPYCYWlQqqbrVMll7vlgcoRi6qUpNQb1fgDpiqdKlWcaE88EtH5A1OjQWCjVhVbrN+9DsBMLSw9Zz9oqZEl7rXUDlGKdVRcmo3s34A6YulRp1smHqZ42vfyBqdHDrBqqqv617xAmEpUKspLEVMkbaeWBxUY81Rb929k/AHbF0qNKqlQnzI23AvJoLBqpzr1b/CBMJSoVZtV6jpxto/IHKyz5b+7mtfwB1xdKjSmo0KmdNXfzAvKoexupKq+ctoAZwlKhVquNepy4paMDm4x5jWZ5b2v4A64qlQpSiqFTPFrVgVUqDwjqSq2qX0gBnCQpVKtq1RQjYDnJR5jWa8b6PwB1xNKhTlDk1M6a18MBGnQeGlOVVqr0iBnD06dSqo1ajhC24GZxiqklB3inZMDeIp0aeR0arnda+ALTpUZYec5VGqnRAYoRp1KijVnli1qwJNRjUcYSvFbMDpXp0oKHLnmutV2AU4UnQlKdS018Me4H2PQ1n6xwC/ff9GWEfq/pZSVPhn/ADH/AEEkPwybsRS4GarfIqfwsD6HDY24FSl3kwOl2BLsCgdsJrioID5mIlbFVl++wOLkBOZYCOt5sBqM6lR2ppsD0QoqLvVeZ9kB2UtMsVaIGQH4gS6Wl9QKk9l1A8lTGN1eThabr1dtFogPoYf0zjMTFVeI4tUIP/TjuUe+j6f4Hh0r0alZ95vcK6rh/Btlwyl+KBEXFudXgnBMQmnhZUn3pu1hQ8Fb01Uo+/w3GuWl+XMUPA8TVoVuRxCi6M+kraMg9S2307hEu279AL8wJqttAI4RmrSVwOM8L9qm/wAAOVnF2krAbi9ANxeoHaLaA7QlrqB9v0zx2twPitOvCVqbdprugr+8cPxtLiGDp4mjJOM1cyPQBQAAAAAAAAAAAAAAAAAAAAAAAAAAAAAAAAAAAAAAAAAAAAAAAAAAAAAAAAAAAAAAAOVetTw9GdarK0IK7YH8I+kH1VLj3FpUKM74alordTQ/HdOwRHtoBhsDKvJ2im2B3pYRXzVXf90D0q0Y5YrKuyAlrMA9wAFvYBq0A6bgNfncD00acUrykrgdc8VpmQDNDrJASbhKOWTTA8dSKjKyd0Bm/QBsgIBdwKAAbu4EfvKzAw1JAZzXdgNRd3+IHt4Ir+psMv3H/UDpiVbE1V+8wOAAB0YHo9Uv/wCl8P8AlH+xR8fuQAJL4JfID+r/AEcq3o7CPy/6sqP5d6ob/wAV8TaevO/siD506KpxjJSUnJahSnR5lOUs6i49wJTpupUjFtK/VgSpDlTlFNO2zA1UocunCWeLzbpAWlQ5kJzU4xyrZ9QMU4cyahmSzPVsC1KfKquGZSS6oDU6HLpQqKcXmW3YC0qHNjJuajkV0n1A5whzJxg2lfdgWrT5NV08ylbZoDdTD8uhCrzIycui6ASjh+dGbc4xyq6TAxThnqqN0m3a72A1Xpciq6eZSS6oCzwyhQjW5kXm+ytwFDDc/NecYZVez6gc4wzzUE1G+l2BvEUPZ6nLzqVtU0BqWGy4aNZ1ItyfwrcCUMPz3JZ4wyrr1A5qOaeS9ru1wOmIoez1FDMpq17oCywyWGVfmRbf2QJh8OsRNxU1CyvqBzUE6ihfZ2uB0xGH5FTLzFO63iBXhrYZVuZHNfYCUMP7RLLzFBLVNgc8n6zI2rt2v0A6V6Hs81FTUk9dAL7PfDOupxv90CUKKrzcMyikr3YGHC08t09bXA3iKHIko51PMunQAsPmw3O5kdH8PUCUKKr1Mrko/MDEoZZuDafRMDdaiqDj76lfXQCxw6lhpVs8U0/he4GaFLnTUMyj8wI1lm43Tadk1sButQ5KjacZZtXYCRoZ6MqmeKcdkBKNPmzy3Ub73Ak45ZuCe3UDVSiqSVpqWbewCFFTpyqZksvTuB9r0T/5xwFvv/2ZYH6r6W9KfDP+Y/6CUh+GWqXyI0BGK11QqfwsD7GBi16bw77yf9QMuIDKBcoHbCRtioAfGxc/+Mrr99geeUgM5r6LV9kB6KWDlO0qzsuwHsiowhlgrLuBbu3QCXTAvTXcB4YFSlJ6W2u34A88VX4nXeGwN40v9Wq/7AfocBhMLwyiqeGis/2qr3ZR1lO73u+7AzdztGN3K+i7ljv2LiImZffo8Di+E5Z6Yl6pnpjV/GXwc/yH/IuP1fCqUp0qjhNWnF6+Ty5ROMvuYZY54eqBfh+BW2cRQoY2i6OKjzIPbTVGR+dxGEr8Fq5Z3rYKb92fWIR2vFxUou8WtGBm92BbtgNQCevYBOMJ3U1f5AcZUXH4HdAZT1tswOsWwO0WB0TXXUD+i/Rx6pWGqfVeLn7kvgbJKv6qndKzun1IKAAAAAAAAAAAAAAAAAAAAAAAAAAAAAAAAAAAAAAAAAAAAAAAAAAAAAAAAAAAAAEAAfz/AOlH1KuG8N+r6E3zay1s9Uio/irbu79dSjLAy3uAhSlVem3VgeqEIU1aO/cC2ugLfQCdbgHqAvoAS0AAE0A07W+YGZVaUdJVEn8wObxVBf6sfzFie1Yf/eiLGliKL2rQ/MWOilGVlGSflMC/gAAi0AoC9wAABuAejA5yhd3WgGYu2j3A+hwTX1LhkvuP+pR68VS/4qqu8gPPKn4IM5H0QGGrRuwOnqiV+G8PSfYD5PUCgSX+XP8AhA/q/wBHL/8ABuD/AOr+rKzL+WepXm9T8Rfet/YktQ8FShOlGMpWtLYC08POtBzilaO92BinB1pqEfiuAq05UpuEt+uoGqmGnRhGpK2WS01AtLDTrU5TjtHcDNOm61SMIqzbstQFWlKhUdOdsyA1UwtSlRjVnbLPVWAtHC1K8Zzha0FrcDnTpyq1Iwg1eTsgNVqMsNVdOSV+oGqmFqUqEK0kss9tQFDCzxCk6aXuq71A5wpyqVFSjbM3bUDVehPD1OVO10BueEqU8PHEStkltqBKGFqYpSyNe6ru4HOEHUqKnG1721A1iMPPDVHTqNZkugGpYSpDDRxDayPbuAw+FqYrNy7Xiru7A5xhKVRU1bM3ZAbxGGqYarlqNXa3QFeEqRwyxNly3tZgMPhauKlKNOycVdsDmoN1FT0vewG8Rh54SeSra77AaeDq+y+0PKqbdtwM4fC1MVNwpWvFXdwMZG6ipLduwHTE4WrhZpVLXavowHstX2bn6ZPmBMPhqmJqZKdnK1wMOLjUcGtb2aA3iMLVwrjGdm2rqwBYWo8M6+mRMCYfD1MTVyU7Xte7AzKEoVHTaWZOwG62Gnh8vMt7yvoAjhpzoOul7i8gSlRlXnkhuBmUHCTptap6gbrYeWHUc6+JXTuAjhpyoyqxtljvqBmjSdeooRau1pcCThKE3CVroDdWhOioyla0gJCjOdKVVWcY7gfa9E/+ceH/AMf9mWB+q+lzbhf8b/oJSH4ZbL5EaAjFZ2oVP4WB9rAu/pvDq+0gKogXIBVEDrRShWTe6QH5vETzYms1r77A5RjKrNQgrt/yA99DDQoa6Sn3A7O9tdWBEugF02ALRMAgDA5Y6U1TpYai3zcQ7abqIH3cJhafD8JDDU1r9t92B0vvqVUb01JaR3fY4FglVqPF1tKdPa/c9GnXf8nyfyPExrx9rHzLni+M1p8TVam2qdN2ir6NGs9v8or4TT+Oxnhpxy8y9fFsPTxuDhxDDJN299IuzH143DlwO+dO2dG18RarWx5YfdqlbCEqcMRSlh6qThNWs/6hX5uhTlg8ZW4ZVu7PNSb7AddtLarciDel9gIm2A0egF2AXstAMuMZ+GBEmnaWgHSLA6xYHahWnRrwq03llB3TQH909G8djxrg1OTkubTVpLqZH6IKAAAAAAAAAAAAAAAAAAAAAAAAAAAAAAAAAAAAAAAAAAAAAAAAAAAAAAAAAAAACMDhjMVDB4SpiKkrRhFsD/OvqrjNTjfHK2IlJuKk1EqPi7JLcojAsKTqu+yQHoSSjljoA0XQB1AfMCdAHQBFXuBU7JgP7geapiJyq8jCwdWfdbID0UPT2Pxkk8TilRT6J7Ae2HpDAR/+44hFtb++BuHprgEX72MX/cKgdoenPTrVva4/iy9hZekuCT1hi6f/APssTsPNW9E3V8Fi1folO4ofGxFPifB6vLxdKTh962gHopVoYmkqtN6dV1QV0elrdQhsA0sA6AAADcCXsBmUVJN9QN8PxseG8ewWNqf5UZqM32RR+o9QYfDUOKOeGrQqUcQs8XGV7AfMlFEHNxtuwOFaUY2j1A+bxTGvHYilhk/dpAZX9GAuAl/lz/hA/q/0c6ejcG/4v6srMv5V6geb1HxB/wDvMktQ8M+aoRz5rPa4CMarjJ082X7VgJBScly75ntlAk1JTfMvm63A1NVFGPMUstvduBacazhLl5sq+K2wGYKWaKgm5dLPUBUUlN8xPN1bA1ONZU4uallfw32AUo1mpOkpNW962wGIZnJKCal0sBqopxm+bmUv3gLOFdUoOefl/ZvsApRrSzOjnsl72UDEVJyUY3zX0a3A1VjUjUarKWbrmYFlCuqUZTzcr7N9gLTjWlm5KlotcvYDCUpSSjfN0tvcC1Y1I1HzlJTt9oCuNZUVKWfl9L7AWjCtOUuTmul72XsBzSbkkk819NdQN1o1oztWUs1vtAJRrKgm1PkvZdAFGNacpKhmulrl7AYV8ySTzX/G4G6yrRnaumpW0UgDhXVC+WbpX/ABRjWlJ8jM5W1UQMe8pWfxX/G4G6sK0ZJV1LM1pmfQAoVuQ2lPlJ/gBKSrSn+ozZrfZ7AZaabTTbv+NwN1o1otc7Nma0zAFGtyW0pcp7voBKUasql6Sk5Wt7oGWpKVndSv13uBurGtFpVVJXWlwEY1XRbSlyuttgJSVRz/AFWbN4AzJSTalfNfW+4G6kascqqqW2lwIoVeVJxUsnW2wEpqbmlSTvbTKBJJqTUk3LrcDU1UWV1FLxcBFVHTbipZOttgPteif/OPD/4/7MsD9X9Lu/C/4n/QSQ/DL4V8iKBGZpShJPqgPRwvHqGBWEm7OM9gPrRs1dAby26AVJbgeDF8QhRnKSd8qsB8OlGpiajy6Obu32A+pSowoQyw36yA1G2oE2Wm4FAl9dQL0ALQCx1kl3YGuD0/a+O4jESV44WOWIH2M2ZttgTNrsLodMPQnisRGlBXbZvDG8u7jv246tUzL7fF8RHh+Cp4Cg/ekrS8Hq2z6MfTD4fA6p4jd72b4K/p0PD5fo6i31OC49UKvs9V/qaumvRnp05/2y+V+R4b3Mfcw8w5cUwTwWKeVfqpaxZNuHol14HiffwqfMPJ38HF7/i0vewV8z1LT5fsfEYO0oTyzfgDhWVqjd9JJP8AMiOTQF2XgC9NgJ11AP8AkBXr4Aj10YGkrAdYgbtpoUfqvQXHnwjjcKU5Wo19JeCD+2xkpxUo7NXRlVAoAAAAAAAAAAAAAAAAAAAAAAAAAAAAAAAAAAAAAAAAAAAAAAAAAAAAAAAAAABAPwH0p8f9g4T7DRlapW3s9iwP4o9XqVEAsKeedtkB3TS0SAj0YFAWAWAOzAlrgVMA2BxxE5xhGNP/ADK0skPxA+37JQ4Fw+FOKUsTUV5PswPntVpycp1Za9gEaEd3mfzYHR4enbZAa9np21S/ICezUn//AJA1yatJJ0a04vxIDrHiMp1I4TiMVVpS0zPoFfG4jg/qHi8YwlfDV9U/AHpkssrJ+69UEZVkAejAAG7AAL0sBNgFwMVqMa1Nxa0YHlpYmthGqVaUpQXwy7AfRpcXjb3mpgWpxWDTyQSb6sD5tbHSqXjRvOb3YGaFF045pu85bgdurAAJf5U3+6B/Vfo5d/RuD/6v6sqS/lPHGv8AEGPtr+tZJV5Z1p1IxjN6RWgEp1qkISjB6S3AlOcqc1Om7SQCcpVZuc9ZMDVSvUqwjGWqiAp1qtKMowlaMt0BmFRwnGcPii9PICpOVSo51HeT/kBupXqVKcac5XjFaIBSxFWhGSpuynpJAYpzlCcZResXdMC1as603Or7zf8AIDU8RVnRjRlJuEdtAFPEVaEZKm7KW+m4GISlCqpRdpLVMC1q061RzqayYGp4irOgqMneEXorAWhiKtBy5TspKz0A5RlKM1UTtLe4G61apWqOdV3b0+QFeIrSw6oN3px2AUcRUw+Z0m45lZgYU5Rnnj8SdwNVq1TE1OZUbbtYCyxFZ4dUZSvTW2gChiKuGblSdnLewGFN5s6+O9wNYivVxE89bWSSArxNV4fkZnkvcBRr1cPJypaOSs7AYzNVHLeV73A1XxFSvJSqtyaVgKsRVWG5ClamwJRr1KE3Klo2tUBlyk5Zut73A1Wr1MQ1Kq75VowKsRWWH5N/1be1gJRrTw9TNSeoGXKTk5N3b1uBurXqVnF1ZXtovAEVarGjKipWg2BKNWdCeeDtICSk5yc27yvdsDVSvUrNZ38KsgEa9SFGVOMrwluBKVWdGopU3ZgSblKbnLd7gaqValVRU3pFaASFWpGm6adoy3A+16K/848O/j/sywP1f0u78L/if9BJD8Mtl8iABl/0A89WlKM1VprV9APRhOLzoPJUTkgPf9eULawkvmB5MVxyVSDjSWRMD50VVxdXKm3fdgfWo0YUKeSC1e7A2BXYA9gJfVAXdgR6AUDVH/OV+z/oB6PS8VLC4+p9pzdxA9yehRM2oH3+FUFw/AVMfXspte6n2PXrxjDG5fneO35cVvjRr8Q+JiMTPFV51qjeaT0XY8uzOcsrfc4fVGnCMYYT0syR2dojzK313+TJdSTEP0GCqQ4xw6WFqtKtTXuvuezGY2YVPl+e3458FxEbcf1l8OpCVKo6c1aUXY8sx6ZqX3tezHZjGWPiRO5G3k9RRUvTNRveNSNvzEjwSealRk9+XH+hBjbzcCa3t0A1sAuAv4AAHcBGST1A6xegHSOjQG6bdOopp2lF3TQH9y9E8ZXF+B0nOd6tNWkiSr9GQUAAAAAAAAAAAAAAAAAAAAAAAAAAAAAAAAAAAAAAAAAAAAAAAAAAAAAAAAABAOdetGhQnWm7RgrsD/PfrXjkuN8frVE3y4O0UVH561yhGDk7IDtZKOVICO6tqAsr/MC6AR7gWwD5ALWAl+gB/wAgOmGipcX4epq695/0sUfT9QXXE03s46IDwK7RB0WiQGr2237gaTvsA2WwF6a7dAPNjI/q72A4ep6vM4bg1LWUVZPwSVZpNyw1KUtW4lRqy2Aj1AAAAACXfQDQE8gYmlJXaTTA4vB4epqk0BVgaC2TfzYGskKcbQikgM9QAACSf6qa8BX9U+jl29G4T/q/qysy/lPGXfjmOtbWq2RXnq1+dGMcijkXTqAp1+VTlFQTzdX0AzSqcqpGdr+AFWfNnKdkr9EBqriObThTyKOVbrqBaOI5NOdPKpZlu+gGKVTlVY1LKWXoBatRVqsp5VG/RAaqYh1aMKWRLL1W7AUMS8PGcckZZ1a73QGKc+VUU3aWV7AWvW59Vzso36RA3UxPNw0KOSKy9e4DD4pYaNRZFLOra9AOdOfKqRnpJJ3swNYiv7TVdTIo36LoBqpiuZhoYfIkofa6sBhsX7Nn9xTzq2oHOM3CpGdk7O9mBvFV/aqzqZFG/RAWeLc8LGhkisr36sBhcUsNKbyKWZW95bAclNQqKokn717AdMVifaq3MyKGlrIDTxWbBrD5ErP4u4EwuJ9llKWRTzK1n0A5RlaSn+9e3QDpisR7VUz5FHRKyA08U/ZPZ8kdHfMBMLiPZajnkjLMnowOWa9TP1vfwB0xOJ9qqKTioWVrIAsV/wAI8NkW/wAQDD4n2aq55FJNWs0Bzc/1meys3ewHTEYr2monkUcqtp1ARxNsM6Cpx953v1AYev7NUzuKlZWswOblmqOemruB0r4lYiULxUcqtoBI4nLhpUMqd38XUBQrez1VPKpabMDEp55OdrXlewHSviHiHF5FHKradQEMRkoSpZE83UDFGryKinlUrdGBKks9RztbN07Abq1ufkvFRyK2nUBCvkoypKKebqB9f0U//F/D/wDmf2YSX6z6Xvi4Z/F/YskPw2yIqW1Aj0AnW4GJQhPeIHF0ILbRARUVmUVHM3t4A+nh6Cw8NUs76gdOnbuBVYBsBAJ1AqeoC12A8vUDVNpVFfToB6fS81TxXEMDJbu8QPY3leW+uwmYhYi3t4VgHjcQpydqVN3k+5304eqe8Pm/kOM5fXMRHeXXjXE/aZrCUk1Sp6WNb8/7Yeb8Xws68J27PMvmX+f5Hmh9qVT8METEfKpNK1mKk7O2Fr1cLXjWgnpvbqbwyyxm4efiNWG7XOvJ9fiOHXEMKsfQg1K3vRPTuw9ePqiO74/A8Rnwu2eH2d4+JfFjstdzxy/Qf4eT1LUUeCUsN9uvVVvwZZHiqJLLD7kEvxsQYQFu07dAGoBNgXUCLbUCtpgRoDdOeV2YHoWtuwG1YD9f9HfHPqzjCwtST5VfT8QP7Ktt7oyqgAAAAAAAAAAAAAAAAAAAAAAAAAAAAAAAAAAAAAAAAAAAAAAAAAAAAAAAAAJ0YH5L6ROM/Vfp+cISSqVvdXco/g0pOUnKW71+ZUSzfzA6RWSNurAmgCzSAaZQCfQA0wLcA2BHqA3QDpYCZ3DiHDZ3tao1+bRR+g9RwSr4epb4kwPkJ6kG907gVX369gKrJJ+QLo2r3QGlLSzA5Ym7jHW6bSA+f6reX2SmukHckjpT0oUl2iUVAAADUCAUAmgJcC20AJKL1Aw9H4AvyQGWugGWgMsABJ25cvkFf1L6On/4Owq/i/uVl/KOK68Yxi/91kVzq1Y1IQSgo5V06gKVVQpyi6ak5bX6AYozUKsZOOZLoAqyVSpKSiop9AN1qsalKEIwUXDdrqApVoU6c4SpqTktG+gGKU40qkZOOZRewFrTVSq5qKin0A3VrQnRhTjTUZRWsu4ChXhRjNTpKbktG+gHOnKNOopuKkk727garzjWqucYKCfRAaqV4Tw0KSpKLj9ruAw9eFGM81JTzKyv0A5U5KFWMnG6TvYDeJqxrVXOMVBPogNVK9OeFjRVJKUd59WAw2Ip0FPPSVTMrK/QDlCUY1VJxzJO9mBvFVYV6zqQp8tPSyA3PEU5YSNFUUpxeswJhq9PDuWemqmZdegHOLUaillTSd7AbxVeFernjBQja1kBqWIg8IqHJWZO+buBMJXhh6kpSpKeZWs+gHGMkqmbLdZr26AdcXWhXq5oU+WkrWQGvaKXsnI5Kz3vmAmFrQoVXKdNVE1az6Acsy5mbLopXt0A64qtDEVFKFNQSVrICqvD2R0OUs1/iAzha0aFRznBTVrWYHOTXMzKKs3eyA6YmvCvKLjTVOytp1AqrQWEdF0lnf2wM4arChUz1KedJWswMSknNySSTd7AdMRWhVcJRpKFlZ26gI1oRw0qXKTk/tdQJh6ipVVOUFJLowMSlmqOSVru6QHSvVjWUbU1DKtfICFaMaMqbppuX2gM0Kip1FNxU0ujAk5KdSUkrKT27AbrVoVVC0FHKtX3AlOrGNCVPJdy2fYD63o3T1fw5/8Auf2YSX6z6Xvi4Z/F/YSQ/D9Ap1AywM7AZbdwMSdk2B6sJRyx5s9W9gPStt9QD10f5gLWAN9ACAnUCrcBrcAkAequBzniJYDiuH4hH4Je7UsB93F5ZTVWm7wqK6aLUExfeH08HxvDYPDQowoS0+J9z1a+IjGKp8Pifxee/Z65ya+vsJdv2LW+7QjiMfM4ucfiN3j3ew/UGF6YFfkOYwn+1ek7p7zsVeoMOv8A0S/Icxh/1Okbf/Rf8QUP2JfkOYx/6r0jb/6L/iCktsGvyHMY/R0jZ87Go+o0o5fZkk+xeZ7Ukfhpnvln3fKm4V8TJwjli3mt2PLlT7erCdev0z3l8HiOJXEuNrK70cItGtrmXX4WUszcu7uESLAtwADqBLgN2BUAAm7A9FGd9HuB3A6YetLD4inWho4STQH999O8RjxPgtDEKSbypS+ZlX1AAAAAAAAAAAAAAAAAAAAAAAAAAAAAAAAAAAAAAAAAAAAAAAAAAAAAAAAAAEA/if0o8ZeO4z7JCXuUtLGh+E+fQI6Qj9p9AI9X8wIBdkBEugFbvotwGoBMBcAA20Al7Ac8TK3stT7leP8AUD9R6gSlg8JV8f1NfA+IjIqbuBZN3ugNXukrbAV7rUBezsBifvVqUemdAfO9WSUuJ0oL7MUiDstIx/hRQuAuAAoEegC4FsAAJ9AFrAS10AQCSvqBzlEDIEAzU/yp/wAIH9S+jrX0dhv+r+4SX8o4m78Wxdv91gc6nJyQVK6lbW4Up8nlzdS7mtgM0nDOuZ8FwJVyZ2oK0Lgbq8h04OlfN1AtHkOM+anmtoBilk5keZ8F9QFXlqrJ0tIdmBuqsNyIcq/M+1cC0Xhss+cnmS0YHKlk5kOYvcuBa/KVaXJuoeQN1PZ1ho8u/MvqwLhlh7T5181vdA508iqR5vwX1A1iOVzmsP8AB5A1P2b2aGS/O6gMP7M1N4i97e7buByg4cxcxvl3A3ieRzX7PfJYDUvZvZYuCfO6gMN7NeftOqt7tgOMcnMWa+RP+QHXFOjzf+H+G3UCv2b2VZb857gTDLD5pe0XtbT5gc1lVRJ/BfbwB0xPI5i9mclC3UCv2b2LTNzrgTCvD8yXtF8rWlgOfu57fZvt4A6YnkZ7Ya+W2t+4FthvY+vOuBMNyOY/aNraAc3kz3V1BsDpiHQU4vD9tbgVezezO6fOuBnD8l1bVr5bAYai6jy6QuBuvyE4+zpp296/cCxWHWHlmvzegGaHK5q598oGZ5OY3D4E9AN11QvF0b3tqBYOhyZZ0+ZfQDFLlua5/wAPgCTcFN5U8gG63JSgqW7WoCHJ5Us9+Z9kK+r6PdvVvDv+Z/ZiEl+t+l7/APWfxf2LJD8OtEiCAQCMDLX5sBSpurVUei1YH0NFstFsBAJeyAAXcBYAmBXa2gEQBPQBd203AzOCqwlSmvdktH2A3wniHs83w3GytH/TqP8AkB9KcZU5e8vk11Aze4Ba6gVAaA0npoBYqUnZK7QHh4rxP2ePseFefE1VZtfYQHiw9D2aiobyes5d2B0u9rAAABgAIgKtGBVuBOoDZgaUsjUkB7INTimgNLsB/T/ou4s50KvD6ktY6xJKv6J8yCgAAAAAAAAAAAAAAAAAAAAAAAAAAAAAAAAAAAAAAAAAAAAAAAAAAAAAAAAeHjGNjgOFV8RJpZIso/zjxTFyx3Eq+Ik7ucm0yo8trqwGpuyUV+IGbXAoABbqBAD8gVbASwFvqBL3YBPWwHDHu2AclvCpFiR+q4pJVPT+Dqd8pfgfEuraEFbsAvsBXJ622AqkuoFb1AtBZ8bRXdgfH9Qyz+onHonFEHstqvkUToAsAAtwI/AC2wBrUABVsAQEAR3sBrwBmeiA5AZ6gSp/k1P4Qr+o/Rvr6Ow/zl/cMy/lHE3/APVsXqk+awOdWnGnCLU8zfYKU6UJ05TlNQlHZdwM0oKpUUZPKu7AVYqFRxU8yWzA1VpQp04yU1KUt0ugFpUoVKc5yqZHHbyBzpRjUqKMppJvVgWtTVOo4xkpLowN1KMKdGE1PNKW8ewCjRhVjKUqijlWi7gYpxUpqLlZN79gLXpxpVXCE1UiuoGqlCnChCpGqpSlvEBh6FOspylVUcq0TA504qdSMXK13qwN4ilCjWcYTU10aA1OhCGGjVVVOT3iBMNQhWz56ipKKuk+oHOnFSqKDmkm9wN4ilCjVcYTUl3QGpUKcMLGqqyzt2cAJhqFOu555qmktE+oHOMU6kYOSV3a4HTE0YUKuSE1NW3QFeHprCqqqscz+yAw1GFeUlUqKCSum+oHJRXMs3ZXtmA6YqhChUywqqpFq90BXQgsLzlUWe9soDDUYV5uM6yppK92ByyrO43ur2zgdMTRhQmo06immrtoCqhD2R1eanP7oEw9GFeo4zmoJK+oHNpKeXMnG9r9AOmJowoSiozU01fQCqjTeFdZ1kpp2UAM4enCrUy1JqCetwMTSjNxzXV7JoDpiKMaTioVM91f5AI0YPDyquolLsBmhSjVqqE5qK63AzOKhNxTTSej6AbxFKnRcXGpmzLVLoAhShKhKo6iUl0AzQhGpNRlLKnu2BJRyzcU7q+4Gq1OFNRcZ5rrUCwpxlRlNzSa2XcD6npH/wA2cO/5n9mIJfr/AKXv/wBZ/E/6Fkh+F+yiAwIBGgMvf5AerDQVOld/FIDpuBb6ATYBuBdgIgKAAlwF9QF3cA9rdgMYjD069NQnv0l2AmH4niOHpUcZB1qK0U1ugPqUalDFxz4WtGaf2W7NAacKkXZwegEu10f5AbSlLaLATlToQz1qsacV3YHzMTxide+H4bTdutWQHHD4ZYZOUm6lWb96T3A7O9rXAiYF0AaLYB5AeQGgEvdgXbfcBfsAvdWAW0A9GFnrkYHovqB970bxF8N4/Qk5WjN5WJV/dIyU4qS2aujIoFAAAAAAAAAAAAAAAAAAAAAAAAAAAAAAAAAAAAAAAAAAAAAAAAAAAAAAAB/P/pU4y8JwqOCpy96tuWEfxoosV17AZ+JtgXsAAAS4C/YCryBNbgPmUVb6EBXuwInu2BjFQVbA1oLdLN+QkfXwGMjxX07GhFrnULaX10L8DxpdHoyBZt+QNZJNgXlyvYDSpsCSg4xuwM0Kqo4qNaWip66gfBq1/b+OOt0c7kV9Vu5UQAAvZgRp7gXYAmAuBQIwIwFwLcDotYgZkroDlJWAx1AzU/yp/wAIV/T/AKNnf0jQXmX9ysy/lPEv/wAri/8AmsiudSi6UYtyTzLS3QC06DqU5TzJKPR9QM04c2pGF7AKkHTnKDaaXYDVSjy4RnmTzdF0AU6DqwnJSSy9H1AxTg6lRQbSbdrgWrT5U3DNe3UDdShy6MKmdPM9F2AUaHOjNqajlV9eoHOEHUmoKSWZ7sC1qXJquDkp27AbqYfl0IVc6kpfZ6oBQw3PzyU1FxXXqBzpw5lRQ2u7XA1Xo+z1nDOpW6oDU8Pkw8a2dNS+z1AYfD+0OTzqCgr69QOUIZ6kYaa6XA6V6Lw9VwclJrW6As8M44aNdzi8z0j1AYbDe0Snaai4rqBzjHNNQTWsrXA3iKHs1XJnUtL3QFeFy4ZV1UWv2bgMNh/apOOdQyq+oHNRvNRb1va/QDpiaHs9TI6indJ3QB4a2G9o5icb2ygMNh3iJuKnGNk3dgc8vvOHm1wN4nD+z1FFzUm1fQCrDXwvPzrf4QFCg8TNwzqLSvdgc3FKeTs7XA6YjDvDTSc08y6MAsM5YV180Uk/h6sCUKLxFTJmUXa92BiUcsnG6dtNAN4ihyJR99SbV9AEaGbDutnWj+ECUaPPqKCko+WBmcFCThe9na4G61F0MvvKSkunQBCg5UJVMyVuncDNGnzaii5KN+rAk4ZZuN72e4G6tHlKLzJ5lsgJGjnpSqXSy9APp+ktPVnDv+Z/ZiCX7L6X/wD9Z/G/6FlIfhF8K+RFNgCAjAkIcyoofiwPY7PT8gFrAAHfwA8gRzj1nH8wIpx6Sj+YGlqBWBkCq97MBZXAAXXbSwE6NWuvIHnlgaObPC8Jd6bsB1jUx1LSnjZtLbPqBv2ria/9TS/7WBHWx81apjMqf3E0BxeCpzlnqynVl++7gdoqMFaMEl2sBb69mAS1AvyAbARgXoBL9AJKcVo5x/MBzKb+3H8wNbve/wAgJmQC9tQG6A1GeWakgPerSWgG6dSVKpGcdHFpphX939K8SXE+BUK17yUUmZH2QKAAAAAAAAAAAAAAAAAAAAAAAAAAAAAAAAAAAAAAAAAAAAAAAAAAAAAIAbSTbA/hP0j8VfEPUVSlGV40tEaR+S6Aafu0V5YHN6ANwKBG+zaAltXZ3A5VMVTo6SknLtHUDmsVWl8GEqyXezAPHVEvewlVNfuslyJ9Y018dKpH5xZbFXEcM/ttfgLG1jcNJf5oG41qM17tSPyuB0g8sldXUtGvAHhnCvwrFe2YOTdO+qXT5kH2aGJocSpqvSsp/aj1TKN5baNa9wNoDorAdYpW2A4YudKhReZ6eQPy+Ox88TPk0r5L/mQejAYJ0U6kt2hA9U5xgrzmo/Mo5Sx2Gi7c0DP1lhVvNv8AAgy+KUPsqT/AWMviSe1Gb/AWH1jN/Dhan4ItjS4hFWVWlOn5kgPVGcKkc1NpoCppAXNdgN2AsgHyA6Q1WgFYHKSA5tAc6q/Uz/hA/p30ba+kaPzl/cqS/lXEdeJ4p/8AusiuU6VSnGMprSWwCFGpNOUU2o7gSEXNqMFq2AnGVOTjJapganRqQipSVosBClUqRc4LSO4GYwc5qMVqwE6cqUnCe4GpUZwpxqT+GWwClRqVYycFpHcDEIuclGPxMC1ac6M8tTSSA1OhUhTjUkvdewClRqVlKVNaR3AzGMpNRju3ZAWpSnRnkqL3kBZUKkKUasl7j21AU6FStm5f2dWBmMXKeVaybsBatKdCbhUWqQFlQqxoqq1aD2YCjQq18yprVLUDCjJzUUtb2sButRqUJ8urva6AcioqPPcfcegClQqVm1TWy1AxledR82/EDVWjPDzy1N2BrkVFR51v1eyAlGjUrzcacbtK7AxZ5sj+K9rAbrUalCWWqveeqAqoVeVzkvc66gZo0alZuFPV7sCOMs1ra7WA1Uo1KLSqrdaAFQqOjzfsICUqU60stNXe4GXFqTi1Z3tYDVSlOk0qitdXQFjRqOm6qXuryBKdKdWWSC959wMyi1Jp/EnYDdSlUpWc1pJaASNGo4Ool7q8gSEJ1Z5YLVgSScJOMr5kBqdKpTSc1vswEaU5QdSK92O4H1PSjt6q4d/zf7Afsfpf/wD1n8f9hJD8MtvwAANgDQHShG16n4AdfCAmwElKMIOcnlj1bAxQ9rx9TJw/Dyn3qS0iB9Gl6ak0p8Q4llvvTpL+4HohwDgUd1iKnnmAalwHgM/hWIp/KoB56npmOsuH8Taf3KqvcD52JhjeHO2Ow0lB7VIO6A1CSlBSjJTi9mtgKtQLa4Bqy3AgEuAtbUAAYFbVgHXQBqBdlcCXuBQJt0AN2WaVrdwPN7VOvV5OCoyrTemi0QH0KPpfieIip43GQwsX0WrA9EfSvCF/m42rVfVq6FBL0vwVq0a9aL7t3FDhU9KVI+9guJXfSMtBQ+fXhxHhsrYzD5offhqB2o1aeIjnpyUl1XYDV02wLawHrw070rbuOgHZq63A/pf0W8TzQq4Gb21RB/SCKAAAAAAAAAAAAAAAAAAAAAAAAAAAAAAAAAAAAAAAAAAAAAAAAAAAAACMDw8axiwHCcTiJOyjB2A/zlj67xeOrV5O7nJmkedLwArfEo9gM9QG1n3APcCPZ2YGVSr4rErCYZe9a9SVvhA+lR4bgeHzvNc2r1zdQPfHjDp+7TwdNRRR0+uKV7ywEJAc58T4bUl7/DE18wOM6vAqj9/hjS8Acp4X0zUeuHqw+SZB4MX6f4diIufC8TJVVtTmrXFD5tLF1sJVeFx0HFp2UmtiD3p5VbSUJ7rdSKPFVwtXBVPbcC/dT9+HYD62CxtPiNLmU7Kol70AOy3fjcDcJJu/9QNVcRGhTcpSSVuoH5XH4+txCvkg3kWyIPTg8FGlFSmryA64jExw8byu30iupbHPDcJxPEXzsQ3Cn0QofXw3BuFU4frIuT+VxQ9a4fwdbYe//QBtYPhq1jhlr+6Br2bCJaYZFEyQi7xoadgOjhwzGx5GJoKlNrRy1uB+a4nwuvwWtz6N54dvVLVEHSE41qUatPVPfwBdLgNmBQIB0pPWwG2BzktNwOTAxW/yKn8IH9L+jV/+Eafhy/uVJfyviGvE8V25r2IrjJzkkp3svhuAi6iTSclHrYCRclJOF79LAJXbbm3m63AspVHGKk5ZelwEXUUWo3y/asBIXzJwzX6WAs3Jzbm25eQLKVSVNKd8v2b7AISqpS5ebX4rAZi5KSybrYCzzym3Nty65gLKVTJFSzZel9gFOVRZuU5W62AzByUk479O9wLUc3Juq5ZutwK3VdOMZOWTpcBTlVjmVPNfrl7AZV1K6ve+lu4Gqkqspt1b5rdQLKdXlRUnLJ07AISqxb5WZNrWwHNO0la9/wCdwN1XVc71b57aX7AVyq8pRblyunYCU5VVd0nK9tbAZV7p63v+NwNVJVJyvVvf94Ct1lSsnLlfyAU5VYybpOSdtcoGLvfW9/xA1UdRyvVcm+l+wBSq8ppOXK69gFKVVSvTupeOwGW/e3d7/jcDVSVSTXMzXS0uAUqnLypyydewCm6kZfqr5vAGXfNdtuXnuBqcqk2uY3e2lwClU5TV5ZPAEpualeDln8AR3zO979WBqcptrmZvFwEXUyNRcsnUCQcoyWS9+lgJK+a8r36ganKbs5t6bXARc8jUb5XvYD6fpZ/+KeHP/wB3+wJfs/pg/wD1n8f9gQ/C9F8gCA00BGreQPRBZaUV3ALTXcDFSrCjSlVqO0Vt5YHfA8LnjbYviCcaG8KCe68g7PrPEKFNUqKVKmtox0B2cXUW7kvzFlwirJfaX5izsvPVt1+YOwqyutV+ZTs6rGXi6dRxqQe8Z6oK+XjeGezSeM4brT3nQ3/IiOFOrCvTVam/d+0uqYGvIC9wJbyAegC9wD1QFtoAtcBZgLgVARgE7sA2owdScrU47sDnhMDW41UdSTdHBxer+8B+gozw3D6XIwFKMEt5tXb/ABC/6cp15VJ+9Jyb/Ev+0/070sHjKyWTDVGv4bGZzx+3WNOzL9cW5cO4hDWWFqW+RPXj9tTw+2POLi3Om7TjKD8qxqMsZ+XHKJx/aHRVHKGWSzwe6auVP9Pj8Q4HlbxfDXkmtZUr6MivHh8RHEUno41oaTg+gR2td2v8gO+Elapa9roD1LYD7/o3iD4f6hoSvaM3Z6gf3KMlKKktmroyqgUAAAAAAAAAAAAAAAAAAAAAAAAAAAAAAAAAAAAAAAAAAAAAAAAAAAAgH4j6UOJrB8B9njL3qr2LA/iafcqNQ1qJeQOc3+scu4E1v+ABaoA1K1wKmleX3IuX5Afa9N4ZQ4RUxs/8ys5OUuyWxR44/rak6ktbvQg3luna3kDWWyvbcDPLjfcDMoxWmrAxOMb6R/mBmNK8k09fG6A9lfBYbjGH5GLap14r9XVt/JgfnalPF8ExDw2Mg3SvpPo/kB66dTRTptSi+vRgeethqlGr7bgHlktZU0Qe2hxjC4mKdRqjVWkr6XA3V4pg6MG3VjN9osD4mKxtfidXJBNQT6AevC4SGHirayfcotfFKi8lP36r2iiD6PBfTs8TNY3iDaW6gzUQPsYqKty4JRgtrEHjjZadgOsQN3bsgN7LqUaV/IGMRQjWotW95bMDnw9+3YLEYTEK9k4q4H5Th8nRxlfCN+7d2+aMj3yte3UoeGAeoBbgahpMDvJAcp7AcmrSsBzr/wCRU/hYI8v6X9Gqv6Sh83/cqT5fyrHJ/WWK115rIOc6s6kYxkl7oUhWqU4yjFKz3uBITdOalHdAJTlUqOUrXe9gNTrTqQUZJWQCnWlThKEEmpb3AzCcoTjJWugFScqs3OVk30A1UrTqU403ZKOwFp1qlKM1GzUkBinJ05qa3QFq1JVpuU1Z+ALPEVKlGNOSWWOwClXqUVJRSaktQMRnKE1Uj8SdwNVasq9RzmkpPewGpYipOjGi0sqAUcRUoZuXa0lZ3AxGbjNTjve7A1Wqzr1HOdkwLLEVJUFRaWRfmBKOInh3JwSeZa3AwpOM86te9wN16069TPNWdraAV4ibw6opLKgFCvPDuUoJNtW1AwpNVM/2r3A3XrVMRPPUSv4Ae0VHQVHTImAoV6mHnJws7rqBjM3PN9q9wNV6868800k0raAX2ip7O6NllYEo1p0J5oJN2tqBhyk553ve4G61eddxlUSWXawFVeoqLpK2Vu4Eo1pUKl4WbsBltuTldXvcDVWvOtbmW91W0AKvONF0klkYEpVZUp5opebgRycpOT3buBqrWnVtnSSSsgEa1SNJ00lle4EpTlSnmhuu4GZSc5uT3e4G6lWdTLdJRiAjWlGm6ataW4V9D0t/5o4d/wA3+wSX7X6YNuG/x/2CQ/CL4V8gqrcDdr6AFHoB2lK0rdkBYRcpqP5+AHD8L9aY+VepG+EwztFdJMD7NWo5VIxbSjdXS7FhYiJl+z+p+AYfh9HE4unkjOKeZyOkRHy7xhhEXLz5fR8ftRf/AFD+J/TTm+kI9ExeJetr2r0ivsL8heJetPbPSK/01+Rf4l63t4fh/T/E4zeEw0ZqDtK/QVE+F9OMxeL8NWlycbVhCyiptWW1jlk88+XyeJYZcOxEcfRj/wANWeWpDpF9yIxODjJq91un3Am6AAPIDfoA6ALgNX4AXYACq4EuwKk21CO7A5qg+J4+OCg37PR96tJfa8AfaqVYwpxo0I5KcNFFBaj5d+HcNxHE66pUlaH2p9jOefph30actuXpiOz9A6fBvT9O1RRq1303dzz/AM8+8eH0/Rw3Cx9y8dX1diXK2Hw0acfJ0jTHy4Zfkcp/SKZh6sx97zjTkuxfZhiPyW2O0w9tDjfDeIrlY3DRpt/asZyw9Ph2x4vVuj07Yp5uJcClh4e04KXOovXR7I1hn8OPE8HER69U9nyoSyyzJanV898njuAeHa4rg42t/nRXbuB51KNSEasfgqLR9gjdCSVZXA99ugHTD1XQxFOrHeMrgf3z0/jVj+C4esnrlSZlX0gKAAAAAAAAAAAAAAAAAAAAAAAAAAAAAAAAAAAAAAAAAAAAAAAAAAAAQD+K/SlxN4vjqw0Ze7SXc0j8N5A1SV5N9kByb1Aib2A9NCh9qQGsSly1l01A8lV2wleT+40B+ko/qPStNLrTX9CjwUYS5MbJLLqQbs0nazu9QD7PQAo2cXbYDlPVuwEtpZbgboQcppSQHvVFONrFHKahKEsPiKarUZaOMt15TA/OcQ4ZiOCVPacO+dg59e3hkHSlUhUpqrSn7r0v2+YHLEYShi9ZwdOp3itwPL9UU09azf4AeujQhRhaG/cDjWr1KtVYXCRbqP4n2A+5wnhFHARVSquZiHq29bBX3KVTM7Pd9DQ5YuOhJR82SaZB0hewHWPcDa3KNx2sBrwB5OG/q+MVqf3kB+UxC5HqSa/90zKvoJfrF8yj2TpRqRtogjyShKE/eWoGfICH+YgPSwOcloByluBzr/5FT+ELD+l/Rl/5Sh/E/wC5WZ8v5Vj9eJ4n/msiuc6vMhFNKOVAIVXThKCinm6gZpzdOcZqz8MBObqSc7JN9EBqpWdSnCDUVl7AWnWdKEo2TzIDFOWScZ6NrWzAVJurUc2kvCA1Ou6lONNxSUVutwLSrujGaUU83cDEJ8ucZ2u13AtWo61VzaSv2A1OvKpSjScYrL1AUa7oKaUYtSXXoBiEsk1NatO9gLWqOtUdRpK/RAbnXc6MaOWKUeqAlCu6Oa0VLMraoDEZOE1NJb3swNYirz6rk0l4QGpYhyw8aOSKS69QJRr8hytGMsy6gc1Jxmpq173A3Xrc+rnaS0tZAaeIbwyoOMUk736gShXeHk5KMZZlbUDmpNVFLR63A6V67xE87io20sgDxD9m5Fo73vbUBQrPDyclCMrrqBjM8+bqnewG69d4iak4qNtNAHPfs7ouMfn1AlGs6FRyST0tqBlyblm0u3cDVeu8Q4txUcq6AVV2qHKyqzd721AlCq6FTOkn01AzJ3m5dW7gaq13XcbxStpogKq8o0HSyxs3uBmlVdGanZPwwI5Z5Ob0bYGqtZ1st1FKPYBGs4UpU7RafUCU6jo1FKKUrdwJKWaTls5AaqVZVcqaSUV0AkarhSdOytLqwPo+mNPU/Dv+b/YD9r9MHwcM/j/sCH4XogKgNoDUV+sj8wNy+Ngc8XVdLh1SUfiqy5aA+/Qw0cBwuhh1o8upRxmtVbuiD9d6nWb0nhH2SO2fh6M/1h+JlFdl+RxecsuyAjS7IC220QH7H0FrDFq1tV/Q663o0/L81xBW4niV++c8v2cJ8y1RpRxlCtg52aqQdr9yI/PYNzeCcJ3z0JuDv2A69AGtgJrazAoAA7gHsAuAuAAalFlUVHDV66+xBpfMg+hwvD+xcDhNr9ZXeZ9wOmFozxWJp4eC96rKxMp9MW3rwnPOMYfquLYunwLhlPCYVKNSpGyfU82vGdk2+3xOzHhtUa4fkJSlOWacnKXd6nqjw+Dd+WrgajHqBtaLu+ghYfW4LxWpga6p1JOeHm8rTd7HPZrvvD1cJxPt5VL0eoMDHD11iaX+XV1dtl2GqfiXbj9PorZHy8FBRqZqNRXhNWOr512/KUKbw2JxeAk/8qWaPyIO0fdmmB9H/wCQL0A/qn0YcS52AqYOctaburskq/fEFAAAAAAAAAAAAAAAAAAAAAAAAAAAAAAAAAAAAAAAAAAAAAAAAAAAAOGMrLD4SrVbsoRbA/zlx/GPH8bxNdtu82kaR84DdJ2cn+6BxWwHpw9FSSnLboB6b6gefFfAteoHjxOnDMU+zigP0laWX01Ru/sQ/oVXkopukpN302Ijpa+Z2sulwMpSUfIE6WaAzlSWm4GVFvowPThoSlJXQH1eSo007Gh5a0PeuQYp8uUpYeqlKlWVpRexB+TwcPZOL4jAXvTbaS7Aei+77OwEslqu4Ga88mGqT+6gPT6doxhwyeLspVJzacuxB9en0d9+pR7aDsrdO5pWsRZwJKPly1kQajewHRJ3QHTfYDUX1sUbA8eFduNt/ugfluMaeo6n8aMyr3v/ADV20Kj3x0AVKcamklqwPBOLpzcewEirSUgPS9rgc5MDlJagc8Qv1FTX7IH9M+jH/wAoRf7z/uEny/lGPf8A9TxL68xhWJyg4xUYtNb3AU5QVOalC8ulgMwcYzjKUboBUcXNuEbJ7IDdSdOdOGSnlkt2ApTpqElODbe1gMU3FTTnC6T1AVHCU3KEcsegG6k6bpwjGDUktZdwLSnThGSqQzNrR9gOdNpTTmrpboC1nGVRyhDJHogNVJ03RilTtNbsBRnSgpqpTzXWjAxBxU02m1fbwBa0oTqOVOGSL2XUDc50nh1CNO0luwFCdKKlzIZ7rS3QDnDLzE3G6W6A1XlCpUbpRyx6IDUp0nh1CNNqot5AKE6UHLmQcrrSwHJWVRNxvG97AdK8qc6t6UckbbAVzoywyhy/1l9WBKFSlTm+ZDOrWVugGE4qd7aX2A3XnSnO9GOWPVAXPSeGycv9Ze9wJh50oSbq03NW0QGLrPe3XbwBvETpTqJ0oZVYAp0vZ3B07VPvAKEqcJ3qxzxtsgMPLmbUUlfYDeInTm4unDKktbgVTp+zuLg899GBmhOnCperDNGwGW05tpWV7/gButUpzy8uDiluAU6aoODp3k9n0AzSlCNRSqQzICSs5tpWV9EBqrOnLLy6eW27AQlTVKSdP3nswJSlCE05xzR6oCTac246LogNVJwllyQy6asBCUFTlGUby6PsB9D0vp6p4ffpV/sB+1+mD4OGf8z+wkh+FWiQG0gNJAbppZo/MCS+JgTFWc+HUre7Od3+YH6bHu1WK7RRfgeGbu18yD9f6g970Zh/4YnbLvi9Gf6Q/EnF5wCAL63A/X+gXaWLT7/2Out6NPy/OcU93jGKX/uHPL9nGfMt4CVsXTIy+FNcvi/FaS2jPT8wJfsBdwG27AN22Ai87gVtgNwD0AnyAXAbvyUYxyvw1w6TrRRB+hx8VToYaEdlTQHr9K08/F3Nr/LhdHHdP8X0fx+MTu7/AE5eo68q3GaurcafupdjeqKxuHPjcvXvmJfMRt4oaW4GkwNroBroxFkxD9RUftnpVTlrKK3+R547bKfay/q8J3+H5+jJqUXfqel8SPD4/GIql6rnZL9ZT1Irz9fxA+hm0AqA/VfR/wAReD9QQpuVo1dGFf2m97MyKAAAAAAAAAAAAAAAAAAAAAAAAAAAAAAAAAAAAAAAAAAAAAAAAAAAgH531zxFcP8ATWIlms5qyA/z7KeeUpdZO5pEA1S3l8gOT6gdaVZ0pd12A9kZxqLNEDjivgXzA8eJ14biV8mFfoqvvemqL7Qj/Qo89Frlxa7ER0bU7rwBFdRauBLpoDNrptK4C1kraMD2YRdXuUfVUb0yjy1YKzuQfH4lxKlw2k5u0pte4utyD85gY1JVqmMq/FUvYD1ga3uBHFTUoS1UlYBwbFrh9Spw7F6U5u8JdLkH3oQcLJu66NFHro3vqWBcTL3bAfOlv+JBqOzA6R3QGktbgbV7tX2KNrVebAeLDWlxmT+7ED8vxV5/UU7ffRmR9D/VXzKPoJ7fIDlXrqmnFO8l1A8Tbk80ndsAvi/ED1N6Ac3YDk9wOVdfqJ3f2WB/TvoxV/R8UvvP+5Ul/KOIRy8TxSe6qtEVyqRpxjBwlmb3AsY03CTlKzWwGYKLkszsuoCeWNR5HdAaqRpqnFwleT3QCnGnKEnOVmtgMwyucVJ2XcBUjBTag7xA1NUlSi4O838S7AWlGjNTdWTUre6gMU1CU0pNpPdgWpGEajVJ5oruBqpCkqUZRleb3QChGlNTdWVmloBiCi5JSdo33A1WjCNR8t3j3As40Vh4yjJup1QCjGjJydVuLS91AYSi5pTdot6tAarqlCo40W3HuBZRoKgpKT5j3QChGlPMq0stloBzWXOoy+FvcDpXjSjVtTd423AONH2ZSUnzOwChCjOUlWeVW0A5rLmafw33A6V40oTtRneLQC1D2ZSUm6l9gJQjSlNqtJpJaAYvHMl9m+4HStClCa5TzK1wGSl7O5ZvfvsAoxpSqPmuysBzeTNZXcU9wOlaNKM48mWZNa3AKNHkSk5Pm30QGaKpynaq7JoDLUc+WPw33A6Vo000qTvpqBFGk6Dbl7/YCUo05VEqsrJAZkkpNJ3jfQDdaNOLi6cr3WoCMafKk3L3l0AzSUJSSqO0e4EnlztR+HuBuoqaUXB3dtUAjGDptydpLZAfR9K6+qeH/wDN/sCX7P6YGnT4Z/zP7Ah+GWiQG1qBsDcFeUQMvRv5gYx0slLA4jpSqWYH6fHSzyhUW04plHgnon8yQfD9hxl5vRNF/uR/qdZ/V6M/0h+JexyedNwADoB+s9BS/wCIxa8XOut6NPl8LjKy8bxa/fOeX7OOXmUwNvaIPpHUjL4EKircR4jiF8NSdl+YGr3QF1WzAadQK2BAHUABWwIgADqgOeNduGSa3hVjID9FjZKrg8NVWzgv6Baer0tWjS4u4N6VIWXzOW39Xv8Ax2cY7u/y5eoaMqPGqsmtKjui6p/g58fhOPEW+adXklURGkBtMC30KT4fqWvZPSuWWjmrJfM82PfY+3l/T4WIl+foJuUV5PS+I+Jxesq3qipKP+lTsyDl1QHvWwGkB6uHYl4XiFCtF2cZq4H+gOG4lYvh9CvF3UoIyr1gAAAAAAAAAAAAAAAAAAAAAAAAAAAAAAAAAAAAAAAAAAAAAAAAAAIwP5h9LvFYxoUcBGWr1aLA/lHQqFwNUX+s+YGGt/mAAsKkqbunp2A616kakFbcDhUWfDV420cG3+CEj9Dgpe1el45dXy/6IsDw4OSdJW3WjIPTf30+vYDM3G+m3UAvgtpcCNtJpagYutdgPXhZPNHYo+zSnHlPNZeSj8/xv1Dh8JGVKg+bVeluxJH5aFGrjK7xOMbbetmZHuzRhHNLSPdlHmVXFYuTjgaEpxW8mQdY4PjFK0uQqi7NlGqdenVbg06VWPxQl1+QGqtKGIpOlWWi+GXWIHbh/Fa3DZRw2PWfDbQqreIH6jDxjOjzsPNVab1TW6KOGIlvf8kB433sQWL7oDopvsBYu+4G7q/kDSkk9SjxcPlGWKxOIvotCD8vOaxPHJTW2a/5EH0k06n47lHpq4myap723A8jd9X1AbAah8S+YHdgYla2oHKTSYHKr71Gatd5QP6B9GnGsJhPTEqVaooyp1bWfyYH4H1HSjR9RY102nTnUzRaA+fOmoxTTu5bgWNJSi5Z0mugEis7y3tfqAkuXLKmnbqBZU1GKlnTb6AIwU4yk5JW6dwJGOaSV0rgJRVOTgmpeQNSgowTzXv07AIU1OMnmUbbAZjFykldK/UBUjy5ZcyflAalSUKannTb6AIU1UveaVlsBmMVKaheyvuBalNU6jipJpdUBZUlGkqimm3ugFKmqt255cqv8wMxinJK9ruwFqwVKTipZvIFdJKkqmdNv7IClSVVu8lGwGUrytdb2uBatNUp5VLMt7oCuko0lVzq7+yApU1Vk05KNlcDFrytfrYDdWmqUklLN8gHLTpc3Or/AHQFKmqkmnJRt3Axb3st+u4G6tNU5KKkpXQDlLkupnV+wEpU1UllcsqtuwMte9bMt7XA1Vpqla0lK4FVNOlnzq66ASlBVJWby9dQMtJSy7q+4GqtNU7WkpXQBU06XMzJPsBKcFUllclFeQI0lJrs7XA1OmqdmpJ36AFTUoZ8yuugEpxU5WbUU+oEkrSaT26gaqQUMrUk79OwBU04OeZKwH0PTlanhePYbE1mowoyzXA+79IXH8PxtYCGHd8ksz/ID8/fRfIDUQNxA6x+OKAxLSb+YEq0/aeH1cPa8178F3YH1eF42PEOEQu/11D3ZrrYCTVkwR5fsOIqU/RFJKLk8kdF8ztP6PRMT6H450az/wBGf/azl3cO/wBHs1d7Uan/AGsdzv8AS+yYvph5v/pYqTv9HsmKf/pqn/aSpKy+n6b0RQr0cXiXUpShFw3aOmES76ol8Pjt48dxat9vX8jMx/Jyz/Z4cTjI4Dh9SttOSy011Zlh8nB03RwcYyXvSeZ/MDt0Aj1Aq2sAs2AWwBgADYAB5YD8NwDgqtOrQa0nGy+YH0OE4j2zhDw83+uw7tJdbBW6NephcTTrQ0lTldEyxuKa15+jOMo+H6niWHp8f4dHFYNqVamtur8HnxmcJfb36seL1e5h5flZwlSnkqRcZLdM9Md+74Mxlj2yOt7WKnnwqZLXt9reyu0xET5WfD6nCOGVcdiIznHLRhrJvZnPPZHiHr4Xh8t0xMxUQ9nqDiMK04YSg706W9upNUV3l143iIyn28fEPmRqQw8JV6rtGmrs6vnPy9CcsTiMRjZb1ZWV+wHojq0B7kwNJgW9rNAf2n6PeJLG8AhScrzpaakkfqyKAUAAAAAAAAAAAAAAAAAAAAAAAAAAAAAAAAAAAAAAAAAAAAAAAAGZSUYuT2WoH8A9f8S+sPU1azvCm7IsD8zcqIAg7VIvpcC1NJv5gZuA1ALyBY6S8PR/JiR7OAcSjgqlXhuJeWM23Tv1TEDVWNTh+JlJLNRk+gHaOLoShmU1m7AFiaT1bXyAixNFPyBn2im73lYDHOg0gOtHEqG+iXUD5vFfUNWa9nw8n2bQHz8LhHfnVneb11IPXUqwowzTaSRRnAYDEccxGad4YWO77gfpaWHjhqSo0IqMFv5AxKm814vL/YDy8Q4THi0HONqeLgvcktM/zA+FQxcoVXhcZBwrQeXM/wC5B65JOMoVI5oPeP8AdAYweOxfp7Eqth5uphZv3ovoUfqHiMLxTDrE4OpFNr3oFseNqUXqiC38AXMwNrbqBpSSlqB4sfjVTg4Q1lLsB8uvj/YMBKnF/rKm6A+fw2i05VpLV7EH0E/GhRFf5AWzAdGBaafMQHouByk0wOUtwJfWz2aswryYTEVMJWrYeMnFTd18wO2JhXq04zqRu117hHi1Xz6oDcKMpxck1ZASEHOSinqwE4unJxdm0BZ0ZU4qUmve7AI0pVIucWvdAkIuc1HS7ATpunNwerA1OlKEIzb0lqgJToyqqTTVogZjHPJRW7AtSm6UnGVrrsBZUJQpqo2rMC0qMq12mkkgMxjmkoJ6t2AtWnKlNwk02uwFlQnGjGq2sr6AKVGVbNla91X1Awk5SUUtW7AarUnQm4Sd34AroyjSVVtZWApUZVpPI0kgMqLlPKrXvYDVWk6M1GTv5QDkyVFVrrK+gClRlXk4xaVlfUDCjeWXqnYDVajKhJQk7/IC8iXJ511Z9AJRoyrycYNJruBnLrl63sButRlRkoyad1fQByJ8nnXWXsApUnWk4Qa2vqBi1pW0vewGqtGVFpTad9rAVUJOi6qayr8wJSpyrSyxdtOoGXFqWV97aAbq0pUWlJp3VwJypOk6t1ZdAJTpurNRi0r9wEk4txe60AtSlKk1mad0AjRlKm6iasgJCDqyUYtJvuBJLLJxe6A1UpSpZZSaakBhJLRLUDrPD1lSzq1grlQTrYhS3jHRBH0NEBYsDogOi3uBKytMDKlKMlJaNMDnz58Mx6x+Hj+pnpVgB9puliKKr0Z56U1dNdAP0GD9WwwmCpYWWDc+XFK90bjKodo2VDp/jWK24fb8UX1nu/4H64l0wEfxsX1nu/4T/HFbpgo/yHrPd/wn+OcRd/8ABQ/kT3D3p+mV64xLemDghGZ7szL4GOxntmKrY+ulSjJ3kYme9uUzc2/P1a8+K47nTWWhT+BdyI9F7sAkA62AJgVNgOgCzuBNnqBUBGA/mBV89AHVNS1QHN154HGQx9JXT0qw7oD7EnDEU1iaElKElfQDtw7iNfh1fmUXo/ijfczlhEu+jdnoyvHw/Qutwjj9L9a1Sr9empwrLGX1Zy4biY/l2l4q3pXERf8Aw9eFSPQ3G+u0uE/jco/+c9nOPpjiLlZ5IruX34co/G7r7vbQ4BgsEnV4hioyt0T/ALGZ2ZZeHow4TVqn1bcnHiPH1UovCYCHLpLTN1aLjhfeXLieNuPRq7Q+TTVnp+Nzs+ZdQ+NxnHe2VPq7DP3Iu9SS6+AtsRjGMIwWiitAjpR1qLxuB6k9AKmBpPpsB+++i7iPJ4lUwkpaTWhJH9Y6kUAoAAAAAAAAAAAAAAAAAAAAAAAAAAAAAAAAAAAAAAAAAAAAAAAAPnccxiwPBsTiG7ZYOwH+b8diHisdWryd3ObZocLhEYEA6VGpZZdGgMbATqAAv9AMV6MMRBRm8s18E10AkcfjsFFU8TT59LpJbgPrPAOWZwcH1ViB9cYKKtGDf4FEfGsP9mhJv5AZ+uU9sFJ/gQPrXEP4MG1+BRwr18fidFTyIDWFwUafv1NZgd8TiaeHheWsnsgN8I4NiOOYpVa75eHjqwP3NLBUKVCFHDwUacdrdSjMsI2KHnnh99lYDlymteq2aA8nFuB0+OYdzgo08dTXuyX+quz8koflKGKqYaq8LjIuMoO13uiD3WSjaUVKEt13RR5XhsRhJ83AVWo/dbA19d8Rp6VKWb8ANR9RYiPxUP5EHRep5rfDy/MDpH1RTv71KS/Eo1L1LhprWEkSx4q/GITX6im5SfVlHmp4WtianMruy7AfRhBU4ZYrQB8gKgHUBswOlHqwNtgc5MDlIDOl9NwPPi6HNipxdpxA1hOIKpFUMQrSWzAxi5UlU92GvcDz8xK6vowKpK7s7MBe+rd+4F3dr3A1GEtbSVvmBeRUdmkvncCuhWbs1r3AqoVnur/iBFQqpNpWv5Aez1V9n+YD2eq9o3fzAcir8LV/xALD1Volb8QCw9W9su3W4DkVXduN38wHIq6Jq6XS4Dk1ltG34gORV+7a3kA6NVu7jdvyBHQrWs1p2uBeTWWkU1+IEWHqLXK/zAro1m7uLf4gR0aqWVp27AVUa3RW/EA6FW3wfzAOjWfxRv8AiA5FW2W2nzAio1VsmgLyKttIgR0arV2mwHJqu0Unl7AFRrJ3SsA5FTpEByazeqbAcmrsk7PoA5NZapWAcir9wA6NWWriwHJqpWs7AOTUSbUXfvcCOnJaS/qBl33bu15AX0tdJdgIpR72t2AjkmAc1fWV/AHpwnKk7vRrqwM4zFOo1Qo633YHXD0VQhZ6sDrugEQOkWB0iBausYyA533AJ6NNZoS3iwOFKWJ4XVdXC3qYeXxUgPp4biGFxsVy6nLqdactLfiB3cZLdO3dATTsAv0sBYxctFFgcMVjMNg43rTU30hF3A+TWqYnis71f1dBbRXUD0RjGEFGCsBVqwLcB5ALQBe7AOwBWtoBOoFugAB7AOgAB0s9UwONGtX4XUc6F6tB/FTfQD6uHr4XHxz0KiUutOW6A24ShL3oteWLjwsdu9u9LH4ujpTxNRLosxmccXSN2zHxk6S4tj5K0sXUt/EPTi1PE7q/Z55znWlepUlN/vO5fTDlOezPzLTlGlHPVkoRXWTsaSqfJxvFqmKzYbAJqD0nVf8AYiOOHoRw8bR1k9W3uB1aTsmB0o73A7KQGkwNJ6Afa9L42WB49h6qlaLkkxI/vlKaqUYTTupRTMq2BQAAAAAAAAAAAAAAAAAAAAAAAAAAAAAAAAAAAAAAAAAAAAAAAAfiPpQ4msH6edBStKq7FH8NW3kqFwAGWBuLzUbdgMgUBfUA0BHrowKpNaXduzAzKnSk7yo02/4QEaVFbUaf/aKGvd+zTgv+kC3stEl8kAzyfVgTM3fVgZlPJTnN/Zi2BjhnDJYy+NxKbp391Mg/RUMXyaap04qMOxR7KXElFZW9i2PTHHxlHdFGZ4qk9L7oDjKvGO3QDDxLjaUFaS1TIPncYwFLj1KVeEVTxlNe9b7f4dyD85w+tUhXlhK17q+W/RkHs2flFFeq1Ay4xe8V+QDlwt8EfyAnKpbulD8hQcrDtW5EPyFDXLppe7TjH5IC/gAAAQBstAHTyB2gssNNwDegHNgc2BOgEA418LCt7yVpLqgPNOjiaWjjnj3A5ua2lRkmQTPD7k/yAvMj9yX5FDmQ/wBuX5AObH7k/wAiDUcRl2Uyj0R4lGKs6M2wL9ZR/wBiYD6yhb/ImQPrKH+xMAuJQW1CQD6yh/sSAfWUbW5EgH1lH/YkUPrKH+xIC/WUP9iRBPrKP+xMofWUH/oSAfWUP9iRA+sof7Eyh9ZR/wBiYD6zje/ImBVxKK/0JgPrKFrcmYD6yh/sTYD6yg/9CZA+sof7EwJ9ZQ/2JlF+so/7EwH1lH/ZmQT6yjb/ACZlD6yh/szAv1lG/wDkzAfWUP8AZmA+sof7MwH1lH/ZmA+so/7MwH1lH/amQPrKF78mYE+sof7EwOdXG8zRQml4KOMqyf2Zv8AMuon9iX5EEzL7kvyKGaP3JfkAzRv8E/yA1e/w0pMDrDD16q1tCIHro4eFCPuq77sDpYBsBUBtWA3EDds1OUfyA4p6AE7+AEW4u6lYDjVwlCq81sk/vR0AU/rHDf5GJ5kfuz1A6rinEoaTw9KXySII+KcSn8GHpx+aRRznPieIVquI5ae6hoBKWCo0pZ3epN7uWoHdLS3QC3XRATYAtXqBV1ANAZ89AL4Aqd9l/IBf8AAE3AoBaAS+oFAdewHCphITlng3Sqfei7AdIcQ4nhvdcoYiC+8tQOq461ZVeHv5xkBXx2m17nD538yC25z4vjq2lDDQpeZasI88sPWxMs+LrSqfu9EKHeMIwSjFJJdEBr+4DS1gOkPdQG1IDaYFTt+IHehUdKpCaesWmB/fvS+NWO4Dh6qd2opMzKvroCgAAAAAAAAAAAAAAAAAAAAAAAAAAAAAAAAAAAAAAAAAAAAAAAA/i/0tcW9q4tTwMHpSWpUfz5FACARvQBSllnbowNSjaVgIBfIEvfqAvYAAuBb2AlwGoBWsA6gcMZJxwc11bSA/UTw8aPBMJCKtmy3KPPynfYgnLalsBVGa2uB1ytWW+gFUV3bAa2b11AuHUoYylKO/9QPzPFaaw/qZ9E5pkHeS99/MojetgAC4BagNgGrAtwJewFuBAHQAtWgOieoBsDm2BkBYCWAtgCv3ANN9I/kBMq7L8gFl2X5ASy7L8gGVdl+QDKu0fyAWX3V+QFt+6vyAW/dj+QDKu0fyAWX3Y/kAt+6vyAlv3V+QFt+6vyAW/dX5ALfur8gLb92P5ASy+7H8gFv3Y/kAt+6vyAW/dX5ALfux/IBb91fkAyr7q/IBZfdX5ALeI/kAt+6vyAW8R/IBbxH8gFtfhj+QCy+6vyAWX3V+QCy+6vyAWX3V+QEsvur8gL/0r8gFl92P5AMq+6vyAZV91fkAt4j+QC3iP5ALLsvyAlvC/IC2XZfkASXZfkAy+F+QFtp0/IA1+IBfIBZdGAsAsBpMDogNxlaQHOUbTaQGUgI7AF3YDX/+ZRb201IF/NgG/W4DZgUCNoBqAtcBZrcDNScaUM1SWVAcKeJq4qWTB4WpWfhMD6NLgXGq6vLk4eP78tQOy9M47rxKin+AGJenOK003SxNCt4ckgPDiI4/A/8A3WCkor7UVdAKOIp4hfq53f3eoG+trgPABIAA26AW3UCWu9gLp2AadgI/CAN6WAAWwBAaUrgauBqMgNXA6wYV/W/ou4nzuH1MHJ6wd0SR+/RBQAAAAAAAAAAAAAAAAAAAAAAAAAAAAAAAAAAAAAAAAAAAAABAOeJqqjhqlVuyhFsD/N/qjHS4h6gxNdu6ztI0j5SAoADDAz1ugO189NSW63Ait0AywAD5gUBcAwI9QL0AnyAt9QOOJWZ0af36sV/MD9nxGPLw+DpJbI18DxuLuzI2qd4eQIoOIFsrFDK9la3cCZbddyDdCCWJpu/UsD816sp8j1BGfR2ZmQk92uqRRnXdgUCWsBdQADbUAAAAAIBqK1A2BH50Aza7sk5AaVCrL4YMDccDXl2X4gdY8LrP/UiBr6prP7aAj4XWT+KLA5y4fiYv4E/xA4SpVIfFTaAxdd/zAafMBYBYBuAAAAFgFgFgFgKA3AmoFsA0AWQCwABZgSwCwAC2AlgFgLa4CwCwEsAsBbALALALAADQCwBoAA27IBdX7/IDUadSfwwbA7QwOIlrlSXkDrHhVZrWSX4ga+qav30BHwmqtpxA5S4biI9n+IHN4WvD4oWAyoW3TA2lbXcCtAZl70NN0BzT6dwADQAmAv0Av8wJ8wF0BQG4Bvu9AGi7sDniK8cPBXTlUl8MQPVw/gMsRbF8Uk1F6xpID7sK8MPTVLC0oUorqlqwOcqs5/HOT+YGNVre4BTkndNoDqsTUtaTU49paoDwY7gmFxy5uEfs+I300TA+PGpVpV3hcZHl1o7Se0gO70b79QHQCAGAAXAMAAAiAuwFTAjYBMDaYGkwLGQHWEgP2f0ccR9j9QRpyl7tVWIP7UtiKoAAAAAAAAAAAAAAAAAAAAAAAAAAAAAAAAAAAAAAAAAAAAAAgHwPWvEFw701ial7OUWkUf50lN1KkpSesndlRpagasAaAw0Bze4FpyyTs9mBuScXYBfQCAAFwABuwAC3Amt9ALb3kBmCz8UwMWv9S/5MD9lxJ8zFUox2jEo82VtXWoVpRjF6vcCSj+YEyabBEs1Ha4BpdAEGudDW1pID8/65X/1GhU7xZJHBO8IvvFAV7WAl3YBfuBegEAAL3AAPAF8ARvp1A0n06gbjByYHeFGHzYHaEEnZJAeiEQO0YoDqkvwAqinsUWwEas9QMThGW8UyDyVcJRnvADw1eH2d6c/wYHlnGdP4ogRTTQFWwAABbAQAAAoBgAFn0A8lXiNKnUcFFytuS1d6NaniIZ4X03TKjbaSbfQWPHLiVJTypNruS1euE41IKUdUyolSpGlBym7JAeWPEqcpqLTSfUK9l7rwwjnWrww8FKb36Cxyo8QpVp5LNNvQWPU1aVnoB58Ri6eH92V3PsBcPi6eIeVaPsLHcAAsAsAAAWwACAAIAbS6gEpTdor8wO1PC3fvtvwB7KWHhG2iQHqhBLZAd0ijcYoCpXeoVWkEZcV2AxKCa7kHCpSi94oDzVMNC3u3iB5qlGUQOV7S2AxJWegEAgCzAvzAAQC7gAKAt1eoCdRUMPLETdlHRLuwPVwThuf/AOp4yN5y1pxeyQH2qNOpj8XToQklKbsm9Ekaxi5pJmot6eL8CxPB5J1PfpNf5i6FywmGcc4l8676fhcxFNzEo3pcKy3bfcqN0aVXEV40aEHKpLaKERc0kzUW+pxTgWI4Rh6WIqVYyUviS3TOmWumcc7fJx3D6fF8K4S0xEdac1v8jk2+Dh5znmoVVlr0naSfUDo9FbqA2AdQF/ADoAXwsAgF7ARNAWwDYDN7gaQGgKmBpAdIOwH0+D4p4TimHrJ2yzTA/wBC4KusRgqNVO6lBMyruBQAAAAAAAAAAAAAAAAAAAAAAAAAAAAAAAAAAAAAAAAAAAACMD+afS/xPlcPo4GL1m7ssD+PLRIqOiVgOiQFaAw43A4yQGJboDrTnni4y+JAV22AnQAA0AjYBO4FAAL2AqKOmAjn47hVb4VJkH6atPmY2f7qRQUbXtcKtrXvbVATK92BEnr23QQfwgYtfYDMlkcZdmB8b1vC6wtTwySPDTd6NJ90BoAA3Ajf5AAAACgAK3ZXA5L3npuB3glHfcDvF2A6x30A7wsgO9PQDtFIDomijSt8wC+QEfkDLIOUlruBxnG7vdAcKsFPdJgeKthU37vusDyycqUss1cCqUXsBq4EzAW4ACAaAgC4F3TXdBXwq9KdKtKM099DI+hwunOFKdSatGVrFR6q0XUoTivia0A+FKE4vK4tPqFfYwUJUsJGM1Zt3SLCGPpSqYS0Fdp3aEj46jKUsqi7vRGVfepxcKNOD1lGNmaR4+J05SjCpFXS3RB4cPTnUrQUYt2ktQr7knaVunkqPl8TpT9o5rV4ySsQThtOcsUp2tGO4H1G1d22voUALcBcABAK3oAT0AlwI5WAxnlPSCA7QpRXxasDvBAeinFAeiCS21A7x8AdE11KOiaAuwUvcIj0Aw7WIOcvKA4zjp3A4z7WuB5qtH7UdwPK5K+V7gRLUAwGoAA2AAbgAADXZdQDoSx/FsNgEvcp+9UXd9QP0mIcY2pQ0hDRJAcM0lLNFuLWqaHf4O3y/UcG9QUsZSXDuJpNyVoSls/B6sNkZR6ZcMtU4z6ofO456fqcNlz6F6mFbvf7pz2aq7w3hsvtL4rd9jlDpLphcNWxtdUKEbyl17CIuSZqH7CjQwPpbA86s1PENfjfseuMcdePd5Zmdk9n5biPEsTxPEutWl/DFbJHmzznOez0Y4Rh5cabdOcWns73MNPmepMMsPjMPxOirQre7Ut3A8jdpabPW4EYDcCgNwDAbgS7vYA/kBbaXYGJSu9ACA0gNICgW4G09APRSl7yaA/u/obiCx3pyjrdwVjMq/R9QKAAAAAAAAAAAAAAAAAAAAAAAAAAAAAAAAAAAAAAAAAAAAASTSV3sB/A/pL4rLiPqWVO94UdEUfkFuVHWCA7xjoAygYlEDjKKA4yQHO7jK63QHeM1Vjmj03QFaAgF+YEYC4FAAEAvd6aWA3g8RHCcZwlap8DvFv5lH6XGRWF4ip3/VVUmpdBY7JXXS3ddRYjV9NEkAVtbhWUktbhFeXLcDEmvd0dxY41q0IRyS1lN2igPz/qzGqvUoYSLzOnHWxmRzpq1GmuyKL0AqaAj1AgDqBQFwADpZ7Acszm7dEB0glEDopO4HSMrMDrGXUDtCYHeE2B2jNbAdYyXzAqaaelijWayIJm/wD5gYlIDnKVgOUncDlJgc2BxqQjNWaA8VbDyp609UByVV7PQDamBcyAXAt0AuAuAzAMwFzeEB5cZi3QtGK95hXCjxCo6ijOKs3YkD6OdprRfkVHhxOOnSqOELeSKuDxs61XJNK72A9rlo9E18io+dV4jVVRxglZdySPTg8VLEKSklmRR2q1FCDl0sB818SquTaSIPfh6/Po5sqeupR1v4sAuAuAuAuAuAuAbAjkkBzlVsAjFz96W3YDtHYDa6AdovUDtCWoHeM+iA7RmkB1UwNxd9bMtjSkiWLfvuWxmUtN2BhzSS1IMSl1A4zlcDlIDm3oB56tONTXaQHmvJNwno+gGrWYAAAeiAi1AAPIDVgbpK9WK8gez01DmcU4hiXvF2QgfQnLNJt7tgZvoBl6W1s+jRR97hHqadHLhMfarh2rXe6R2w2f2z4cs8PmPL0430tRxc4YjhlZKjUd5eEay0+ubhmNk4x38u9fEYD0thXSw0VUxc/zXzNfw1x/lIvPy/LYzG4jH4h18RPNJ7dkjyzlOU3LvGMYxUOauRWgJxWmsV6cxEZb0/eQH5/DTz4anLq1YDp1AeAABLXUBv8AICbAW4DcDMpWAgFQFQGkBpAANJgd6UgP6f8ARTxP362Ak9HqkSVf05EFAAAAAAAAAAAAAAAAAAAAAAAAAAAAAAAAAAAAAAAAAAAAAPHxXErCcMxFdu2SDYH+Z+KYmWN4piK8ndymzQ4RWoR3ggPRCIG8oHOUAOFSAHnnGwHKSsBlSdOWaP4gd4SU43W/VAV2Am24FQCwC4EbAIAwMVKSr0nTk7PeLXRgfRwXHl7MuHcWTWXSFUD08zEUNcNVVSn0V7gajxLFRvnoXA0uLStaVGSLarLi91pRkLRl8XmlbkSZLHKpxLEa5KCjfq+gHy8VxOOH97Nnra2tsiD5uFp1MRiHXq6tu7uQfSuaE3AAUCdAJ+IF6ALXAf0QHOUnN6bAailFAa6gaTA1FtvcDrBgJ4yhQX6yav2A81Tj1KOlGk5sWOX1xxGr/lUJJeIhWvaOOz2hNXAOrx+mtY1CDP1txei/fpydu8WB2p+p6i0r0fy0Fj3UON4OvpzMj7Mo9fMjOKcWpLwwjnKXYDDYGW+6AywMuK/PcDx4nC3vOG66AeNScXZ6AdFJWAtwLcBcC3AXAtwJcDhi8P7TCMoP349H1JSuFDAVIVIzrJRincUj3uV5X7lHkxeDlXqOrRSu94koMFg50KnNqqzS0XkUr1qSvZ636IqPBXwFV1ZSpLNFv8iTA9OEw3s0JSk/fl26AdmlKLjLZqxR818Or5rRScfvXJQ99GmsPQVNay6lodLgS7AXAXAtwJcBfUCOaQHKU8zsgOkKdtXuBoDV9QNJ67gdYyA6RlfYDrzYQi5TmopAeapxrDUVZNyfgWPJU9R1b2pQt5ZLHGXHOJVHeLa+SYtWfrXir+1U/wC1ixpca4nB6ynbymLHWn6lxUNKkFL5oWPbR9SYeqlGtBwfcto91PGUcQr0qsZAWT103A5ykgMNoCNKXQDlVpKotveS0YHlUpQly6mj6PuBvYCMBuAAtgIBWBug/wBdFsD2emZZMXxGk91L+4Htk/ea8gS7toriRmT1SXzA93B+DV+L17RTjQT9+b/sdNeE5T3ZzzjGH6bE8XwHp6NLB0Y8yz95J7eT1TnGvs80Yzs7vPxfg1Hi9D6x4fNTqWvJX0kYz1xnHqhrHP0zUw/JSUoTcJxcZLeL6Hk7/L09q7NRd9tu5SFVyC42eTgGKzO11YD87hI/8HS01sB2AiAoDcCeAKAsBiUraATcCgVAbSA1YCq4BgEB0pvUD9R6Hx/sHqPDybtGbysK/vEXmSfR6oyNAAAAAAAAAAAAAAAAAAAAAAAAAAAAAAAAAAAAAAAAAAAAAH5H6SeJLAel60VK0qvuoD/P6u3m/M0jpDcD0043YHqhEDeUCSp6AearCwHmnHcDzyVwOTVwJGUoPNH8QPRGcaizLfqgNPYCXAoEAm7AvgBYBa4CSp1Y5K0M6e190B5nhsRQd8JiZJdI32A17XxeG7UvnqQR8T4mtHTi/wDpAj4nxNr/AC4/9oD23islsl+AGJR4jXi1UqtR+ZQpcPjD3qjzMg9cbRWWKsiigADaAAAGgBAHJRTvogOLlKrLKtIrr3A6KNlZAVLuAAqYGK2Kp0F78rvsgPPGpjeITyYem4x+9/8A9A92G9OJyzYuo5t9IsD6+H4XhaDtTw8E11a1A9tOk1H3Y2S7BXSMJS72/oKG40pPRT2LQkqbcXeOa/cUPJX4Xg66/W4aF/CJQ+Ti/StConLCVJU5fdlqSh8erR4lwmosyllXVapiqHtwnGqdf3a3uT79Aj33UleLun1KFrrRgSwFygHHQDwY7C/6kPxA+epNOwHRVALmAuYC5gGYBnAZgLm7/wAgM1KjjTlLVtAfNeIquWbO/kRXvw1d1aV5bp6sqGKrOlTvF6vRMDwRxNWMs2dvwRX06VTPTU3dNoqOGMryppRi7N9QPLRxNSE0nJyTfUkK+pfRbpWKhfqBMwFuAuBLgMwEcwMuorAc3O70A7U6eVZnuB18gT5gW/YCp2AspxjHNJ2QHkr8UUPdpK/kg408Pj+ITTUZNPq9EB9XC+mINp4ms33jEo+pS4JgKTWShmt1lqxSvdDCU4pZKUI9rRLQ6LDtL4bChl4aM3lnTT/C6FDhX4Tg5u88LCXlRsKHzMV6Xw1RXozdOb6PYg+RieBcQwDz07yS6w3IM4fjNek+XiFmS3vuEfXpYiliIZ6Uk190o3bp0Aj0AOLtrswOdahGrGzXyYHicpUp8uto+j6Ab6AEBQAC4E8AWLcZJro7gd8FXWD9QKT0pYuN2/IH166yzfzA4ufQD6vBOB1eLVVOacMPF3k39o64a5lzz2RD6/F+OUOFYf6v4Yo50rOUfsHbPOMY9MeXLHCc5t+TnKVSTnUlmlLdvqeSZmXoiIh7eE8YxHCK6lTbnSl8cWdNeycfLOeFv0mO4dg/UWDWNwLiq6WtuvzO+URsi4ccZnCal+Qq06uHqypV4uE4PVf/AAeSvTPd6In1eFi79degV4/Udfl8Op4SL9+vJX/AD58E4U4wWlkkBoBcCAW4Et1AultQMSmkrIDK13AqA0gNJAaQG0BXogMsCAbg9QPdga7w+KpVVvCSYH+h+CYpY3hGHrp3zQVySPeRQAAAAAAAAAAAAAAAAAAAAAAAAAAAAAAAAAAAAAAAAAEAAfyX6Y+J3nQwMHtq0WEfyyPko601qB6qaA9cFoB1ivAEktAOFSCA8lSOrA8046gcWtQOclqBlOUHeOjA9FKsp6PSX8gOltdAI9fAESAbAALewE63AoEA6xoVrZlHR+QLya/ZgHRrb2f5gOTWvZJgYnCVOXv6fIDL7gTcBsAuBbIBfwAAny1AkpxhG83bsBxi54h6q0QPQoJRyoC2aQEa0Alt2uncDx4jFtS5VD3pve2oHtwHAJTlGtjW3fVQIPvUaEaaUKcVGK6JFHp5cF711oBZ14U7XlEo4fWKTazJZegEXE8qbvo9yAuILMve33sUdlik08raS2dwO0MdTlDW0mtAOsuXUpRyyV+xRwrUE01UgpRf2XqiD87xP03CpmrYL3ZLVw6EHyMNjq+Bq8qupWWjUgPt0akKsFOk9H0uB0V38wOiQFyoDMqalCzWgHx8fhZUqjaXuvqB483QDSkBq4FuAv5AXAtwF/IFTW0tnowPO8BFz92qrdiD0RjCFNU4bIoSjGpTcJbPr2A88eHpSvKonHsiD1Zlay2SskUYq0oV4KMnaS2YHKjgoU6ilOop26JEHfNfXo+hQugFwF/IC/kBmAzmAy5AYlIDth6blLNJadAPTYBYCATYDFWtGjC8nr2A8LqYjHVclKLd+iJI+zw/gNOlKM8R787Xy9APtUaKdkoqK7LYsD1wpJe88tkUHWhCLSaT6gSeMjCCjdWAyuJ6JZoyXa1hYLiST9yS32YHRY2FWVsy/sB1z0qsN0mt/IElTuk1quwV8riPAsLjIybhkqL7USTA/L4rAYzhFXOr5b6SW34me4+jgeIU8VDLL3ai/maHtS1/+QjSj+QGst1sBxr4WNeDhNK/RgfKlKrhKmSqm4dJAdoyUldNNMCq1/IBsAA2AbsDOIg69C8XapSeaIH2OH42PEsHe/66CtKPW4HWhKlDE03iIuVNSWZLqWPKZXXZ+h4v6lpRwkcHwmPLi1q10+R6ctsemocYw7935ne7bu3u+55fPeXeq7QX6ALgerh3Eq/DMSq1CTS+1DpI1hlOM/4ZzxiYfV49xXh3E8LRq06TWKfxNfZOuzKMvDlhjMPiQcIwdWpLLCGtzg7vg1a8uJcRlipJqnDSCf8AUDp/8gXYCAUAAzW3A5TqZnZARAaQFQG0BpIDooAdFCwCSA5yQGQNRYHenLt1A/tf0a8RWL4AqDleVJ9ySP2ZFAAAAAAAAAAAAAAAAAAAAAAAAAAAAAAAAAAAAAAAAAAQDMpZYSk9krgf529e8RlxH1RXlnbhTbijUD87FBHelHQD20o6ID0xWgHWKANAcqkOoHkqR1A81SIHnktQOUlqBzaAw426gbhWlDRu6A7wqQqLR2fkDV7bgLgAAABcBvoB3oYh0/dldx73A9yaaTTumA2XcDjWrKlHT4mB4pSlJ3k7gZ1AAAKgIBQI3lXvNJeQPNVxlrxpfmBnDQliajlNtxXcD6EYWWiSQGsiQEktAMOLaA+fiK9TEV/Z8Ortu10Qfe4bwmngqSzRUq0t5NXsUfUjS73sgMVqypJytawHgxGOcvh0XUDxTxbu7u99tQOXNm3e34gXNU1unbsBpKraTimtLgbp1qyipOTstAPRQrvmXindrUDvTrTSundxesrgfToYzNBKVrP4tdSwPRKEZxvSkn4A+XxPhVDiFOUHBRq292dtWQfkVLEcKxnLqJrLo13QH6HD1oYmlGtB3T38Ad1BbIDooaAacFrfYDhiMMqtJwavpoB+arwdOo4tWs7AYTA3cAmBbgW4FuAuBb+LgNLooXIKAv4AKyAfzYD5KxQAEC4EuAuBGwMtgZbAtOPMqJdgPoxhZJW0SA1luBLAZaA4YirGhTu3r0A8eGw9biWJyq+W/vPsTyP1GEwdLDRSoQSsrN21ZR7qVNRV2rXKJVxEaMJK23Yg8FXG5o2i2l3uB46uKk03nvfrcDlLESlb3nZAZ5s77t9rAXnSTV3f5Ad413FJ3drgepYtqF+72fQD24fiLVk9fIV9GliKWIVrKMuqve5qJGK+GjKM4zgpx7PqSR+S41wOeDk8XhE1TT96K3iZGuEcQWJjyKrWfo31Kj6qj3A2o6+AK6egHDEYSNWGWSzID87iadTA4lxi2o9EB2o42M/dn7su4HoWu2q7gV2AgC3UBs076oDlKM6dZYnDS5dSO66SA+vhOJUOIQyyapV1vF6AdJ0pU38+pFZKhcABVvbqBak6WFp83ETVOPbqwsPjYrGVuKVLJOlh46KP3vmEajFRiorRICgPmAuAfnQDEqqWkdWBzblLdgVKwGkBUBpIDaQHWMbgdoQuBuyQGZK4HKSA5sAgO1OXQD+g/RbxF0OLzwspe7UWhB/X7kVQAAAAAAAAAAAAAAAAAAAAAAAAAAAAAAAAAAAAAAAAAQD53H8ZHAcExNdu2WDsWB/mbF13icZVrSd3OTZRmIR6qUQPZTiB6IoDqAewHOS0A89SKA8tSDuB55xs3cDhJagc3EDLiBhoDLVtgOkMRKPxLMB2jVhLZ2YG2tLvYB0AAQCgVgdaOIdGST+DqB6KuMgofq9WwPFJ3d5O7YACAW4E+0AWwElONNXk0gPLVx0V/lq77geSeInUfvv8AIm5WjHeTA+5hcPy6CivxYHfJsgGQDLjbW12B4OJ4h0YcqGk5diD6XAuGLC0lXrRvWqK8b9EUfbpwX2mUeeviVCMoxTTS0IPkV6tWXvSk3foB5lKdWVo6N9APVSwDVpS1YHsWAjJLbuB2WDpxtrcDcsPGd4pKCaA4S4fB39/R6ryBxqYdxzJJtvZroApRy0bybyJ63+0+wHanSUpNQeXKs2+rA9OFxUk9eumugH0JJVY59LrZoo+JxvhSx9CU4r9fDX5og/OcJxssJiuVUuoSdpJ9AP1EUntqu4HVIDeXwBHDcD4PGcNkrcy2kl/MD5PWwFQBAW4FTAtwFwLcBcBcC3AlwLcBcC3AlwFwFwJcCXAjYGb3Ay3ZAe7A0vcdRrcD2qOi0AriBhw7Ac5tQjnk9EB8eUquPxShBXcnZEV+rwWCp4OgqUNJ296Xdloe+nHJFeeoRyxFeUdugHzK1eWd30ugPM1Ocmo6oDvQ4fKrfv0QHqpcJSi3VaUugG/q+lTjZuKktmnuBl8MjlyPWTekkBznwmtF5XbOtVd7geedN021llm63A7UZO15Rsl/MD006ri3GMXF73A+phsWqlLLLQo3UppxleKcZaNPqB+J4zw2XCsZGtQb5M3eL+6+xmVfa4fi443Cqo7ZtpJdyo90YdHutwNKPgCODdlsB8rjWD5uGdSKu4asD803a+gG6WKq0tndAe2ljqVTSfusg9CcX8ElIot/wAwDAnXbQDFXDwq+9rGfSUQN0eIY/BpQko4mn5eqA9UeN4SWlWjUpvrZXQHT604Z+0S+TiBmfGOHQXu8yp2SiB56nGcRUWXCYZUv3pK7A8vIqV6nNxNR1Jdr6fkB2tbRJJAVAUCOSS1A5SrRXw6sDm5Sk9Xp2AqQFsBpAaQFQGluB0itQPRTQHaMbIDVgMSVwOM0ByaAyB0hKzA+76YxrwPHcNXUrLOkxI/0HSqKrRhOOqkkzKugAAAAAAAAAAAAAAAAAAAAAAAAAAAAAAAAAAAAAAAAAIB+I+lPiXsXpqVJStKq7WLCP4Mr213KOsEB7KSA9lNaAd4K4GwDAzLYDjNAeepEDyzQHnmuoHNoDDQGWgM2Ay4gZt+AFjUqQejuB1WK+9EDpGvTl1sBtNPZr8wDX/8gGr3At/kAv4AAPzAj8tL5gZlVpx3mgOUsZTXwptgcZ4upJWXuoDzylJu7bYGHqBCD1cOo83FK6uolH6CMLKwGsjsBGgMTcacHOWiirsSr5XCsM+K8WdSp/lw9537dgP2EKcb6xTb2fYqOeLqxoRspL5gfJq13UnaTfzIPOoSqztmcYrfTcD30cKoOLdm0tAPXCMUm7pMC2cI2X5Abd42UbLoBG05WTUX1be4GIyjBqLcUrd7gXIqkPdmmk93oB550ZRvaKspXSYGsO48yUc7dR72WiRRqrSy2lG3lID0YKvCzi29P5Cx2qq95rbv3Ej8b6iwKwuLVemrQq6/iZH1eC4v2rApPWdPSQH1YxNDaQBrTUDwcTw6q4KemsNSD8tNWlcCXAXAtwFwFwLcC38gL62YEcl3Ay68E7OVvkBPaKd93+QGlVhL4ZIDV/P5AVPXcBcBcCXYBsCXAjYGb6gEnKSiurA+3RpZKcY+AO2XYCNX6AYy2kB8zi1bJFUov4tyD2+ncCo03i6i1ekV47iFfoIQaWycV1KjFerkhrLTsB86pOLTm5NvpFgeblyqTVvtbeAPXSw1l73xNAe6gmovNRUnHSOtgNJwm8zc822W2iAZaaUbyeX5AadVQvO2aHUok5NRvC0qfa+qAxKFPEW2UekiDzYik6Tyxak3pp0A1TUpNU5yuoLWwFpylTbWdPXSxR9WjVVWMU1dtWYhXl4pgYYzCTw8lq1ePgkj8nwbESwPEnhquik8rT6MiP1sY20KNJNlFygcatKNRODWktAPxOOouhiqkHvmIPPYigG4VJw+CTuVHqhjqiVpq4HeGNpS3ugOsalOTupxf4gbW3gABlqL0aX5ATlU+kF+QFVKK2gvyA1bQBt1SAw6kY7tP5AZliIdEwObryfw6AZ957sCqIGkBqwFAqQGgKgNxQHWCA9EAOqAtu4GZIDjNAcpKzA5vcDUXqB6sPUdOpCa3i7gf6E9L41Y/gGGrXu8lmRX10QUAAAAAAAAAAAAAAAAAAAAAAAAAAAAAAAAAAAAAAAAI9gP439MXFFWx1HAwknkV2io/mi1KO9NAe2kgPXDYDqvyA2lYCMDEmBzmBxmgPPOIHCUdAOMogc2gMtAZsBloCZUwMtWAmXuBMq7ATK1swLmqLaTsBpVai+0BefV7gPaKvcCe0Ve6Ay6lV7zAy3J7ybAy436XAWAjj4Ay0BhppgZaIPs8Go6SnbqUfXUOwGnEDDjqB83jdblYNU18VR/yJKvq+mMEqHDs04+9Ued/IsD61SShHNFIqPk4mrmqOEFo+oHmrRcZJSV77kHbD0YqaqPVW+ED0r4m5SUXdWXVAanre0dV1YEUkpKTd79gJOqrXs7dwJKUYwV1d2uBM6nazfdKK0A0rTTabUl0QCS5jUm1taSQHKLdCpmi1rpbqyj6MIqrRvKppbWy69gPE6bw1VJpp7sg90Z82n7zW2yKPlcawntOAqU4rNKnrFkHwPT2K9nx/LbtGorEH69KxobQFaA41IKcJRe0lYg/IYqnkqzjazjIDzrbUABQAABcBcCRdStUVKhFzqPsB3WDw9KT9vxNmv9OG5B2hxPh+Ft7PwyFRr7VVu/8gPR/ifo+E4Rr7uoHGeP4VjHatwtYeUvtUG3/VlFxPBMVhlGdCMqlGavFSWv8gPBnWZwayyW6YFzdAFwFwDYEAXAgHTBQ5uJilqB96MAN5QDXgDDSXvbpbgfnKubHcRyR1zysiD9ph6caNGNKKSUVZfIo9NRxpYfazfco+bWmqkkraW3IOEk8ySgmuz3YHWhR+1J5UnZID0JqKut13A2oaRlJuy+HKAk2nnhNpR303AjqQTjnjddQLzErqTvTfQoynGnUU6bSbVmkB0U5Ne7FW6kGXGEnZxu31YHnpSdLENTfx+6kB3q0nKEfhzdgNYarklkemvQqvoVIcyKnF28gfjPUmGeG4hHFQjZVNX/ABGR+kwNf2vB0ay3lFX8MsI9K18FGnuBiUdQPyvqHDZMWppfErkHxbEVbAayu5UXKwLlAtu2gGk5paSYGo1Kq2mwNqvWX2gLz6v3mBObV+8wGeo/tgPee8mAUQNKPcDSQFygatYCpAUCgVAUDSQHSKA6wA7RA6oDXQCNAcpgeee4GGgInqB2pOwH9l+iziKxHCZ4VyvKk9iSr94iCgAAAAAAAAAAAAAAAAAAAAAAAAAAAAAAAAAAAAAAABmpJQpyk9krgf5v9bY98R9T4ipmuoysio+FHVlHppR1A9tJaAeqCA6LcCgR6Ac5AYfkDlLVMDjU8AcZIDhJAc5IDFgIwIwiBWWgJYCWAZQI0AsBLALASwCwEsBNgACwGWgMyQGLe8gP0XCKeXCp92B9BRArQGXED89xxurj6dFdFYkq/cYakqVCEE0rRSNQOeNmne70asn90Sj5EGp55JtuP2V/Ug51oQzKKqSitHZAeyCleCT1t7q7oCU1C843bzPd9GBWk1GLebdWQETyybcfkwI8zu5NXT0Asq0o2bjGS2AmanGTUbRXcDElFTUlK0unkDSkm2mrSfYCVbLRyzabfdYHt4UoSahP4Y6ssDPEKahVqShfK2rXAmClKF46JWvdkgSsrtp7WdwPw+uG4nZfYqEV+7g04p99SwjoiivbUDEkB+V4rBQ4hVX4kHzegFAAAAEvYDm3KpNU4K7k7Ae+deHDsO8LhrOtNfrKnbwB8293dtu/cg9vCuFY3jWOhgMBS5tefwx7gejiPpfjfCJNY7htalb7Vrr+QHy3pdSi0B+s9O8dqQwHsuJSq047KXRGh5+PYGjXaxODspJfmQfn4z//ALyIG73AAAAADMnowPZwiF67fZAfditANWAjjYDzY2Tp4OrJdIgfJ9PUuZxPM45sizEgfsaEbJJ66GhyxMn117IDz5HFvNFu60aIOMoOVeEMzS7ID001l0Vm07fgBJqnFOlUbs3pYB7yioxu0nv3AZZU18TaW0QC9yUtXr0AQbUXlhn13l0AsJ5uuv3QJnqOeVx08AanJw1d2rbIDlXjOUYyg992wPfhIxdBrSS7lHlmuXiGpxaQke6g4qjeN0n1ED4vqWk6nDXJ68qV0+5JE9LVc/DpQa1hMQPtpFGugGX3A+F6jhenSn+BB+bcQGUDeUBlAuUAogaygWwDKAygaygXKBcoFSAtgNJAWwFsBUgAFAoFQGkBuIHWLA6wYHVbgbQBgc5IDhNAcGkuoETA602B+++i/HvDcceHcrRqoK/sq2MigAAAAAAAAAAAAAAAAAAAAAAAAAAAAAAAAAAAAAACAfN9RYtYLgWKrNpWpuwH+ZcTVeIxdWq3fNJu5pEgB66KA9tJWQHoiBu6AagRvuBzkwMSYHKbA5SYHKbA4yAxLYDm9QMtARgQCWAlgFgIAAlgIAsBLAQCARgAACwGXHUDDXvAfpeGq2Bpge0Ba6AmUD85jfe9SRj++iSr9vQttfpbU1A8mP6Rte+r8iUeWhBzcpQ0Vvet2IOc1GOIWlrKy8oDvDNH323mV0vkBNLZErK+ZsDF1rZ2lK+qASklFONvNwMymnJyyrumBOYowTd23uogHllDPKz10X/yBFaMpKUFJPbwAlmyrJstXcCSrQcLRik+rsB6eFTnz3GbSXS3UsD3cRavZO7tfUDwUHPmq1mvJBuvJJvXYD8XxDTitXp75B+0wknLC0X1yIo9EWUVu+4GJNpAfmONf/kJeUiD5j3YACXYC4C4GJSsB1wVqaq4iX2VaPzIPO5Obcnq3qATuB+z+iduPrvDW6pgnw/qf0hep8Z6Z4bg6uEpU6nPxCp1FVV1YqPJ6v8AQHCOO8GqY3CYaGEx8aXMhOmrKWl2mKIl/EMBN0qlSMtJL4kFe5Ylr3W9O3cD5eMgqeKll2kswGISA3cAAAAZm7ID6XBFedQD7UdgN2AjQHg4vpw6pa+ugHk9MXWIrST1yWJA/VUHeT+WpoebE5c6bWbwBqmnGlGStZ9yDzOooYhxUWlu7dQOqllglPaTAjqRWW6Xe/UDN46uUm03pYDMm2/e2ltbcCr3PdUoqT7gW83Ozs0luAc4uDeZ2XTqAU6k4+69VuuyA0nGzyzV7a3A51HBwTlGy6JdwPXw+o1TUcum5RnE3dXPJa9iSOtGUlDpvshA8XG1zOFYi8fsq35iR870nNqnXjbYQP0ia3KNXAy3oB8f1D/9pB/vEH5q2oFsBbALAWwCwFAoFsBUgLYC2AoFSAtgKgAFQFAWAqAoFsBpICoDpFgdYuwHWLA6RA0BiVwPPOwHCS1AyBuDSYH3fS+MeD45hqt7e+kFf6GpTVSjCa2kroyNgAAAAAAAAAAAAAAAAAAAAAAAAAAAAAAAAAAAAAACAfifpT4h7H6YnTTs6rygfwSO3zNI609wPbRQHsprQDuloBrTqAbuBh6gYkwOUmBiQHGbA5SA5yA5sDLAywIBGBAIAAgCwEAgCwEsBkCAAABIC2Ay1qBzfxMD9Lw33sDAD2pXAbARsD81xCToeoY1P3kySP2dCc3aUuquagc8d78Xa6b2+QkeaglmStdS00IM4mk1VpySd2ra9AJG61lK7jvbyBdkpOzV9U+qAw5WjOyyqztcDFSUJU4OK0W/zAkqmZLRWb27gTPGKzvWV7KK0ArT1kofnqBidWXxRin02Al31k4oDbk8mlnDqB6+HRi25QQHfHOyin8UVqUeSjKVnbe5AqycXrFMD8hjnzOK1HprPoRX7LDe7h6ce0UVHoTAOTKMTaaA/M8Zd+IS+SIPmvcAAuBLgAOb+IDtD/8AHT/jVyDhvZgS/bXwB+0+iyFSn67wbnTnDMnbNFq4J8P3X0yuMeB8Nk9FHFptlIfosf6v4Fw/028VLiNKf6jKoQldttW2RWYf54hWz16tSXuupK7T0I0259bgZx2tSm/3UB547sDoBQAADEwPp8Df6yp8gPtqwG0AsrgeDi6zcPqLqB4vTErV6sba5SQP09F2UmupoccQttUgO1OMcii0/miDx1U4Yhx5l0rtXQGovPHKlmS0Tf8AMDm43qWla1rbgV1bWhCKslo2BMzdNu6bW4GG4Shf7dgDqNNR5bzW33A1fpP3PkBY1IOdotxv1fUC2g82WKvHXtcDM6kPibs2vhsB9DBxy4dNPUo44vKqjvdskjVCSSvmer2A8fGJP6qxEr2tpZgeH0sstKtL7wH6FO6sUazaARysB8bj8r4WC/eIPz6WoGrAWwCwCwACgLAaSAtgLYC2AWAqAoBKwFAoACgAKgKBQNIDaYHSLA6xYHSLA1cA1oBwmgPPPcDm09wLFgezDVeXWhNbxkmB/oj01i/bOBYare7yJMyr6oAAAAAAAAAAAAAAAAAAAAAAAAAAAAAAAAAAAAAAAgH8g+mXianXw+Bi721ZR/LUio9FNAe2itAPXDVAdlawF06gRsDDYHOTA5yYHKTA5SYHOcgOcmBhgZAgGQIAsBGBAAEYEAAZAAZAgAABQAC2oHNq0mB97g9S+Ct91gfRvYC+QI2gPzvqKk44ilXWzWpJH6fAYrn4WnVzJKcbMo7117qebN4SLI8WHlOnUtuk7/Mg74uDnRcou1+pR4oVFCTaV20osg28sJPNeVo9XogM1LZpKaveKd99AMZ4cqSbvZ72AkcuSU29I7AZksrTm2ovYCOcrZ4yemj1Ay5qEV7ztJ33AauV41VLvT7AWnq2r7/ZZR9ahCNCCyrLe1wM4ud5SvZ2tbQg8sW4xbVldgca1dU1KbekVcD8vhovFY9O28rkH7CMrWV9kUdYzAsp3AxKelu4H5fiE8+MqvpsB5HuBAAAAwOclrcD2cOjCtVng5vKqy92X73QD6HAuFcL+vfZPUeInhcMl8cE9X8wP6YsB6Q4NTpS4HwvCcXk43c6+JgsvzTA5YLE47E/STwf2yjgKMVTfLp4OUZZVfZ5Qj3/AEtcqOB4QsTh6lel7Z71GHxTWV6Ah4KHCquMw6fDPRmC4bRtpX4hKLt5s0grlVq+juD4KpT9SPAY3EN6RwNFK34q4KfzDiEsFiOKVp8NpVKWDcvchOV2kB5MRU5lWUk9FovwAxFaXA0gKAAAZnuB7+DTSxLT6oD78dAN3AOwHnxdPnYWrTS1lHQD4XBavJ4i4N2zrKQfrcPKSV7oomKpuXvafgB2wbtGytcsDlxDCpz5rast0mB5VNPKleMdtyDnlUW9bsDLd3/8AKkstNJR1vroBlycIJNZm9AEKzd0pSslZsDSuqibktuoF0a99JNPe1wK7TipKV5LazAJXyqyXdPe4H1aP6um1bpsUeOrJ5ttANwas25Ig+R6gxDjgVTb1qOwHTgVPk4BPrN3A+vCegHRSVgMuetwPiceq5lTp/iB8eC95gatuBbALALALALAWwFSAoFAtgLYABUAAtgAFAIAgKA6gUCoDaYHSIHWDA6Jgb2QF0YHOV1oB5prUDkwCA7U2tfAH9s+jHiHtXAuQ3rSdiSr9sQUAAAAAAAAAAAAAAAAAAAAAAAAAAAAAAAAAAAAAAjdk2+gH+ePpGxvtnqqtZ3UNNzQ/LoI9FJaoD30loB6YK2lwOifi4BvwBlvQDEmBzkwOcmBykwOUgOb1AxIDDAy9AJcCWAgBsCAQABGBADAyAAyBAAFsBbAADA5zXvAfU4LUtKpTv5QH2E7oC3sBl6K+4Hz+MYf2jASsveg8yA5+nMXnw0sPJ609YruQfoYTdSHLikpPrc0PHUXJrXs2r2bbIPo4dwrUnFRvFK5R4sRh3TrcylH3Xvm01IPMqilKcd5dbaqwGZKSSu7X3+QEcbxlso/1YHOU1llZXtJad2BE/1mstLaJq4FeWLtJ76tWAxKopSirRcWtFbYAk720VvtJWA92Cw0ZfrZp36X6lHva/VtuSX9gPm1G3N2m2QZVnCKbd+oHy+L4mNPBumn703ZLwB5eCUb1nVa0QH3oz6gdVO6ArnoBwrVVGMpdlcD8zUk5Tm31YHNvUBcAAAAZkroCRlKLi4uzi7pgfb9uo8Qw0Y14xdSKtr1A8M8NGnJ8qpKm32YDBV8dwvHQxuDxDhXpu8Z32A+1xL1z6j4qsH7XXpyng6nMpTUEtbW17gp4eKepOPcZm5Y/ileae8Izaj+QHylCMbvd9wNuap024/FL+QHmvd2A3EDSAALAAMy7gdcFU5WLpy6XsB+oi1a9wNoA9QMSasl1bA/MY6EsHxHPHS0rpkH63D1YVaNOrTayyXco71Yxmk811a9l0AxhpxVVx1WiKPoV6EcRQd7Lq7dAPj4jDvDuOqkviTIObtCNlpm1uwCUoxu7R12AxVqNU1du9+iA5yjUc1UjFpPuBqEknNKKi3rcDLpqdRSm7eQOkpSiksqmrX33AiXM02XVRdmij3YfDWy1JK7T927A9FaUYUszk05aXA8ea9RZFdLe73A06jcfhV9rWIPznFarxXEIUE8yg7fiB9zDpUaMKaVsqsB6ISA6Z7AZc7ID8/xWrzca0npFAeSG7YGwFgKAsAAAWwACgUABQKAAAUAlYCgAHQABQAGkBUwOiYHSL8gdosDadwLogMS3eoHCYHFgZA603qB/SfooxvL4hVwzlpNaaklX9bIKAAAAAAAAAAAAAAAAAAAAAAAAAAAAAAAAAAAAAAebiFZYfA1qrfwwbA/zHxnEPFcYxNZu+abKPLFFR6qS1QHupWA7xtsBtaAGwMPsBzbAxKQHOTA5SYHKTAw2Bzb1AjYGW7gZAgACAOgEAMCATqAYGQIBAAACgVIC2AWA5zWoHTBVeTioz6N2YH6KM+vcDWa4EcuwHKbumns9GB+evPhPFsyXuXv80RX6qhXjOEZxldTV4tFRucVVWktEtU+4EwtaVGaSllTLA+t7mIp5Jq9yj5OK4fOlnWGsl17syPE5Tk+Uou9rNsBy03TlOo3GKu2tgMXjJVJx0Sfu+WBJTlKLll+zr4Axa8bJrP0bfQC08NOo242stwPo0uHQjBOopP7uugHsy3SWySsUefFV4pZMzV+yA8Dlq29/mQYm3bM+3cD89jazxuNeVe5HRfIg+xhIez0IwS1e5R6VPQDpGegB1O4Hh4hXyYdxW8gPjN6pAY6sCgAAAAwMSQFjLXt5QHfmVGrS95dwJzPmgI6vkCZpy+GNwDg95yygc5PM7dO4BK2gFQFAoAABmWwGYOzT6x1A/TYOsquHhLwB6c2gDNYDEn+YHy+MYfnUeZHWUNyC8BxkXB4Wo7NfCB9+nP4U0nFeSiVFklmirX87Ae3BYlSbjKSSaKPRicIqkItKMkv6AfCxNDlybeZx1tfREHGTc5L/wCQMOSqSilLzYCvNpmdo/O4GZubdpK2uj8ALSby72A2lUvCMYZpN2sgPo4bBOKdSslCS6dyj15XrKaUNFlQHkxFVP7Tl/07EHlU4xlq8zfboBwxmL9mw9SrmW1kgPkcLoupWlXqbt3v5A+yp3+bA6wnYDfM0A51a2SDk+iuB+dnPPVlNvd3A1BWiBsABQAFsBLAUABQKAAoAAAAoFAAGA6AAAFQFAqA6IDaauB1i9AOkWBq6AzOwHGoBwluBgDpTeoH6r0LjPZPUmHleyk7BX98TTSa2ZkUAAAAAAAAAAAAAAAAAAAAAAAAAAAAAAAAAAAAAA+B60xnsXpjF1L2vBpFH+bXLPUlPu2yo3DcD10VqB7aSA7xArYEbAxKTA5vYDm+4GJMDlJ3QHKTAy3oBhsDDAMDIACAQB0AgBgQABkABAMgAKBUBQKAtqBipG6A4vTVdGB93BYjnUItPVKzA9edW0Ay5AYlJ20A8HEcOsXRbXxw2A4cF4m8PP2Wv8Gyb+yB+ghUVtUn2t1As0pXknbQDeHxNSk4XneHYD6lKvSnGN7K+1yjpiMDRxtSM1aMlGzy9QPDW4HXalGnKLtF2WwHl+pa8IWqJecr2FDFPgeIcoxVRvN0sQdKHCnBN1Y2lHco9dPD06EbxjdpfmwEp5Y3kB5cRjIR0juB4KtduDbetyDhKWaSstGtgPm8Tx1ovD0pXb0bIOOAoJe/NbFH01MDopaAbUtAMSnZ77gfKxtbmVbLaIHle9wMgLgLgLgLgAAGbAVSlHZgdFXfVJ/gBfaH0poCOvUatpEDk22/edwLYC7AALcBcC3AARgYWgH1eE4jLek/wA+rGbtZgXMBmUgOM/eunswPh4mjUwOKVSGyd0yD9FgcbDF0VUi/etaS7Mo9eZW0eZsApRpzjFb9QPoYTGppU5Npp7eCj6CpU6yWeClB90B8+vwHmX5clFvVJuyQHjnwSvT99w6WWXVAeR4DFUVK8G5N7WuQdVw3FON5QzdLdfyA6rg9VwjLM46aprUD6WHwVPD089OOeVt30KJJxppynqwPFicY5xkovNfSxB4pVNNm5JbrYDnKcVGU27LdtgfCxVaXEMWoQ/y4/wAwPo0UqUFFdAOsZ6gdYz7gV1LIDxcQxGWmqaer3A+YlcDvFaAasAAoACoB1AALAUABQAACgUCAUAAAALAUABQLcDSYG09QOsXYDaYG07gJPSwHGYHGS1AwwNQeoH0uEYj2fiWHrX+GaCv9G4Crz8DRqLaUEzI9IAAAAAAAAAAAAAAAAAAAAAAAAAAAAAAAAAAAACAfgPpdxrw/p2NGLs6siwj+GxKOtPRge2kgPXTA6p2AtwMSaAzKQHNtvQDm32A5yYHNsDnJ6gYkBkDLAMDIACAQAAAgEYACARgQCALAUABUBoABLaWYHCStdAdsFXdGra/usD7EaitpsBcwGZSA5OWmoHz8dg41b1afuz6+QNcP4xOk1QxOy0i+wH24VNM7kpRl+QG1Uho07WVrMBCtODeWV0116AeqhxSrTjlvstyj20+MrLFyf5Cx1fFqLzzs9ELG58Uw2TNR92Tel9wPNVx9ODs0tVt3A8dXiSypXskradgPDVxs53yu66EHmlVk2nJ2AynJpyvdd2B87G8Stelh9ZPRyIPLh8O5Sz1NwPcnZKK2KOikB0UrAV1AONetlg9degHzZNu7e7A5yegETAAAAABcAgFgACwCwCwCwACgAAAABQIwJJWaYG6VSVKopx3QH3KFfm01JPV7gds+gGXO+oHOUwOFaEK9PJNNrowPmRnX4biM0Hv06MD72Cx1PGwzxaVRbxYHpzuPvd+vYA6jbUoderA9mHx86bSu8q31KPdT4ona7Thsk9xY9tHH0KlNU1NRcdddhY37RQfvSkr7aAaWLwrhFRms8d7geWpjlBtZU4sDwy4q4xlGMotvuB8+rjZS+KS1YHnlUWbVuz2IOM6ypweZqKtvfcD5OJxtXGydOHu09r9wO1GlGjFKO/cDunYDcZO4G8+gGZVLRu9kB8yrUdWo5P8AABT1YHVAaAoACgAKAAAQCgAKAAqAoAAAAAAAABsBQKgKBtWA6JgbiwOiYBsDEgOElqBhgFowPRRk4zjJdGFf6D9FYx4z03hpN3aVjI++AAAAAAAAAAAAAAAAAAAAAAAAAAAAAAAAAAAAAgH8g+mfG3r4bCp7K7RYR/LVuaHanuQe6kgPVADaYB3AxJgYbA5tgc2BzcugGH3Aw2BhsDIGWwJcABEAYEAAAAEAgEAjAgAAAQFQFAoACMDnOPUDk1/ID6GDxOaOST1QHrz6ARyA5uQHNyd7XA8mJw0KzzRVpAccNja+CnlleUOzA+xh+IUa9sk0pdmB6HVd9WvwAcxxuk042AcyTS7ICqrLZNJMCzrZryvt2A5TrOVm3qBlyck80gMW8Acq2Jo0I3qS+S7gfMxGOrYr3KacYeCBQw+VXe5R6lp1A0gNJgau7ARysrgeSrJzk9QOEtNAOTetgKAAgACgACAoEAoAAAAAAAAAAAAAJLUCoD14Su6U7N6MD6CqaabMCuQGHIDEnZ2QHKrFVIuM/wAwPDKnVwtRTpSf4AfSwfF4VLQxDyT2UuhB74yvG6kpX2a6lCVR2aAqrqKyvoBtYqSlmWiA17VNu2t+jAscXU6vVPcDnLFNx1bbuBhzc5XdwJpk+H8wPLisdRw6s3mf3UQfNqTrY2d5txh0RR3pwVNJJAdE31A2paAVMDWfoB5cTWze5F6AeddgO0FZfMDS3A0AAoFAoBAUAAAAAAACgALYAAAdQHUAAAoEQFA0mBUwNpgdIsDaewFbuwMyYHKbA5vcCLcDvT7Af2j6K8ZzuCyoN3dNkkfvCKAAAAAAAAAAAAAAAAAAAAAAAAAAAAAAAAAAAgDuB/AvpVxntPqiUL3VNW+RqEfi472A70lqB7qSA9EdANt6AS4GGwMNgc5MDnJgc5MDDYGGwMsCMDIEAdLgAIAAARgAAEAgEAjAgACgAKBQKBGgMvYDjKLQGVJ05Zo7gfQo11UgnswOjmBlvyBh+AMN6Ac5xjONpJAeWphHF5oMg6UsdjMKsr95eQPTT4vTlpVg4rwUd4cQw0npVsuzA6xxFBvSpFgHXor/AFYgc5Y7DxdnVQscKnFqMbqEHMWPJUx+KraRWReCDnHDSk803dlHphTUVogNgasBUBVuBq7XUDnN3A4SSA885agcyCgCgAAAVK+2oCz7ALva2vYBZ/mA+YFAAADAa9gFn1AAAAAAAYCO4G0uwHsoV9MkgO+a7Ajd2BmTuBhsDLta3cDz1MPGfwqzIM0qmKwr/VybS6dAPZT4yn7taik+rRR6qWPwtTRVUvEgOyq05PScWvDArkr/ABL8wJKS3c4/iwOcsVQprWtFWA81Ti1GLtTUpgeWpisXiPdX6uPZAZp4aMdZu8gO602Aq2AuoGkBbsDnWr5FZbgeW99XqBqKb+QHZAaAAVAUDS1AqAtgFgFgFgJYAAAoACgLgAKgAACAAABAVAXyBUBtAaiwOkWBq4GZAc5Ac2gIgOsHqB/TvokxmXF18M3urpEH9YIoAAAAAAAAAAAAAAAAAAAAAAAAAAAAAAAAAAABiclGnKXZAf5q9Y4l4r1Ni53vabRqEfGW7sB6KSYHrpAeiMgNXAzKQGH4AxJgYYHOTA5tgYbAy2BlsCMCARgOlgAACAAAACAAJYCNAZaAAQCgAKAA0A32AkkBiaugOMlZgSM5U5ZkB7adZVFdb9UBpyV7XAw2BGBlq4E2VgI0n9m/zAw6EJLVAYeEg9roDLwa6SYE9jXdgaWEiKHSOHhHZChtQjHZIDVrgLANgLcCpgaTAO4GGr7AcazyoDyPVgQgoAoAFq7AXLL7r/IDrReRvNF6+AJL3mmrr8AN547ZHf71gM0pShN5k2rdgMSzt6psCZZdmAyvs/yAln2f5AVxl91/kBpXlDLld/kBdYNpxbAw79YtfgAAAAAAAB1hsBvqB2p1b6PoB0btqBLgZeoEAmxROpBmVOMt4gc3hab6AZ9kt8M2gKsPP/cf5gT2Rvebf4gajhILfUDrGlGOyQGrAXfwAAoFuBUBznWy3S3A87blK7AKLA6x0QG0BQKBUBQNIDSA0kAsA6gGgMgAAAABUAAAUAAAgAAAQFAoBMDSYGkB0i0BoCNgYmBzdwIgOkNwP2v0bYr2f1JBN2U1Yg/uJFUAAAAAAAAAAAAAAAAAAAAAAAAAAAAAAAAAAEA8nFa3I4Xial7ZabZYH+YeJVXX4liKjd3Kb/qVHCOgHppgeuD0A7JgVsDLYGHLuBiTA5yloBhsDDYGGwMgRuwEbAgEAgFAAAIAAAQAAAgEYEAgEQFAAUC3AXsA3Ay73AjhcDlKFmBlZk9NAO8K11lkB13V0BOgEAgCwCwEAAACAoEAoAABQLlA1bQAwI9PNuwHmnRrVG2oOwEWDq/cYF9iq/dkA9iq/ckBfYKz/wBOX5ASWDqxV5Qf5AdcOo0dZQT+aA6xrOvmyqOnRIDn+u/2f5AS9b/Z/kAvW/2X+QC9b/Zf5AW9b/af5AL1v9n+QBc3eVOy+QEjPM9Gn+AGpScVdgeSeNldqCA6Qx1NU7SheQEhj5w1nTjOHlAWThiPfpwUfCQGI0r9ANKj4AcjwA5PgCOk0BIpx3YHRa76/iBpb9gNqVt9QKAAgEAAAAAAAAoAAAAAXoAegRznUlayCuPW7ARi5PQDsoOKAoACoDQFSA0gNIDSQG0gFgFgJYCWsBAIAAAUAAAoAABAKBGBVsAAoDYCoCpgbTA0mBbgYkwMSYGQNw3A+96VxDw3H8LUTt76QH+iKcs9OMu6uZVoCgAAAAAAAAAAAAAAAAAAAAAAAAAAAAAAAABAPiescQsN6Yxk27e41/IsD/NMnmqSk+smyo1ED0UwPVBgdYyAbAZbAxJgYlIDAGJMDFwI7AZAjAjAyAAAAAAABAAAABAAEAjAyAsAbAAAKA3A0o3A3GH4AaVJyaiott9FqB93hXoTjPG7cnDSpwf2pIK8HqD0nxL09XdPF0ZKHSaWgR8bKBuN1p0A1+IEYAAAAAAIBQAEAoDcCpN7K4G1Tb3A0lZALNgerhnCcZxfFLD4OjKpJu10tELH9l9L/Rfw3BcPjLidNVsRNXfglq+6vQXp9LTBRFir0J6fTv7FEljX+BuA/scfyFgvQ/AV/wCjiWxpeiuBL/0cBYzP0RwGatLBQ/IWPBivoy9O4jbDuF+wseGH0R8CpzzQc1+Isdv0XcH+/MWH6LuEffmLD9FvCPvzFh+i3g/35iw/Rdwj78xYfot4R9+YsZl9FXBppqU56ixxX0P8Bj8Mpq/kWLL6IeByVnKdhY5P6GfT973n+YsP0NcA7z/Mlh+hrgD0cptdrlse7D/RT6coQy8mUvmxY9MPo19OQVvZf5ixf0benP2UWJ+jb05+yiw/Rt6c/Zf5iw/Rr6btrhP5ixJfRl6Zlvg/5ix+Y9X/AESYWeDeI4FFwqwV3TbvcWP5FjMFiMBiZYfFUpUqsXZqSsVHJaaMDaQBproBlgL+AJcAAAAAKAAAALqAAuVgSXw3A5ySvuB+i9PeguMeo4yqYely6aV80la4GeK+juL8EbWJwc8q+2ldBXx3DXa3zCMShqBlxsAAoFA2tQNJAbSA0kBbARgZeoCwEYEAAAAFAAAAACAAAAC3AAAKBUBpMDaYBgZYGGBANR3A+hw2py8dh5p2tNP+YH+j+GVFW4Zh6i+1TTMq9QFAAAAAAAAAAAAAAAAAAAAAAAAAAAAAAAAAAB+O+k7Ecj0lWjf49CwP8+rXUqNxA7wA9MAOtwJmAjdwMSYGGgMtgYkBkDPUDLAjAjAgAAAAAACAAAAACAAIBGBmwADLAoACgajEDrGKQH1OD8FxfGsZHC4Sm5Sb1dtgP7H6Y+jbh/CqUKuNgq2I3d9UjI/aUqNOhBU6UFCK6RVgrycV4PguMYWWHxlGM4yVrtagfyD1Z9FOKwEp4nhd6tF65Fq0VH88r4athavLrU5Ql2krFGLK4FyAOX2Ay4NdGBLAAAEAAAKot7JsDcaU5dLfMDrGgluBvJGOyAjSenUCKMqk1CCbk9kgP13pj6OeJ8dnGrXhKhh3reSs2iD+y8A9L8O9PYZU8JSWe2s2tWRX2dwAAAAAAAAAAAAagAAAAAAAUABAAAAAAAAAAD8z6p9DcL9TUJcykqWIS92rFWZR/F/UnoTi/pytLmUZVsP0qQV/zCPziXTqijSAuRPdAZlRb2A5unJdGBl6bgAAACoAAA0oSeyYG1RktWwNZEtwGn5AbwmBxPEKyo4WhKrOT6K4H9O9IfRNKWTGcb0XxKj/APIH9WwmDoYHDxoYWlGnTjolFWMq1iMLQxdN069KNSDVrSVwP556t+i7DYunPE8LXKq75EWB/IsfgK/D8VLDYqm4VIaaq1yo8jjfoBlxAlgNW8AaSYHSKA2kBbAWwEaAy0BLAQCAQAAAoAAAAAAIAAANgFwKAAqA0gNAW4GWwMsCAai9UB6cPLLUhLswP9EelK/tHpzCSvf3EjKvsAUAAAAAAAAAAAAAAAAAAAAAAAAAAAAAAAAAIB/O/phxHK4BTpX1nIsD+Ix2KjpDcDvTWoHoWwGkwFwI2BhsDLYGGwMNgZAjAgGWAAAQBYABQIBQACwACALAAIBLARoCWAlgFgAFSA6xQHSKd1pe+wH9u+i7gHsHCPba1O1Wr8LZJV+9IKBAI1dWaTQH53j/AKH4Rx2DdWhGnVa0lFFsfzDjf0TcWwU5SwH/ABFPt1QH4/GcF4lw6TjisHUp26tFR5LJaO6YGraa3YDJF9AHJg90A9np9wKsNDuBfZqYGlRguiYFUYraNgLa4GXZPuwOuGwOLxklDDYadVvokB+n4R9GnH+JSi61H2am9byIr+k+nfo34TwaMaleCxFddXshY/YQhGnBRpxUYrZLYg0BQAAAAAAAAAAAAAAAAAAAAAAAAAAAAAAAAAgHOvQpYmk6denGpCXSSuB+E9R/RTwzimavgH7LW7LYtj+c8V+jv1Fwycn7HLEU4/bpq4H5yrQrYebhWpTpSW6krFRFq99ANJ9k7eUAyKW8UBHQpv7IGfZafkB7LDuwHssPLAqw9NfZYFyRW0QJbUDPXKtX2QH0MD6e4vxSSWEwNWo++XQD9nwL6IcfipRq8UqKjDdxW5Ff07gfpThPAaajhMNHOlrOSuxY+0tiCgAIB/Kvpb4D/lcSo0kuk2iwP5TKL3RUYcQM5QNqIGlEDaiBpIC2ANARrQCWAywMsCAAI1YABQAEAAAAFAAQAAsBQAFAqYGkwKBGBlgQCrcDvTewH95+jzEc70xSV/h0JKv1RBQAAAAAAAAAAAAAAAAAAAAAAAAAAAAAAAAAAfyb6aa9qeFo38lgfyWOxUdIoDvADtFgW4BsDLYEkBlsDDegGWwMgQCMDLAALgAAACgAAACgRgEAsAAlgAGWAsBLALALAVLUDrBMD6vp/h8uJcYw+Hir5pK4H+kMBhY4TA0cPFWUIpGVegCgQBYAAA82L4bg8bBwxOHp1E+8QPynFfow4Hj7yowdCb+6Wx+R4h9D+NpOTweIVRdExY/OYv0D6gwbebCuaX3Sj5dbgnFcO2quCqprf3QODwmIi/ew9RfOIGeVVTtyp/kBpUK72oVH8kB2pcK4hWf6vBVX/wBIH0sL6N4/i7cvAVFf7yA+9gPom4viGpYmcaK7Esfq+F/RNwrCNSxdSVeXVCx+wwHA+G8Ngo4XC04W621IPfawC3kAAAoAAAAAAAAAAAAAAAAAAAAAAAAAAAAAAAAASwCwCwBpNWauB8viXprhHFoNYvBU5N9UrMD8fxT6IOGYi8sDXnQl2exbH5PHfRTx3CuXs7hXh43Fj4WK9JcewTaq8OqtLrFFHz6mAxtJ2qYSrG294gcnTmt6ck/kBMs7/wCXL8gNxw1eb92hUfyQHqo8C4tiH+qwNaSf7oH18H9HfqLGW/4blJ/fA/S8P+h2vK0sbjFH92JLH6/hX0c8B4ZaTw6rTXWYsfpqGEw+FgoUKMKaX3VYg6gAKAAATqB8f1Rw2PFOA4ig1d5W4/MD/PGLw7oYirRkrShKxpHmcbaFGcpBUgNJAaSA0kBWBGBlgQDLAywMtAAKBAAACXAAAAFAgAABAKAAqAoGkAuAYGWBAKtwO9MD+0fRTX5nBKkL/DIkq/eIgoAAAAAAAAAAAAAAAAAAAAAAAAAAAAAAAAAQD+L/AEz1s3FcPS7RLA/mqKjqgOsAOqAoEbAlwJcDLYGWwMMCARgQCMAAAAAKBQIAAoACAUAAAgCwEsAsAsBbAFHUDcYXA6qAH9I+ifgvPx1TiE4e7T0VyD+voiqAAAAAAABAABpPdJgc5YejP4qUJfOKA4T4VgJ/FhKT/wCkDD4Hwy9/YqX/AGgWPB+HRd1g6S/6QO8MJhqa9yhTj/0oDqoxitIpfJAUB+IFAAAAAAAAAAAAAAAAAAAAAAAAAAAAAAAAAAAAAAAAAAAAAIAAkoxlpKCfzQHKeCwtRWnh6b/6UB558F4ZJ+9gaT/6QMrgPClr7DR/7QOsOFcPp/BhKS/6QPRChRpq0KUI/KIG0rbaALeAAFAAAAAABAJKKlFp7NAfwn1/wd8N9QVWlaFX3kaR+TcVcozlIGUCpAasAsA6gS4EYGQIwMsCAZAAUCNAToAAAAABoBYAAYEAoBAUCpgW4DQABkABVuB2p7gf1r6I6t6OIp9iSr+lkFAAAAAAAAAAAAAAAAAAAAAAAAAAAAAAAAAAB/CPpequfqaMfuxNI/BoDpEDrBgdUwK32AlwI2BHYDD02AjYGWBGBkABAAFAgFAAVAAAABYABQAC3YBYCAUABbAMoGoxA6Rj2A7UqTqTjCKu5OwH9+9D8JXCvT1GDjadRZpElX6IgoAAAAAAAAAAAAAAAAAAAAAAAAAAAAAAAAAAAAAAAAAAAAAAAAAAAAAAAAAAAAAAAAAAAAAAAAAAAAAAAAAAAAAABAPwf0ocH9r4VHGwj71HcD+OuPg0MNBEAqQCwFAlgIBAIBlgZAywIAAgEAAUAAAlwFwFwAACAALYCgAKBQAEAgFQHWm9QP6b9EdW2Nrw7okq/rJBQAAAAAAAAAAAAAAAAAAAAAAAAAAAAAAAAAAf59+lGq6nq+quiSNI/Hp6AaQHSLA6J9ANN26gS4EuuoEbAjAwwI2BAIBADAAUBYAAAqAAUAAAAUAAsAAAVIC28AVRA0ogajFAdIx8AfpPRfBXxbj1KDV6cJXk7Cx/e6cFTpxhFWUVZGVaAoAAAAAAAAAAAAAAAAAAAAAAAAAAAAAAAAAAAAAAAAAAAAAAAAAAAAAAAAAAAAAAAAAAAAAAAAAAAAAAAAAAAAAABHsB5OJ4KHEOHVsLNXU4tAf594xw+fDuJ18NNfDJ2NQPnOLCJYBYBYBYCWYEsBGgJYDLAywMgQCMCAQAAAoEv4AAAAAAAAgFQBAW4FvoAAAQBcAgOtLVgf0L6J6uXjk494kV/ZSCgAAAAAAAAAAAAAAAAAAAAAAAAAAAAAAAAAA/zn9ItTmer8T4djSPzCA2gNxYG0wLqwFwJcCMCXAgGWBGBAAAAAAoACgAAFAAALYBYABbALAWwFSA0kBpIDSQG4RA6qNrNAf176MOD+zcPnjZws6mxB+9IoBQAAAAAAAAAAAAAAAAAAAAAAAAAAAAAAAAAAAAAAAAAAAAAAAAAAAAAAAAAAAAAAAAAAAAAAAAAAAAAAAAAAAAAAABAP5T9KPBuRi4cRpx92ekvmWB/O5JsqMWAWAAAIwIBGBm3kDLAywMsDIEewE6AAIAAWAX6AAKAAgBgQABUAAICgUABHsBAKgOkHZgfuvounl9SKPdEV/byAAAAAAAAAAAAAAAAAAAAAAAAAAAAAAAAAAEewH+b/Xrv6uxf8RpH55bgaQG0gNAW4EYACXAjAgEAjAdAJYAAAAUCgAAFsAQFAAAKAQFAWAqQGkgNpAVIDSWoHaMQPfw3Azx2Po4eKu5yQV/oDhOCjw/htHDQSShFXMj2gAAAAAAAAAAAAAAAAAAAAAAAAAAAAAAAAAAAAAAAAAAAAAAAAAAAAAAAAAAAAAAAAAAAAAAAAAAAAAAAAAAAAAAAAAAAfC9X8KjxXgNallvOKzRKP4LWpOlVlTkmpRdmio5MCWAWAAQCMDLAywI9gMMCMDLAjAjAgACAAAAAAuAAAAIAAAUC3AAEBAFgKgN09wP2v0aO3qinr0Cv7qZAAAAAAAAAAAAAAAAAAAAAAAAAAAAAAAAAAJL4WB/mz1y/wDxZjP4jSPgoDaA0rga1AARsABGBGBGwJcAwJ0AAAKAsBbAAAFAoBAAKAAAUAgNICpAaSA2kBpIDcVqB2jED959GvB/auJvG1I3jS2Ir+tkFAAAAAAAAAAAAAAAAAAAAAAAAAAAAAAAAAAAAAAAAAAAAAAAAAAAAAAAAAAAAAAAAAAAAAAAAAAAAAAAAAAAAAAAAAAAAzKKlFxaunowP4d664Q+GceqOKtCq7o0j8vbWwEAAAIBGBloDLAywMsDLAjAywIwIAAAQAAAAAAAABAAADXQCAVANbgOgEuAQHSG4H7P6N9PU1IK/u5kAAAAAAAAAAAAAAAAAAAAAAAAAAAAAAAAAAkvhYH+bfXSt6rxf8RpH59AdEBtbAAAEvcABLAT5gRgAIwAAABUBQAFAlgKgKAAAUABQLYCrYCoDSWgGkgNJAbS1A6wjZ3A9NCk6lWNKMbubsB/cvSHCIcJ4JSjltUmryMq+8BQAAAAAAAAAAAAAAAAAAAAAAAAAAAAAAAAAAAAAAAAAAAAAAAAAAAAAAAAAAAAAAAAAAAAAAAAAAAAAAAAAAAAAAAAAAAIB+O+kXgceI8HeKhC9WjroWB/GpJptNWaKjnYCALALAQDLAywMsDLAy9AMsCAZYEYAAgAACAAAEAAAAAABQAFAgABYCoDcNwP2f0cf+ZaP4hX93MgAAAAAAAAAAAAAAAAAAAAAAAAAAAAAAAAAEfwsD/OPr6FvVWIb6yNI/NoDaA2mBQIwDAywCYDcCALgAAEAoAAgKBQAFQAABQAFQFAAVAaSA0gNpAbSA3GOoHaC11A/U+ieEPifHKd43hTd2wP7XGKjFRWyVjKqBQAAAAAAAAAAAAAAAAAAAAAAAAAAAAAAAAAAAAAAAAAAAAAAAAAAAAAAAAAAAAAAAAAAAAAAAAAAAAAAAAAAAAAAAAAAAI9QOWKoRxOGqUZK6nFqwH8D9R8LnwvjFfDyVlm935GkfIkrAZAAAIwMsDLAywMsDDAgGWBlgAAACAAIAAAAACwEAoCwEAqAAUCALgVAbhuB+1+jhf+JKL+YH90MqoAAAAAAAAAAAAAAAAAAAAAAAAAAAAAAAAASXwv5Af55+kKl/8AX69T940j8mgNoCoDQEbAXAlwAEWgB2AgAAtwAFAAUABUAAqAoACgACQFAqAqQGkgNpAbSA0kB2gtUB3hG/TcD+v/AEecH9g4V7TUjadXv2JI/YkVQAAAAAAAAAAAAAAAAAAAAAAAAAAAAAAAAAAAAAAAAAAAAAAAAAAAAAAAAAAAAAAAAAAAAAAAAAAAAAAAAAAAAAAAAAAAAE6gAP5z9KHBc9KnxGlHWOkmio/mEkUc2gAEewEYEYGGBlgZYGWBkDLAnzAgAABAAEAAAAABcABAF2AAAUBcAAAAdKe4H7r6Nof+IKTsB/bzKqAAAAAAAAAAAAAAAAAAAAAAAAAAAAAAAAAEeqYH8I9fYfmcYxSS1TNJL8H1tawGkBpAW4C4AB0Al9AJsA8gAAACgTqBUBQAFAAUCgAKBUAAAaSAqQG0BpIDaQHSMQO0I9APseneGy4lxajQhFtZk5fIK/u2FoQwuFhRgrRhFIyO4AAAAAAAAAAAAAAAAAAAAAAAAAAAAAAAAAAAAAAAAQCgAIBQAAAAAAAAAAAAAAAAAAAAAAAAAAAAAAAAAAAAAAAAAAAAAAAAAAHg41w+HE+F18NON80Xb5gfwLiOEngsbVw9SLUqcmjQ8UkEZYAABlgZYGGBmwGXqBlgRgZYEAAQAAYEAAAAACAAAABcAAAoACAVMDtSjmqJID+g/RpTv6gjp8KIr+zEFAAAAAAAAAAAAAAAAAAAAAAAAAAAAAAAAACMD+Leu4ZfUdZW0ZpH8/4hh+TXzJe7IDzr+YFuBQIwAABsAAASwCwFAoAABQAFQFAoCwACgUCgANIC9QNoDaQG0kB1igO0dgP6t9G/BPZ8JLH1YWnPSJLV+7sQUAAAAAAAAAAAAAACAAAFAgAAAuAAXAXAXAXAXAXAXAXAALgLgLgS4C4C4C4C4FuAuAugFwFwFwFwAABcBcBcBcBcBcBcAAuAAAAKBAAACgAAAAAAAAAAAAAAAAAAAAAQD+W/SdwTk4iHEKULRnpKxYH87kiowwIAAjAywMSAwBl6ARgZYGWBAAEAAAIAAAAAACAAAAABQAEAAaWwHtwlL7bA/o30W0s3Fqk7bRIr+skFAAAAAAAAAAAAAAAAAAAAAAAAAAAAAAAAACAfyD6R6XL4/mX2kVH4rEUViIOnLfoUfDqU5UpuD3TAgC4FAAAAEAALgUABQAACgACCNBVAtwAFAoACgVAaSA6JAbWoG4rUDrFAfW4Hw6XEuJUMPFNpy10A/u+AwsMFgqWHgrKEUjKvSAAAAAAAAAAAIAAALgS4C4DMBLgMwDMAuBLgW4EzALgLgMwDMAuAuAuAzAMwEuAzAMwDMgGYBmAZgGYBmAuYBmAmYC3AZgGYBmAZgFwFwFwFwFwGYC5gFwLcBcBcBcBcBcBcC3AXAXAXAXAAAAAAAAoAAAAAAAACdQPlepOFx4twath2ryytxLA/guLw88LiJ0JLWm2ncqPMwJ0AgGXuBlgZYGWBhgZYEAywAEAgEAAAAAAAYEAAAAAABQIBQIB2oUXVmuyA+lFWSS2QH9J+imlepiKvZWJKv6aQUAAAAAAAAAAAAAAAAAAAAAAAAAAAAAAAAAIB/L/pSoZMbQqpaSRYH8/fXoyo8+LwixFO8dJrYD47jKEnCStJdH1AgAAAAAHuAe4AABQKAW4BgUABQKBQLYABQKAAqA2gNIDaA3FAdI6PYDtCIH9P+jXgWSm+I1Y6v4bklX9DWpBQJcBcAAuAuAuAuBLgLgS4DMgGYCZgJmAZgJmAZgJmAZgGYCZgGZATMgGZAMwDMAzAMwDOgJnQDOAzgTOAzgM4DOAzgM4DOAzgXOAzoBnQDOgGcBnAZwGcBnAZwGcC5wGYBnAucBnAuYBmAuYC5gFwGYC5gFwFwGYBmAtwFwGYBmAZgFwFwLcBcBcC3AXAXAAAAABurAfyH6R+B+w8TWNpx/VVt35LA/DSVioy9gMgQDLYGWBlgZYGWBlgZYBgRgQAAAgAAAAMCAAAAAAAAAAHSjSlWnlitOvgD6cKUaUFGO39QKgP6z9FlDJwytVt8TJKv3pBQAAAAAAAAAAAAAAAAAAAAAAAAAAAAAAAAAAfgvpRwrnw2jXSvldmWB/KmVFXzA44rBwxUG2lGa2YHx61CrRdqkX87aAc/kAAICgADAAALcABbgAKBQAFAqAoFsAAv4AUDSQGkgNIDaQG0gO0FqB9PgvDqvFOJUcNTi3eXveEB/duG4Onw/A0sPTSSjFX+ZlXrzIBmAmZAMyAmcBmQEzIBmQEzgM4EzoCOYEzgM4EzgTmATOAzgTmATOA5iAcxATOgGdATOAzgTOgGcBnAcxATmIBnQDOAzgM4EzoCcwBzPIDOAzgM4FzgTmAM4FzgM/kBzAHMAucBnAKYFzgM4DOgLnAZwGYDWdAM6AZwLnAucC5wGYC5wGdAXMAzAXOgGcBmAuYBmAtwGYBcC5gGZAMwC4FuAzALgLgL+QF/IC4HxfVPCY8Y4JVo2vOKvHQo/heKw88LWnRqxanB2aZUedgZegGWBAJIDAGWBlgZYGWAAgEAAAIBAAFAALAQAwFgIBbgE7sCN6XA70MJVrysk4x6yaA+pSowoQUYK3d9wEtwIlcD+2/R9hnh/TdNtWc9SSr9QQUAAAAAAAAAAAAAAAAAAAAAAAAAAAAAAAAAAH571thPavTWISV3BZiwP4e1bTsVGbgbVn3QFnGNSOScc0ewHzMTwpxvPDu/wC6wPnzUoSyzi4vyBNgAACgAAACgOoFQFAoADQFQDqBQKBQAGkBtAaW4G0B0igOyair9QP6j9HHBHhcJLiNaP6yp8F+xB+65lyKZwJnAOYEzgTmATmAOYBOYBOYBOYA5gE5gE5gE5gDmATmMCcxgTmMBnAmcBnAnMAnMAZwJzAHMAOoA5gE5gDmATmAOYBOaA5jAcxgOYA5gE5gF5gDmMBzGAzsBnYDmMBzAGcC50BOZ2AvMYF5gDmAOYwHMAvMAcwC8wC8wBzALzALzAHMAvMAvMYF5gDmAXOBc4DOBc6AucC5wGcC5wLnAZwKpgXOgLmQDMAzAXMAzAXMAzATMAzAMwDNpf8AAD+VfSRwH2XGR4hRjanP4vmaR+DfyAwwMgRgZYEYGWBlgZYGZAQCAAIAAgEAAUCAAHgAAAAANU6c6ztTi5eUB9DD8OjD3qrUn27Aeu60touwEbAwwOmHhzcRTh3kgP8AQPAcP7LwXDUrWtBGVfQAoAAAAAAAAAAAAAAAAAAAAAAAAAAAAAAAAAQDzcRo+08Pr0X9qDQgf5/4hQ9nx9ei9HGbNQjyr+4GkBq4FTs7+AOValCsowqQWvgD59bhlnKdGSSXR9QPHUo1aT/WU2l3A53VwLsrAAL1AAUABUBQKBQKBQLa4FsAAq2AoGkgNIDQHSCA6rTfboB9T09wufF+K0qVvcUk2Ff23C04YXDQw9NWUEkZHXmgOaBOaBOaBOaA5oE5oE5oE5gE5gDmAOYBnmATmgOYA5gGeYA5nkCcwCcwBzAHMAnMQEdQBzAJzAHMAcwBzAJzAJzAHMAnMAcwCc0C8wCcwBzALzAHMAc0BzQHMAcwBzAHMAcwBzALzAHMAcwC8wBzALzAHMAvMAcwC8wBzALzALzEBeYgHMAvMAqqAXmAOYBVUAvMAvMAucC5wLzAKqgF5gFzgXOBc6AZwLnAZwGcC5wLnAZwGYBnAmcBnA+dxzh9Pi3C6uHnG7y3j8yj+HcQwVTh+LqYepFrJJoo8mltQjHzAgEYGHuBGBlgZYE3AywIAAjAnUABAKAAgACagXVgG1//AIA3Sw9Wq3kjZLqwPXSwFNZZVJZm+gHupxjBOMI2S7AavfUCAZkwMa3A+v6YwjxnHMNSSv7ybA/vtKHLpRgvsqxlWgKAAAAAAAAAAAAAAAAAAAAAAAAAAAAAAAAJcBcCPVO4H8T9d8PeC9Q1JKNo1NU0WEfmN9SjSYGrgN4/MCNtX1ul0Aw17sV1bAzJJ1HdXUV1A8lTCUpxTy5XJ6WA808FOMmoyTSA4uEk9UwJbqAAX0uBQKgKgAFAoGgKAAoFQGkBoDSaA2kBpzULX1fZAbhCVR5pLrogP6h6E4SsHgni6kLTqfDcK/Xc3fyZGeZ5AczyA5oE5nkBzPIE5nkCcwBzAJzAJzPIE5nkBzAI6gE5gDmATmATmAM/kCZwHM8gRz8gM/kCcwA6gE5gE5gDmATmAXmATmeQJzPIDmATmAOYA5gE5oDmAOYA5nkBzQHMAcwC8wBzAHMAcwBzALzAHMAcwC5/IDmAXmAOZ5AczyBeZ5AcwC8wBzALzLgXP5AZ/IFz+QLzALzAKqgF5nkC8wC8wC8wCqp5A1n8gOYBeZ5AqmBrP5AucBnXcC59QKpgXmeQGcC5wGcBnAcwBnAZwJzAJzOt9QPwHr7gqcljqcNH8RYH88q05U3dK6KjldNAQDIGWBGBlgZYEAyBAIBGAAAAIAAu4Eur2AqjKSukB2hhJOSzysn2A70qFOEXaOqe4HoT1Tto0BpJpSTe2wG0/hf5gaAy2BmTAi2A/efRfw32jiU8XKPu01oB/WjKgFAAAAAAAAAAAAAAAAAAAAAAAAAAAAAAAIBLgS4GXLQD8L9JXCHiuHxxtJXlS3Kj+U302sUEwNXsBb6gZk/dt1kwJLWX8KA5ydo+ZAZl8aS2iByb92Uu7sgMy1UY216gcnGLlJ20A5ypRtpuBnlIDOV2AlmBfmA0AtwKtwNAUAgKBpAW3kC3S3YFVRN2UbgbUaklp7oHanSjHVu78gfd9N8InxXiEG01Spu7fcD+p0slGlGnT0jFWSMq1zfIDm+QHN8gTm+QHN8gTm+QJzfIDm+QHN8gTm+QHN8gTm+QJzfIE5oDm+QM83yA5oDm+QHN8gTm+QJzfIDm+QJzQJzfIDm+QJzfIE5vkBzfIDmATmgOb5Ac3yBHV8gTm+QKqq7gTmoBzfIE5rAc0BzfIDm+QHNAvN8gOb5AKr5AvN8gTm+QHNAvN8gFVAvNAc3yBeau4Dm+QLzfIDm+QHMAvN8gHV8gOb5AvN8gXm+QLzQLzQHNAqqgaVTyBeYBeb5Aqq+QLzfIF5vkBzfIGuYBeZ5AqqeQNczyBeYBeYA5gF5nkC8wC8wBzF3Ac3yA5vkBzfIDm+QHNAnMAjq2eoHnx1GONwk8POzU1bUD+UcZ4bPhuNnRmvd+yaR8ath1fNF5WBwlGpH96wHNyit00wLfymBHfwBlgZYEAywAEAjSAmgACagVJsC8t9wKqSaeboB1ioxcWlv3A6R0copb7AbTeVS7AdE1n8SQGo/BbqmBtPX5oDX2bdUBb6gRsDDYFhFykopXbdkB/b/QfB/qvgVOU1apVV2SR+oIoAAAAAAAAAAAAAAAAAAAAAAAAAAAAAAlwFwJcDDYGXLyBiU9APBxOhHG4Grhpq6nFpXA/hvE8HPAY+th5r4ZOxoeMI1fQC3Aj3X7oGZP3X5AkviiuyA5N2jKXfQDEtcsAMt3nKXYDk/8u3dgH8fyAw9m+oDogJ12AlkwJlXyAmTyBbO24C0ujAqU7vwBpRnZarUCqM7vVaAbjTbesn+AGlTVu+vUDShFP4UBtMDaS36gdaNKWIrRow1lJ20A/pvAcDDheAhBJZ2veZlX1Ob5Ac3yA5oDmgOaBOaA5oE5oE5oDmgOaA5oE5oDmgZdUCc0BzAJzAHNAnNAc0CcwBzQI6oDmgR1QJzPIDmIBzEA5oDmATmATmAR1NQHMAc0A6oE5oDnAOaA5qAvNAcwCcxAOYBOaBeaBrmAOYA5gDmgXmgOaA5iAcwBzALzQHN8gXmgOagKqgF5gF5gF5gFVQC80BzAKqoGuaA5oGlUAqqAXmIC8wCqoBrmAXmAXmgXmgXmgXmgXmgOaBeaA5oF5oDmoBzUA5qAnNAy6vkCOr5AzzV3A+D6o4bHiODlUglzKa36ssD+e1Kbi3F6NdCo81SNgOTSas0BzyU82sQMOmrXTejAkqbu0pPQDGSVlaS1AzlnrqtAJll95ARxl3AZXbcA46gMqQCyAq0ALsA+zfyBtWz/ADQFWsH4A6J6xkBtJXlHuBr7MZLoB1Wk2u6Aqel+zA1fVsBeyAjdwM+f5Afc9I8JnxbjlCmo3hF3kFf3mjTjRpRpw2grIyNgAKAAAAAAAAAAAAAAAAAAAAAAAAAAEAARgS4GGwOcp+QOUp+QOcqgHGc+oH8++kDg11HiFGO3xWKPwJUFIDVwJfd9wJpdLsBlvSUgMS+zFfiBi/vyl2QHKWkPMmBlr30uwGb/ABMCPoA7gZ1sAAMBfwA6AFugC6+QN7S+SA0tl+8wNJrXxoBpaWA0nsgNLcCudgP1fpThSg/ba8dX8KYH67n6mVVV7dQLz/IDneQHOAc7yBOb5Ac0BzQJzfIDm+QJzQHOAnOAvN8gTmgTmgTmgOb5AnNAc0Cc0BzQJzQJzQHNAjqgOZ5AczyA5vkCc0C80BzAJzGBl1AHM8gOaA5nkBn8gTmAOYA5jAKowLzNAHMAcwCcwAqgF5oF5oDmAOYA5oDmgVVQLzPIDmeQHM8gOb5AvNAcwCqqBeaBeawLzALzfIF5vkBzQKqoF5vkCqr5A0qoFVXyBeZ5AvMAqqga5vkC80BzQLzQLzQLzfIF5oF5oDmgOaBeaA5oE5wDneQJzvIEdbyBl1gMOt5A5yrKzT1urNAfjPUXDlRr+0Ul7st7dDQ/Pz95bBHCasBybsn4Aje6uBnqnvcDD+HazTAy7ZtOqAy9I7AH/YCPYABAAAC9mAWt0Bq/uproBuNlNrowNR+BrsB0T1jJddANxT96P4gai7qL7bgaW8l3At9EAbAzcAlslvsB/YPo54D9X8OWMrRtVq7X7ElX7dMgtwKAAoAAAAAAAAAAAAAAAAAAAAAAABAIwJcDLkBlyA5uVuoHGc/IHCVTyBylU8gcpVO70A8eOpU8ZhJ0KqTjNW1A/kPGOHT4bxCdGadm7xZYR4Si3AX0QC+7Aw9oru9QJJrPJ9kByelN95AZlrJLokBhveQGHoku4B/F4QEf9QI+wEuAuAuA/wD7YC36/wBgC6f/AABpO6flgava3hAaXRfiBpO/4ga6AVySv2A93B8BLH4mLkrUovW4V+5pzjShGEElCKsZsbWI8gaVfyBef5Ac/wAga51+oDneQLzvIDneQHN8gOb5AnN8gOZ5AczyBOZ5Ac3yBOb5Ac3yA5vkCc3yA5nkBzPIEdTyBOZ5Acy/UBnAZ/IBz8gTP5AnMAczyBc/kBzAHMAczyBHPyBM/kCOfkCcx9wLzPIFz+QJn8gM/kC5/IFz+QJzAI6gE5nkC8zyA5oDmgXmeQLzAHMAjqeQKqnkC8zyBeZ5AczyBM/kCqfkBzPIDmeQLzPIFVTyBpVb9QHM8gOZ5AvM8gVVPIF5nkBzPIGlU8ga5vkBzfIFVXyBeb5A0qvkDSq+QLzfIDm+QLzfIDm+QLzfIF53kBzvIDneQJzvIDn+QJzvIE53kBz/ACBl1/IGXX8gc5V/IHGVfyB5cTKOIpSpTSafUD8jjsJLCVXG14PZmh4poI4SiBz2aAjej8MDL3+aAz0Xh9wIwMvYCAAAAAgF9AKnZp9wKvtIDV9E+wHRf5lukgNr4GusWBtSs0+4Gk7JoDV9EAv07AS4AD9B6P4FPjPFoXX6mm7yfcD+30KcKFGFKCtGKsjKu1wKpAaUgLcCgAAFAAAAAAAAAAAAAAAAAAACALgRgYbA5uQHOU9AOM6mgHnqVQPNOsBwnX8gcZV/IHCeI63A+D6i4bS4phnKy5sV7rQH87q050akqU9JRdjUIxfTUC5tfkAvdW7sBe8r9gOcvh8yAjazpdIgcr+7N93oBmS0SAy9ZadAI9F8wI+gEbAALgS4FuAW6Aqe77gaS1XgCrb5sDS1v3ewGlp+ABzsrAdcHhp42soL4L6sK/WYVU8JS5dNWtuZHoWJemoGliH3A3Gv5A1z33AKv5A2q/kCqt5AvO8gXneQHO8gOc+4FVUC81gR1WA5jAcx9wJn8gOYBM7AZ2AzsC5wGbyBM3kAp+QLm8gOYBHMBm8gTM+4DM+4DP5AZwHMAczyAzgTOAUgDkAzAMwEzvuAzAXOA5gDmAMwGXMCZ/IBTsBeYBVMC5wGcCcwBzACqAa5gFU33AuYA56AZzgM/kBn8gXmPuAVSwF5rAvMAvMAqqAXmgXmAOaBeaBeaBVVAvNAvN8gVVfIF53kC83yA5r7gXm+QHO8gOd5Ac7yA5/kCOu+4Gef5Ajr+QJz33AntD7gZeI8gYdfyBzlX03A4yr+QOUqzfUDzYqEMTDLP8GB8DEUXRqOMtujNI88o3KOMo7+SDm//wDIGfn0Ay7Xa7gS+iYE7oCAHuAAgACgOnyYGtpJ9wLH7UX+AG4y0jLsB0j8T7SA1F6eUwN396/dAE9PkwFwLey2uUenAYKrxHGQw1GN3J2b7EH9o9OcGw/BMBCnThacleTZlX2o1AOqmBtSA0pAbTAtwKBQAFAAAAAAAAAAAAAAAAAAEYGWwI2Bzb8gcZzA4TmB56kwPNUqAeSpVA8tSvYDzTxFr6geaeKt1A8tXFb2YH5vjuAhiI8+krTW9iwPzcm1K0lr1KiZtwKpWaAjfu6dQI3eSXYDm37spd2Bl7KIGW/eb7AYXw/MA9XYCXAjAALgS4FuAvZNgVPW3bUC30+YG1u/CA0tGvCAOaWrAlClPE1FGPw33A/QYWnTw1NQhp3ZlXoVfyBpVgNqsBuNcDarAaVUDSqgaVUDXNAvNAqqAXP5Aqm77gaz+QI5sBnYFzgM3kBmAmYBmAZgGYDWcBmAZgLmAlwGYBmAZgGYCNgS4C4FuBLgW4BMBcBmYFAoGWwFwFwFwJcBcAAAgFuAuAuBLgLgEwLm8gVTAvMAjmBFIBn8gMwFzMCX8gVMC5gGcC5wHMAvM0AKoBeYBeYBeYA5gDOBpT8gOYBeYwHMfcBzQHNAc0Cc0COr5AnOAy6wGXX8gZ54GXXAy64GXX03AxKt5A5ur5A5yqgcZVgPNXy1VaX4MqPnTi4Ss9ijlNdQOMkByer+YGfPYCdWgI3fUB1AgACAEBbgNm13Av2PkwNX99MDcdpxA0pe5F9VoBtP3n5QFv7qAqerAtwN0qc61RU6acpydkkB/TvSPAafCsOq1WOatNXbfQyP1kKvu7hXohV2QHeM7gdYyA6RYG0wNIDQFAoACgAAAAAAAAAAAAAAAIwIwMtgYkwOUpAeectAPNOoB5qtXQDyVaoHjrVvIHhrV99QPFVrvuB46uJfcDzVMT5A81TE30YHxeI4VSfNpL5lHy3LK7NFRM9k2BcyVkBMy95gZb0jECX99+AMOXu/MCSetgM31uBLgAFwIAAXAu+gDdN9wNr+gGk0vxASqJagSnCdeVkrRCvq0FCjBRgtepkdlVA0qgHRVANxqgbVQDamBtTYGlUYGlUYFVQDaqAaUwLmA0pMDSmBXMCZ2BpSYFuwGYBcBcBcC3AqYFAXAtwCAALAAAABYC2AWAlmA1AWYFysCWYGrALNgSwEaYCzAtmAsBAAEAAGAAgAA0BkBcBmYFuwJcBcCXAqYFuAQFcrATMAzAMwDMBcwBSAZgGYC5gKpAazATOBc4DmATOBHUAy6jAnNYDm9wI6oGHVfcDLq+QMOqBl1vIGXWfcDDreQMut5Ay63kDEq3kDnKt5A4yq+QOUqoHGpJSVmBwlo7X0KMTsVHKWmoHN7/xAZuBL7oBfW4EAXAXAlwLfQB1QFT95ruBb+78gNX99eQNRekl2A0p6pgW+oGlLUo3TjKrNQpxvJvYg/bem+CU8JlxFeN6j1V+hlX7ClW2A91KpdAeqnID0wkB2hIDtGQHVMDSA0gNAUAAAoAAAAAAAAAAAAAIBHuBGwMNgcpyA4ykB56kgPJVkB4qswPJWqabgeCtVA8Fao9QPDVqabgeKtV8geSpV0A88q2gHGdV99OwHhxFOM/ejuWx4Z3i7MsSiKeoDN7qXkBmWdvwBly9y/VgG9UuwEb1bAnQCbALgAJ1AdAC6ICrq2BpNK3gBdW3AzKor2A1TpubvJ2QtXshNRVo6IyO0anYDaloBpSA6RmB0UgNKQHSMwOkZAaUgNJgbTA2mB0i9ALcBcDSYGgAGosDVwKAAoC4CwGkgLYCNAVIDWVgVRA0ogaygMngBk8AMgEyMCqABwAmQCqADL4AZQIo3AuVgMgBwAmQC5ADiBhxdwGUCZWBMrAlmBGgFgFgFgMtAMoFygMoEaAlgJYAgNAS4DcCWAtmBLMBYAwFwKBLgW4FTAtwMuQEcwM52AzARyAy5MCZwI5gZcwMSn5Aw5MDDk+4GXOwGHU8gYdTyBl1AObqgYlV8gc5VfIHOVTyBzlU8gc5VAOUqnkDPNNA5JhHOQGH18gRvYCXvoAzK4C4C4B7gLgO4DNbUCqVpNdwCl7u+qA0pe/vo0BpS0sBtPZgd8Ph6mInlhF/MD9PwrhtPDJTks031ZLV+joVG7EH0aNQD6FCewHupVAPVCQHogwO0WB1iwOiA2gKgNAAAFAAAAAAAAAAAACAAMvcDMgMN6AcZ7AeebA81STA8lV7geGtLcDxVpOwHz60tQPBXm9QPFVnoB4qsgPHVkwPPOTsB551GgOM6jWqA4ykpblgcJLXQIw3q32KM5mkAz6pATmdQGf8AmAzAMwDMBMwFzaXAX1AZtH5AOprYDLqoAry32IOkbLpcSOsZGVdE9SjqnoB1T0A2gOkQOkQOiA3FAbQHVLS4GkBtAbQG4gbsAsBpIDSQFygXLYDSQFswNKIFUQNZfAFULsDapgXIA5YGlTAuQC8sCqmwNcsDSpgXlgTlgOUA5YF5YFVJAOUBHSAzymBeVYDXLAvLQB0kBOWgMumBOWwI6QGXTYDlATlgTlgZdMBywGQCZAJywHLAuQCZAGQCOAGeUwHLsBMoDK+wDKBMoDKwLlAZQI4gZyAMoDKAygXKBGgI4gYygHECWAjQGWgMPQDDbAw2wMOTQGHICSloBxlJgYcgMOYHOUwOcpgc5VAMSqAc5TYHKU2BzlNgYlPQDDnfYDPNcdyjXMuEM1ijLlcDLnbUCZ7AXOBc4DMAzAM2oEzboC5r2kBpfF8wNpWXyA6whKbSigPdh8CnaVR3d9iD7WGhGnZRikB9KjJ6akV9LDybYH0aDd0B9Cg3oB7qTd0B7aYHqpvQDtEDtEDogNoDSA0AAoAAAAAAAAAAAAAAEAywMsDnPYDhPYDhUA8tQDyVeoHirXA8NYDwV1dMD59aO4HgrXQHkqNgeOoncDzzTYHnqRA4SiBykgOUrgYbuBlxQhJcpRfRlGW3t2KM5gGd2tcA5vuAzvuBc/kBzH3AnM8AXM30Iqq/UDSikQdEgNKIHWEQOsY6AdEgOqiB1imB0jFgdYxA6KIG4xYG4xA6qIG1HQCxgB1jTA6KAGlADSgBtQAqpgXlgaVMC8sCqmBpUwNKmBtUwNKkB0VIC8oC8oCqkBpUgNckC8oBygNKkBeUBVRAvIAnIAvIAqoAOSA5IDkgTkgFRAvJAckCOiBl0QJyQHJAnJAckDLpAZdECckByAI6IGXRAckByQDpAZ5QDlATlAXlAZdIDLpAOWBHTAnLAvLAcsBywHLAnLAcsDLpgTlAOWA5YE5QEdNgZdNgR02Bh0wI4Ac5QAxKmBxlTA5ygBzlGwHOWwHJgYkwObegHKTA5SeoHOTA5SYHNyA5ykBzcgMZgMuQGWwI3bYBnZQc0UTMETMwJmYDMBrMBpP+YFXYWKBtLp3A3GL0Ir0QpJy1Ej20YqNkiD20oge6igPfRT0A+hh01YD6eHvoB9OhHRAe+lED100B6ILQD0QQHWKA6pAbQGkBQKAAAAAAAAAAAAAAAAgGWBlgc5rQDjPYDhNXA81SIHmqR3A8dWFwPFWp+APDVpa7AeGtR30A8Fai7AeCrSdwPLUpMDzTptdAPPOmwOM6btsBxlTfYDlKmwOcqfgDnKmwMOD7AYcH2Aw4X6FEdPXYWM8sWCpCxVSFjXJQsaVPwQXIBVTA2qfgg3Gm+xR0VJ9gOsKT7AdY0/AHWNPwB0jTfYDrGm77AdY032A6Rp+AOsafgDrGn4A3GnrsB0VHwB0VLwBpUvAHRUvAG1S8AbVLwBtUQNql4AqpeANKl4A0qXgDXJ8AVUfAGlRA0qIGlS8AbVIDap+ANKkA5NgNKl4A0qXgDapeANKkuwFVHwBpUfADk+ANKjpsBeT4AvJAnJAvJ8AOSBOSA5PgByQHJAnK8AXk+AI6PgDLo+AHI0AcnwA5IGXR8AZdDwBHR8AOR4Ajo+AI6AGXQAnIAjo+AJyfAE5PgByfAE5PgA6XgCcnwBOTfoBHQ8ATk+AJyfADk+AHJ8AOT4AjogTkgOT4AnJ8ATleAHJ8ATkgTlWAjpeAMypOwGHSfYDLpeAMul4AxKl4A5SpeAOUqXgDjKl4A5ypOwHCdNoDlKmwOUqbQHKUWugHOUQOU4gcpRA5TiBylEDlJAcmgMNMDLQGWgM6oBcDLsAQACooqQsVIWNJCxqwsail1A2ogd6cH2IPVCndgeulT8Ae2jDwB7qNN9gPoUKT00A+jQpPQD6VCnZAfRw8NtAPfTiB6qcQPRCIHeCA6xVkB0QGrAVAUCgAAAAAAAAAAAAAAAIBAMyAxJAcpx0A4TiBwnEDz1I3A8tSmB5qlG6A8dWh4A8VXD76AeOthm1sB4auFfYDy1MK+wHkqYV9gPNUwz7AeeeGfYDk8NJ9AOcsO+wHN4Z9gObwz7AYlhn2Ay8N4Aw8L4Ay8K+wEeFfYCezPsA9nfYCqg+wF9nfYC+zsDSw77Abjh32A6RoPsB0VB9gOkKD7Ado4d22A6xw77AdI0H2A6ww7vsB2jh32A3HDvsB1jh32A6xw77Abjh32A6Kg+wHRYfwBtYd9gNrDvsBpUH2A2qL7AdFRA0qPgC8nwBpUX2A0qL7Aa5LfQC8h9gNKg+wGlR8AaVHwBrk+ANKj4A2qPgDSo+ANKj4AqoeANKh4A0qL7AbVF9gNKg+wF5HgCqj4AvJ8AOS+wDkPsA5HgC8jwA5HgByPAE5HgByPAE5HgByfAB0fAGeS+wF5PgCcnwA5HgCcjwBOS+wE5L7ATkPsBHQfYCOh4AzyH2AnIfYByH2AnIfYCch9gHIfYCch9gMug+wE5D7AFQfYByX2AjoPsA9nfYByH2AnIfYCOg+wE5HgB7P4Aez+AJ7P4Ans/gB7P4Ajw/gDDoeAJ7P4Ay8O7bAZeHfYDLoPsBh0H2Ay6DtsBynh32A5Tw77AcZYd9gOU8O+wHGeGdtgOEsO77Acp4d9gOE6D7AcJUX2A4zosDlKkwOU6bsBwnSYHKdNgcnTYHOVNgYdNgZcGBhwYEyATIAyagMjAKDuBpQYGlB9gNqEuiA1GjJgdYYd31QHphQt9kD0Qw77Aeinh2B66dB9gPbQw77AfQoYd6aAfSoUNFoB7qNBroB76NID30KdrAe2nAD004gd4RA7RiBtIDaQGkBQKAAAAAAAAAAAAAAAAAQCARoDDQGJIDnKPgDjOAHCVMDzzpAcJ0gPPUo+APJUoeAOE8NeOwHlqYVX2A8lXC+APNLB+APLUwe+gHCWD8AcZYO3QDjPCeAOUsL4A5vC+AMPC+AMSwtugHN4bwBHhtAMvDeAJ7N4AezPsBfZvAF9m8AFhvAG1hn2A6LDO2wGlhfAHWOF8AdoYXwB1jhPAHVYXwBuOF8AdY4bwB1hhvAHWOF8AbWGsB0jhwNrDgdFh/AG1Q8AbVDwB0VDwBeR4Aqw/gDSoAbVDwBeQBVQA0qXgDSpAaVIDSogVUQNKj4AvJA3Gj4A0qIGlRA0qIGlSA2qIGlR8AaVEDXKAcoC8oBygLygKqQDlAXlAR0gHK8ATkgXkgTlATlAOSBOSA5IDkgOSBHRAnJAnJAnJsBHSAnJAnJAcgByQI6IGeSA5QE5QEdHwBOSBOSA5IDkgOSA5AE5AE5DAnIAchgOSA5AE5AE5AEdADLoeAJyPAE9nAy6AGXhwMPDgZeHAw6HgDlPD+AOMsP4A5yw11sBylhfAHKWF8AcZYXTYDzVML4A808L4A4zw2uwHnnh/AHCeH8AcZ0AOUsP4A4zw9ugHGVDUDnKgwMuiwMOi+wEdACcgB7O+wFWHfYDUcN4A6RwvgDpHC+AOkcN4A6wwvgDtHC+AO8MM+wHop4VvoB6aeE8AeulhPAHso4Vp7Ae+jhvAHvo4dqwHtp0APXSo+APZTp2A9UIagd4Q8AdoxA6pAbSA1YCgUAAAAAAAAAAAAAAAAAAQCALAZaAy0BloDm4Ac3T0A4ypAcZ0vAHCdJAcJ0PAHGeH02A89TDeAOE8L4A4Twq7AcJ4O/QDhLB+AOMsF4A4SwWuwHKWC8AcngvAGHg/AHOWDb6Ac/YfAEeC8AZeC8AFgvAD2LwBfYfAFWB8APYX2A0sF4A6RwXgDccF4A7RwS7AdY4NdgOqwi7AaWF8AajhfAHRYXwBuOG8AdY4bwBtYbwBpYbwBtYcDaoeANqh4A0qHgDoqHgC8ldgLyfAFVHwBpUQLyfAFVECqiuwGuSBVSA0qQGlSA0qSA1yfAGlSA1ygKqXgDSpIDSpAaVLwBtUwNKkBeWBeWA5aAvKQDlAXlgOWA5YDlgOUA5YDlgOUgJywHLAnKAcoCcoBywJygHLAnKAnK8AOUBOUgJygHL8AR0gJygHKQE5QE5XgCcrwAdJdgJyl2AcpAOUgHJQDlATleAHJ8ATkgOSBOT4AnK8AOV4AnK8AR0QJyfAEdLwBHRQGXQ8AZ5IGXQAy6CAw6HgDEqHgDm8P4AxLDabAcpYfwBylhvAHKWG02A888L4A4SwfgDhPCa7AeeeD8AeeeD8AcJ4PwBylg32A4zwngDjLBvsBznhH2A5vCvsBh4XwA9k8APZPAF9k8AVYR/dA3HCeAOkcJ4A6wwfgDpDB67Ad6eC8AdlgvAHaGCv0A9VPBeAPXTwW2gHqp4JdgPTDCJdAPXRwyXQD208P4A9EKFugHop0kgPTCnYD0QgB1jEDoogbSA0kBoCgAAAAAAAAAAAAAAAAAABAAACNAZsBGgMuIGHEDnKAHOUPAHGVPwBzlS8Ac5UfAHKVHwBylQ8AcpYfwBylh12A5Sw3gDm8KuwHN4RX2A5ywa7Acngl90DEsF+6BzeBXYCewr7oEeBXYDDwVvsgT2L90CrBfugV4H90Cexfuga9j/dAvsS+6BqOD8AbWE8AaWE8AbWF8AaWG8AaWG8AbjhfAG1hvAGlhvAHSOH8AbWH8AXkeANKh4AqoeANKj4A0qPgDapeALyfADleALyvAF5XgCql4AvK8AaVLwBrleAKqXgCql4A0qXgDSpeALyvAGlT8Aa5fgCqn4A0qfgDSp+ALy/AGlDwBcngCqAF5YDJ4AuTwBcngBkQDIgGTwAyIBkQDJ4AZAGRATIAyAMgDlgTlgMngBy7gTlgMngCZPAE5fgBy/ADl+AJy/AE5fgBy/ADl+AJy/AE5fgBywJyvADleAHK8ATleALyvAE5XgByvADleAHK8ATleAJyvADleAJyvADleAI6XgCcrwBOT4AnJ8ATk+AMuj4Ay6PgDLo+AMuj4Aw6HgDLoeAMSo+AOboeAOcsP4A5Sw/gDk8P4A5Sw/gDjLC+AOMsJ4A4ywe+gHGWD8AcpYLwBxngf3QOUsFpsBylgX90Dk8C19kDPsL+6A9h8AFgfAF9hf3QKsC/ugaWBf3QOkMA7/CB3hgf3QO8MD+6B1jgLdAOscD+6B3jgdNgPRDB26AeinhfAHpp4bwB2jh/AHanQ8AeqFHwB2jS8AdY0/AHaMPAHWMQOsYgaSA0kBQNAAAAAAAAAAAAAAAAAAAAAAQAAYEsBLAZaAjQGXEDLgBzdMDDpgYdIDnKkBh0vAGJUb9AOcsP4A5yw/gDm8O30Ans3gDLwz7AZ9l8AZlhPAGPZPAE9l8AR4XwBl4TTYCLCeAL7JboAeF8AT2TwAWF8AX2XwBfZfAF9l8AX2XwBpYbwBVhvAGlh/AGlQ8AaVB9gNKg+wFVDwBtUfAF5PgC8nwBeSBVRAvJ8AaVEC8oC8kByQNKkBeUBeUBeUBVSA0qXgBygNKmBVTA0qYFVMC8sDSpgXlgVQAqgBVEC5QLlAZfADKBbAMoDKAygMoDKAygMoDKAygMoDKAygMoDKAygTKAygTKAygMoDKBMoDIAyAMgEyeADgBMgDlgOWA5YDIBOWAyAOWA5YDlgOWBOWA5YDlgTlgTlgTlAOUA5QE5QE5QEdIDPK8AR0gMul4Aw6QGXRAw6AGHQAzKh4A5vD+AObw7A5vDNgZeF02A5SwvgDlLC+AObwl+gGJYPwBzlgr9AOUsC+wGXgPAGHw/wBPq99gH1e+wE+r/AABfq99gKuHvsBtcPfYDceH67AdoYC3QDqsDboB0jg/AG1hPAHaOF8AdY4XwB1WF8AdYYbwB1jQA6RoW6AdY0gOqpgbVMDooAdFEDSQGrAUABQAAAAAAAAAAAAAAAAAAAAAAACAAIAsBLAZcQJlAjiBlxAzkAy4aAYdMCOn4Ay6YGHS8AYdECckCckCckCOigMOigJyUBHQAnI0AnI8ATkgOQA5PgByfADkgXkgXkgXkgXkgOSBpUQLygLyvAFVLwBpUgLygLywLygLywLywHLA0qaAvLQDl+ALy/AFVMC8vwAyAXlgVQAuQBkAqgBcgFygXKBcoFygMoFygXKBcoFsAAALALAAAAC2AWAAAAACAAKBAAABYBYBYBYBYCZQGUBlAWAmUBlAZQGUBlAZQGUCZQLlAZQJlAZQGUBlAZQGUCZQGUBlAmUBlAZQJlAmQBkAmQCZAI4AYdMCOAGXTuBh0gI6fgDDpAYdEDDpAR0QOcqIGHQ8AZ9n8AYeH8AZ9n8AZeG8AT2XwBPZV2Aey+AJ7L4Aey+ANLCeAKsJ4A0sIuwGlhfAG1hvAGlh/AG44ddgNez+ANqgBuNIDoqQG1SA0qYG40wNqAG1ADaiBpRA0lYDSAAUAAAAAAAAAAAAAAAAAAAAAAAAAAAEAAAAEAlgI0BmwEcQI4gTKAcAMuAGcgEcAM5PAEcAJkAmQCOmgJy0A5S7AOUBHSAnK8AOV4AcrwA5XgBygHLAvLXYC8tAOWuwF5XgC8tdgHLXYC8sC8sC5ALk8AMngC8sC8sC5AGQC5EAyoDSigGUBkAuUBlAZQGUCpAWwFygMoFUQLlAZQGUC5QFgFgKAAAAAAAAAAAAAAAAAAAAAAAAAAAAAAWAWAAAACwCwCwCwCwCwCwCwCwEsAsAsAsAsAsAsAygLALASyAWAZQJlAZQJYCWAWAlgI4oDORARwQGeWBHTAw6a7AR012Ay6fgDLpLsBh0tdgM8pAR0U+gE5K7AOSuwGXR8ATk+AHI8AXkeAHI8AVUfAGlR8AXk+ANKguwGuT4AvJ8AaVJLoBeWuwF5XgCqmBpUwNqmBpQA0ogaUQKogXKBUgKBQKAAAAAAAAAAAAAAAAAAAAAAAAAAAAAAAAIAAAQCWAWAzYBlAlgI0AsBLATKBMoEygMgDIBMgDIAyATIAyAMgDIAyAMgDJ4AcsC5AGRAXKAyAMgFygXKAygXKAygLAXKBcoDKBbASwFsAsAsBbALAMoDLYC2AtgFgFgFgAFAAAFgFgKAAAAAAAAAAAAAAAAAAAAAAAAAAAAAAgACgAAAAAAAAAAAAAAAAAAAAgABYBYAAsAAAAJYBYBYCWAlgJYCWAmUCOIEcQJlAjgBlwAw4agTIA5YDIBMgDJ4Aip+ALy/ADloC5AHLQDlpAaUEBVADSgBcgDIgLkAuQC5EBcoFSAtgKogVICgUBYBYCgAAAAAAAAAAAAAAAAAAAAAAAAAAAAAAAAAAAQAAAgCwCwEsAsBLAMoEygMoEygLALALALAMoEygMoDKAygMoDKAygXKAygMoDKAygXKBcoDKAygMoDKAygWwFsAygLALALALAUABAKAAWAAAFgFgAFAAAAAAAAAAAAAAAAAAAAAAAAAAAAAAAAAAAAAAAAAAAAAAAAAAAAAAAAAAAAAAAAAAAAAAAlgAEAoEAWAlgJlAZQJYCNATKAyoCZUAygRwAmQBkAKCAZUAyoC5UAyoBkAqggLlAuUBlAuUC5QLlAZQLYBYBYC2AAAAFAAAAAAAAAAAAAAAAAAAAAAAAAAAAAAAAAAAAAAAAABAFgFgFgAEAAAFgFgFgFgFgJYBYBYBYBYBYBYBYBYBYC2AWAWAWAAAKAAAAACwCwCwCwCwCwACgAAEsAAoAAAAAAAAAAAAAAAAAAAAAAAAAAAAAAAAAAAAAAAAAAAAAAAAAAAAAAAAAAAAAAAAAAAAAAAAAAAAAAAAAlgFgFgAEAASwCwDKBMoDKBLAMoDKBMoFygMoDKAygXKAygMoFygWwCwAABQFgFgFgKAAAAAAAAAAAAAAAAAAAAAAAAAAAAAAAAAAAAAAAAAAAAAAAAAAAAAJYBYBYAAAAAAAAAAAAH4APwAAAAABYAAAWAAUAAAAAAAAAAAAAAAAAAAAAAAAAAAAAAAAAAAAAAAAAAAAAAAAAAAAAAAAAAAAAAAAAAAAAAAAAAAAAAAAAAAAAAAAAAAAAAAAAAAAAAAAACALAAAEsAsAsAsAsAAWAWAALAAAFAAAACwCwACgAAAAAAAAAAAAAAAAAAAAAAAAAAAAAAAAAAAAAAAAAAAAAAAAAAAAAAAAAAAAAAAAAAAAAAAAAAAAAAAAAAAAAAAAAAAAAAAAAAAAAAAAAAAAAAAAAAAAAAAAAAAAAAAAAAAAAAAAAAAAAAAAAAAAAAAAAAAAAAAAAAAAAAAAAAAAAAAAAAAAAAAAAAAAAAAAAAAAAIAAagAAAAAAAAAACgAAAAAAAAAAAAAAAAAAAAAAAAAAAAAAAAAAAAAAAAAAAAAAAAAAAAAAAAAAAAAAAAAAAAAAAAAAAAAAAAAAAAAAAAAAAAAAAAAAAAAAAAAAAAAAAAAAAAAAAAAAAAAAAAAAAAAAAAAAAAAAAAAAAAAAAAAAAAAAAAAAAAAAAAAAAAAAAAAAAAAAAAAAAAAAAAAAAAAAAAAAAAAAAAAAAAAAAAAAAAAAAAAAAAAAAAAAAAAAAAAAAAAAAAAAAAAAAAAAAAAAAAAAAAAAAAAAAAAAAAAAAAAAAAAAAAAAAAAAAAAAAAAAAAAAAAAAAAAAAAAAAAAAAAAAAAAAAAAAAAAAAAAAAAAAAAAAAAAAAAAAAAAAAAAAAAAAAAAAAAAAAAAAAAAAAAAAAAAAAAAAAAAAAAAAAAAAAAAAAAAAAAAAAAAAAAAAAAAAAAAAAAAAAAAAAAAAAAAAAAAAAAAAAAAAAAAAAAAAAAAAAAAAAAAAAAAAAAAAAAAAAAAAAAAAAAAAAAAAAAAAAAAAAAAAAAAAAAAAAAAAAAAAAAAAAAAAAAAAAAAAAAAAAAAAAAAAAAAAAAAAAAAAAAAAAAAAAAAAAAAAAAAAAAAAAAAAAAAAAAAAAAAAAAAAAAAAAAAAAAAAAAAAAAAAAAAAAAAAAAAAAAAAAAAAAAAAAAAAAAAAAAAAAAAAAAAAAAAAAAAAAAAAAAAAAAAAAAAAAAAAAAAAAAAAAAAAAAAAAAAAAAAAAAAAAAAAAAAAAAAAAAAAAAAAAAAAAAAAAAAAAAAAAAAAAAAAAAAAAAAAAAAAAAAAAAAAAAAAAAAAAAAAAAAAAAAAAAAAAAAAAAAAAAAAAAAAAAAAAAAAAAAAAAAAAAAAAAAAAAAAAAAAAAAAAAAAAAAAAAAAAAAAAAAAAAAAAAAAAAAAAAAAAAAAAAAAAAAAAAAAAAAAAAAAAAAAAAAAAAAAAAAAAAAAAAAAAAAAAAAAAAAAAAAAAAAAAAAAAAAAAAAAAAAAAAAAAAAAAAAAAAAAAAAAAAAAAAAAAAAAAAAAAAAAAAAAAAAAAAAAAAAAAAAAAAAAAAAAAAAAAAAAAAAAAAAAAAAAAAAAAAAAAAAAAAAAAAAAAAAAAAAAAAAAAAAAAAAAAAAAAAAAAAAAAAAAAAAAAAAAAAAAAAAAAAAAAAAAAAAAAAAAAAAAAAAAAAAAAAAAAAAAAAAAAAAAAAAAAAAAAAAAAAAAAAAAAAAAAAAAAAAAAAAAAAAAAAAAAAAAAAAAAAAAAAAAAAAAAAAAAAAAAAAAAAAAAAAAAAAAAAAAAAAAAAAAAAAAAAAAAAAAAAAAAAAAAAAAAAAAAAAAAAAAAAAAAAAAAAAAAAAAAAAAAAAAAAAAAAAAAAAAAAAAAAAAAAAAAAAAAAAAAAAAAAAAAAAAAAAAAAAAAAAAAAAAAAAAAAAAAAAAAAAAAAAAAAAAAAAAAAAAAAAAAAAAAAAAAAAAAAAAAAAAAAAAAAAAAAAAAAAAAAAAAAAAAAAAAAAAAAAAAAAAAAAAAAAAAAAAAAAAAAAAAAAAAAAAAAAAAAAAAAAAAAAAAAAAAAAAAAAAAAAAAAAAAAAAAAAAAAAAAAAAAAAAAAAAAAAAAAAAAAAAAAAAAAAAAAAAAAAAAAAAAAAAAAAAAAAAAAAAAAAAAAAAAAAAAAAAAAAAAAAAAAAAAAAAAAAAAAAAAAAAAAAAAAAAAAAAAAAAAAAAAAAAAAAAAAAAAAAAAAAAAAAAAAAAAAAAAAAAAAAAAAAAAAAAAAAAAAAAAAAAAAAAAAAAAAAAAAAAAAAAAAAAAAAAAAAAAAAAAAAAAAAAAAAAAAAAAAAAAAAAAAAAAAAAAAAAAAAAAAAAAAAAAAAAAAAAAAAAAAAAAAAAAAAAAAAAAAAAAAAAAAAAAAAAAAAAAAAAAAAAAAAAAAAAAAAAAAAAAAAAAAAAAAAAAAAAAAAAAAAAAAAAAAAAAAAAAAAAAAAAAAAAAAAAAAAAAAAAAAAAAAAAAAAAAAAAAAAAAAAAAAAAAAAAAAAAAAAAAAAAAAAAAAAAAAAAAAAAAAAAAAAAAAAAAAAAAAAAAAAAAAAAAAAAAAAAAAAAAAAAAAAAAAAAAAAAAAAAAAAAAAAAAAAAAAAAAAAAAAAAAAAAAAAAAAAAAAAAAAAAAAAAAAAAAAAAAAAAAAAAAAAAAAAAAAAAAAAAAAAAAAAAAAAAAAAAAAAAAAAAAAAAAAAAAAAAAAAAAAAAAAAAAAAAAAAAAAAAAAAAAAAAAAAAAAAAAAAAAAAAAAAAAAAAAAAAAAAAAAAAAAAAAAAAAAAAAAAAAAAAAAAAAAAAAAAAAAAAAAAAAAAAAAAAAAAAAAAAAAAAAAAAAAAAAAAAAAAAAAAAAAAAAAAAAAAAAAAAAAAAAAAAAAAAAAAAAAAAAAAAAAAAAAAAAAAAAAAAAAAAAAAAAAAAAAAAAAAAAAAAAAAAAAAAAAAAAAAAAAAAAAAAAAAAAAAAAAAAAAAAAAAAAAAAAAAAAAAAAAAAAAAAAAAAAAAAAAAAAAAAAAAAAAAAAAAAAAAAAAAAAAAAAAAAAAAAAAAAAAAAAAAAAAAAAAAAAAAAAAAAAAAAAAAAAAAAAAAAAAAAAAAAAAAAAAAAAAAAAAAAAAAAAAAAAAAAAAAAAAAAAAAAAAAAAAAAAAAAAAAAAAAAAAAAAAAAAAAAAAAAAAAAAAAAAAAAAAAAAAAAAAAAAAAAAAAAAAAAAAAAAAAAAAAAAAAAAAAAAAAAAAAAAAAAAAAAAAAAAAAAAAAAAAAAAAAAAAAAAAAAAAAAAAAAAAAAAAAAAAAAAAAAAAAAAAAAAAAAAAAAAAAAAAAAAAAAAAAAAAAAAAAAAAAAAAAAAAAAAAAAAAAAAAAAAAAAAAAAAAAAAAAAAAAAAAAAAAAAAAAAAAAAAAAAAAAAAAAAAAAAAAAAAAAAAAAAAAAAAAAAAAAAAAAAAAAAAAAAAAAAAAAAAAAAAAAAAAAAAAAAAAAAAAAAAAAAAAAAAAAAAAAAAAAAAAAAAAAAAAAAAAAAAAAAAAAAAAAAAAAAAAAAAAAAAAAAAAAAAAAAAAAAAAAAAAAAAAAAAAAAAAAAAAAAAAAAAAAAAAAAAAAAAAAAAAAAAAAAAAAAAAAAAAAAAAAAAAAAAAAAAAAAAAAAAAAAAAAAAAAAAAAAAAAAAAAAAAAAAAAAAAAAAAAAAAAAAAAAAAAAAAAAAAAAAAAAAAAAAAAAAAAAAAAAAAAAAAAAAAAAAAAAAAAAAAAAAAAAAAAAAAAAAAAAAAAAAAAAAAAAAAAAAAAAAAAAAAAAAAAAAAAAAAAAAAAAAAAAAAAAAAAAAAAAAAAAAAAAAAAAAAAAAAAAAAAAAAAAAAAAAAAAAAAAAAAAAAAAAAAAAAAAAAAAAAAAAAAAAAAAAAAAAAAAAAAAAAAAAAAAAAAAAAAAAAAAAAAAAAAAAAAAAAAAAAAAAAAAAAAAAAAAAAAAAAAAAAAAAAAAAAAAAAAAAAAAAAAAAAAAAAAAAAAAAAAAAAAAAAAAAAAAAAAAAAAAAAAAAAAAAAAAAAAAAAAAAAAAAAAAAAAAAAAAAAAAAAAAAAAAAAAAAAAAAAAAAAAAAAAAAAAAAAAAAAAAAAAAAAAAAAAAAAAAAAAAAAAAAAAAAAAAAAAAAAAAAAAAAAAAAAAAAAAAAAAAAAAAAAAAAAAAAAAAAAAAAAAAAAAAAAAAAAAAAAAAAAAAAAAAAAAAAAAAAAAAAAAAAAAAAAAAAAAAAAAAAAAAAAAAAAAAAAAAAAAAAAAAAAAAAAAAAAAAAAAAAAAAAAAAAAAAAAAAAAAAAAAAAAAAAAAAAAAAAAAAAAAAAAAAAAAAAAAAAAAAAAAAAAAAAAAAAAAAAAAAAAAAAAAAAAAAAAAAAAAAAAAAAAAAAAAAAAAAAAAAAAAAAAAAAAAAAAAAAAAAAAAAAAAAAAAAAAAAAAAAAAAAAAAAAAAAAAAAAAAAAAAAAAAAAAAAAAAAAAAAAAAAAAAAAAAAAAAAAAAAAAAAAAAAAAAAAAAAAAAAAAAAAAAAAAAAAAAAAAAAAAAAAAAAAAAAAAAAAAAAAAAAAAAAAAAAAAAAAAAAAAAAAAAAAAAAAAAAAAAAAAAAAAAAAAAAAAAAAAAAAAAAAAAAAAAAAAAAAAAAAAAAAAAAAAAAAAAAAAAAAAAAAAAAAAAAAAAAAAAAAAAAAAAAAAAAAAAAAAAAAAAAAAAAAAAAAAAAAAAAAAAAAAAAAAAAAAAAAAAAAAAAAAAAAAAAAAAAAAAAAAAAAAAAAAAAAAAAAAAAAAAAAAAAAAAAAAAAAAAAAAAAAAAAAAAAAAAAAAAAAAAAAAAAAAAAAAAAAAAAAAAAAAAAAAAAAAAAAAAAAAAAAAAAAAAAAAAAAAAAAAAAAAAAAAAAAAAAAAAAAAAAAAAAAAAAAAAAAAAAAAAAAAAAAAAAAAAAAAAAAAAAAAAAAAAAAAAAAAAAAAAAAAAAAAAAAAAAAAAAAAAAAAAAAAAAAAAAAAAAAAAAAAAAAAAAAAAAAAAAAAAAAAAAAAAAAAAAAAAAAAAAAAAAAAAAAAAAAAAAAAAAAAAAAAAAAAAAAAAAAAAAAAAAAAAAAAAAAAAAAAAAAAAAAAAAAAAAAAAAAAAAAAAAAAAAAAAAAAAAAAAAAAAAAAAAAAAAAAAAAAAAAAAAAAAAAAAAAAAAAAAAAAAAAAAAAAAAAAAAAAAAAAAAAAAAAAAAAAAAAAAAAAAAAAAAAAAAAAAAAAAAAAAAAAAAAAAAAAAAAAAAAAAAAAAAAAAAAAAAAAAAAAAAAAAAAAAAAAAAAAAAAAAAAAAAAAAAAAAAAAAAAAAAAAAAAAAAAAAAAAAAAAAAAAAAAAAAAAAAAAAAAAAAAAAAAAAAAAAAAAAAAAAAAAAAAAAAAAAAAAAAAAAAAAAAAAAAAAAAAAAAAAAAAAAAAAAAAAAAAAAAAAAAAAAAAAAAAAAAAAAAAAAAAAAAAAAAAAAAAAAAAAAAAAAAAAAAAAAAAAAAAAAAAAAAAAAAAAAAAAAAAAAAAAAAAAAAAAAAAAAAAAAAAAAAAAAAAAAAAAAAAAAAAAAAAAAAAAAAAAAAAAAAAAAAAAAAAAAAAAAAAAAAAAAAAAAAAAAAAAAAAAAAAAAAAAAAAAAAAAAAAAAAAAAAAAAAAAAAAAAAAAAAAAAAAAAAAAAAAAAAAAAAAAAAAAAAAAAAAAAAAAAAAAAAAAAAAAAAAAAAAAAAAAAAAAAAAAAAAAAAAAAAAAAAAAAAAAAAAAAAAAAAAAAAAAAAAAAAAAAAAAAAAAAAAAAAAAAAAAAAAAAAAAAAAAAAAAAAAAAAAAAAAAAAAAAAAAAAAAAAAAAAAAAAAAAAAAAAAAAAAAAAAAAAAAAAAAAAAAAAAAAAAAAAAAAAAAAAAAAAAAAAAAAAAAAAAAAAAAAAAAAAAAAAAAAAAAAAAAAAAAAAAAAAAAAAAAAAAAAAAAAAAAAAAAAAAAAAAAAAAAAAAAAAAAAAAAAAAAAAAAAAAAAAAAAAAAAAAAAAAAAAAAAAAAAAAAAAAAAAAAAAAAAAAAAAAAAAAAAAAAAAAAAAAAAAAAAAAAAAAAAAAAAAAAAAAAAAAAAAAAAAAAAAAAAAAAAAAAAAAAAAAAAAAAAAAAAAAAAAAAAAAAAAAAAAAAAAAAAAAAAAAAAAAAAAAAAAAAAAAAAAAAAAAAAAAAAAAAAAAAAAAAAAAAAAAAAAAAAAAAAAAAAAAAAAAAAAAAAAAAAAAAAAAAAAAAAAAAAAAAAAAAAAAAAAAAAAAAAAAAAAAAAAAAAAAAAAAAAAAAAAAAAAAAAAAAAAAAAAAAAAAAAAAAAAAAAAAAAAAAAAAAAAAAAAAAAAAAAAAAAAAAAAAAAAAAAAAAAAAAAAAAAAAAAAAAAAAAAAAAAAAAAAAAAAAAAAAAAAAAAAAAAAAAAAAAAAAAAAAAAAAAAAAAAAAAAAAAAAAAAAAAAAAAAAAAAAAAAAAAAAAAAAAAAAAAAAAAAAAAAAAAAAAAAAAAAAAAAAAAAAAAAAAAAAAAAAAAAAAAAAAAAAAAAAAAAAAAAAAAAAAAAAAAAAAAAAAAAAAAAAAAAAAAAAAAAAAAAAAAAAAAAAAAAAAAAAAAAAAAAAAAAAAAAAAAAAAAAAAAAAAAAAAAAAAAAAAAAAAAAAAAAAAAAAAAAAAAAAAAAAAAAAAAAAAAAAAAAAAAAAAAAAAAAAAAAAAAAAAAAAAAAAAAAAAAAAAAAAAAAAAAAAAAAAAAAAAAAAAAAAAAAAAAAAAAAAAAAAAAAAAAAAAAAAAAAAAAAAAAAAAAAAAAAAAAAAAAAAAAAAAAAAAAAAAAAAAAAAAAAAAAAAAAAAAAAAAAAAAAAAAAAAAAAAAAAAAAAAAAAAAAAAAAAAAAAAAAAAAAAAAAAAAAAAAAAAAAAAAAAAAAAAAAAAAAAAAAAAAAAAAAAAAAAAAAAAAAAAAAAAAAAAAAAAAAAAAAAAAAAAAAAAAAAAAAAAAAAAAAAAAAAAAAAAAAAAAAAAAAAAAAAAAAAAAAAAAAAAAAAAAAAAAAAAAAAAAAAAAAAAAAAAAAAAAAAAAAAAAAAAAAAAAAAAAAAAAAAAAAAAAAAAAAAAAAAAAAAAAAAAAAAAAAAAAAAAAAAAAAAAAAAAAAAAAAAAAAAAAAAAAAAAAAAAAAAAAAAAAAAAAAAAAAAAAAAAAAAAAAAAAAAAAAAAAAAAAAAAAAAAAAAAAAAAAAAAAAAAAAAAAAAAAAAAAAAAAAAAAAAAAAAAAAAAAAAAAAAAAAAAAAAAAAAAAAAAAAAAAAAAAAAAAAAAAAAAAAAAAAAAAAAAAAAAAAAAAAAAAAAAAAAAAAAAAAAAAAAAAAAAAAAAAAAAAAAAAAAAAAAAAAAAAAAAAAAAAAAAAAAAAAAAAAAAAAAAAAAAAAAAAAAAAAAAAAAAAAAAAAAAAAAAAAAAAAAAAAAAAAAAAAAAAAAAAAAAAAAAAAAAAAAAAAAAAAAAAAAAAAAAAAAAAAAAAAAAAAAAAAAAAAAAAAAAAAAAAAAAAAAAAAAAAAAAAAAAAAAAAAAAAAAAAAAAAAAAAAAAAAAAAAAAAAAAAAAAAAAAAAAAAAAAAAAAAAAAAAAAAAAAAAAAAAAAAAAAAAAAAAAAAAAAAAAAAAAAAAAAAAAAAAAAAAAAAAAAAAAAAAAAAAAAAAAAAAAAAAAAAAAAAAAAAAAAAAAAAAAAAAAAAAAAAAAAAAAAAAAAAAAAAAAAAAAAAAAAAAAAAAAAAAAAAAAAAAAAAAAAAAAAAAAAAAAAAAAAAAAAAAAAAAAAAAAAAAAAAAAAAAAAAAAAAAAAAAAAAAAAAAAAAAAAAAAAAAAAAAAAAAAAAAAAAAAAAAAAAAAAAAAAAAAAAAAAAAAAAAAAAAAAAAAAAAAAAAAAAAAAAAAAAAAAAAAAAAAAAAAAAAAAAAAAAAAAAAAAAAAAAAAAAAAAAAAAAAAAAAAAAAAAAAAAAAAAAAAAAAAAAAAAAAAAAAAAAAAAAAAAAAAAAAAAAAAAAAAAAAAAAAAAAAAAAAAAAAAAAAAAAAAAAAAAAAAAAAAAAAAAAAAAAAAAAAAAAAAAAAAAAAAAAAAAAAAAAAAAAAAAAAAAAAAAAAAAAAAAAAAAAAAAAAAAAAAAAAAAAAAAAAAAAAAAAAAAAAAAAAAAAAAAAAAAAAAAAAAAAAAAAAAAAAAAAAAAAAAAAAAAAAAAAAAAAAAAAAAAAAAAAAAAAAAAAAAAAAAAAAAAAAAAAAAAAAAAAAAAAAAAAAAAAAAAAAAAAAAAAAAAAAAAAAAAAAAAAAAAAAAAAAAAAAAAAAAAAAAAAAAAAAAAAAAAAAAAAAAAAAAAAAAAAAAAAAAAAAAAAAAAAAAAAAAAAAAAAAAAAAAAAAAAAAAAAAAAAAAAAAAAAAAAAAAAAAAAAAAAAAAAAAAAAAAAAAAAAAAAAAAAAAAAAAAAAAAAAAAAAAAAAAAAAAAAAAAAAAAAAAAAAAAAAAAAAAAAAAAAAAAAAAAAAAAAAAAAAAAAAAAAAAAAAAAAAAAAAAAAAAAAAAAAAAAAAAAAAAAAAAAAAAAAAAAAAAAAAAAAAAAAAAAAAAAAAAAAAAAAAAAAAAAAAAAAAAAAAAAAAAAAAAAAAAAAAAAAAAAAAAAAAAAAAAAAAAAAAAAAAAAAAAAAAAAAAAAAAAAAAAAAAAAAAAAAAAAAAAAAAAAAAAAAAAAAAAAAAAAAAAAAAAAAAAAAAAAAAAAAAAAAAAAAAAAAAAAAAAAAAAAAAAAAAAAAAAAAAAAAAAAAAAAAAAAAAAAAAAAAAAAAAAAAAAAP/2Q==;clipPath=inset(17% 0.33% 21.33% 0%);" vertex="1" parent="1">
          <mxGeometry x="280" y="650" width="1500" height="928.0936454849499" as="geometry" />
        </mxCell>
        <mxCell id="uBYqbTjCWljOATmxXfoV-2" value="&lt;font style=&quot;font-size: 32px;&quot;&gt;Intake Reverse&lt;/font&gt;" style="rounded=0;whiteSpace=wrap;html=1;" vertex="1" parent="1">
          <mxGeometry x="1300" y="780" width="260" height="60" as="geometry" />
        </mxCell>
        <mxCell id="uBYqbTjCWljOATmxXfoV-3" value="" style="endArrow=classic;html=1;rounded=0;exitX=0.653;exitY=0.8;exitDx=0;exitDy=0;exitPerimeter=0;" edge="1" parent="1" source="uBYqbTjCWljOATmxXfoV-1">
          <mxGeometry width="50" height="50" relative="1" as="geometry">
            <mxPoint x="940" y="1390" as="sourcePoint" />
            <mxPoint x="990" y="1340" as="targetPoint" />
          </mxGeometry>
        </mxCell>
        <mxCell id="uBYqbTjCWljOATmxXfoV-4" value="" style="endArrow=classic;html=1;rounded=0;exitX=0.5;exitY=1;exitDx=0;exitDy=0;strokeWidth=8;strokeColor=#000000;" edge="1" parent="1" source="uBYqbTjCWljOATmxXfoV-2">
          <mxGeometry width="50" height="50" relative="1" as="geometry">
            <mxPoint x="940" y="1390" as="sourcePoint" />
            <mxPoint x="1429" y="897" as="targetPoint" />
          </mxGeometry>
        </mxCell>
        <mxCell id="uBYqbTjCWljOATmxXfoV-5" value="&lt;span style=&quot;font-size: 32px;&quot;&gt;Toggle Shooter&lt;/span&gt;" style="rounded=0;whiteSpace=wrap;html=1;" vertex="1" parent="1">
          <mxGeometry x="1510" y="900" width="260" height="60" as="geometry" />
        </mxCell>
        <mxCell id="uBYqbTjCWljOATmxXfoV-6" value="" style="endArrow=classic;html=1;rounded=0;exitX=0.5;exitY=1;exitDx=0;exitDy=0;strokeWidth=8;strokeColor=#000000;" edge="1" parent="1" source="uBYqbTjCWljOATmxXfoV-5">
          <mxGeometry width="50" height="50" relative="1" as="geometry">
            <mxPoint x="1261" y="1110" as="sourcePoint" />
            <mxPoint x="1562" y="1016" as="targetPoint" />
            <Array as="points">
              <mxPoint x="1640" y="1020" />
            </Array>
          </mxGeometry>
        </mxCell>
        <mxCell id="uBYqbTjCWljOATmxXfoV-8" value="&lt;span style=&quot;font-size: 32px;&quot;&gt;Feed Shooter&lt;/span&gt;" style="rounded=0;whiteSpace=wrap;html=1;" vertex="1" parent="1">
          <mxGeometry x="1300" y="1190" width="260" height="60" as="geometry" />
        </mxCell>
        <mxCell id="uBYqbTjCWljOATmxXfoV-9" value="" style="endArrow=classic;html=1;rounded=0;exitX=0.5;exitY=0;exitDx=0;exitDy=0;strokeWidth=8;strokeColor=#000000;" edge="1" parent="1" source="uBYqbTjCWljOATmxXfoV-8">
          <mxGeometry width="50" height="50" relative="1" as="geometry">
            <mxPoint x="1261" y="1130" as="sourcePoint" />
            <mxPoint x="1432" y="1135" as="targetPoint" />
          </mxGeometry>
        </mxCell>
        <mxCell id="uBYqbTjCWljOATmxXfoV-10" value="&lt;span style=&quot;font-size: 32px;&quot;&gt;Intake Ring&lt;/span&gt;" style="rounded=0;whiteSpace=wrap;html=1;" vertex="1" parent="1">
          <mxGeometry x="1050" y="910" width="260" height="60" as="geometry" />
        </mxCell>
        <mxCell id="uBYqbTjCWljOATmxXfoV-12" value="" style="endArrow=classic;html=1;rounded=0;exitX=0.5;exitY=1;exitDx=0;exitDy=0;strokeWidth=8;strokeColor=#000000;" edge="1" parent="1" source="uBYqbTjCWljOATmxXfoV-10">
          <mxGeometry width="50" height="50" relative="1" as="geometry">
            <mxPoint x="1260" y="1165" as="sourcePoint" />
            <mxPoint x="1297" y="1018" as="targetPoint" />
            <Array as="points">
              <mxPoint x="1180" y="1020" />
            </Array>
          </mxGeometry>
        </mxCell>
        <mxCell id="uBYqbTjCWljOATmxXfoV-13" value="&lt;span style=&quot;font-size: 32px;&quot;&gt;Intake Manual&lt;br&gt;(Axis Controlled)&lt;br&gt;&lt;/span&gt;" style="rounded=0;whiteSpace=wrap;html=1;" vertex="1" parent="1">
          <mxGeometry x="700" y="1330" width="260" height="110" as="geometry" />
        </mxCell>
        <mxCell id="uBYqbTjCWljOATmxXfoV-14" value="" style="endArrow=classic;html=1;rounded=0;exitX=0.5;exitY=0;exitDx=0;exitDy=0;strokeWidth=8;strokeColor=#000000;" edge="1" parent="1" source="uBYqbTjCWljOATmxXfoV-13">
          <mxGeometry width="50" height="50" relative="1" as="geometry">
            <mxPoint x="1000" y="1330" as="sourcePoint" />
            <mxPoint x="830" y="1237" as="targetPoint" />
          </mxGeometry>
        </mxCell>
        <mxCell id="uBYqbTjCWljOATmxXfoV-16" value="&lt;span style=&quot;font-size: 32px;&quot;&gt;Arm Top&lt;/span&gt;" style="rounded=0;whiteSpace=wrap;html=1;" vertex="1" parent="1">
          <mxGeometry x="510" y="780" width="260" height="60" as="geometry" />
        </mxCell>
        <mxCell id="uBYqbTjCWljOATmxXfoV-17" value="" style="endArrow=classic;html=1;rounded=0;exitX=0.5;exitY=1;exitDx=0;exitDy=0;strokeWidth=8;strokeColor=#000000;" edge="1" parent="1" source="uBYqbTjCWljOATmxXfoV-16">
          <mxGeometry width="50" height="50" relative="1" as="geometry">
            <mxPoint x="840" y="1340" as="sourcePoint" />
            <mxPoint x="640" y="923" as="targetPoint" />
          </mxGeometry>
        </mxCell>
        <mxCell id="uBYqbTjCWljOATmxXfoV-18" value="&lt;span style=&quot;font-size: 32px;&quot;&gt;Arm Post&lt;/span&gt;" style="rounded=0;whiteSpace=wrap;html=1;" vertex="1" parent="1">
          <mxGeometry x="760" y="910" width="260" height="60" as="geometry" />
        </mxCell>
        <mxCell id="uBYqbTjCWljOATmxXfoV-20" value="" style="endArrow=classic;html=1;rounded=0;exitX=0.5;exitY=1;exitDx=0;exitDy=0;strokeWidth=8;strokeColor=#000000;" edge="1" parent="1" source="uBYqbTjCWljOATmxXfoV-18">
          <mxGeometry width="50" height="50" relative="1" as="geometry">
            <mxPoint x="840" y="1340" as="sourcePoint" />
            <mxPoint x="743" y="1016" as="targetPoint" />
            <Array as="points">
              <mxPoint x="890" y="1016" />
            </Array>
          </mxGeometry>
        </mxCell>
        <mxCell id="uBYqbTjCWljOATmxXfoV-21" value="&lt;span style=&quot;font-size: 32px;&quot;&gt;Arm Amp&lt;/span&gt;" style="rounded=0;whiteSpace=wrap;html=1;" vertex="1" parent="1">
          <mxGeometry x="290" y="910" width="260" height="60" as="geometry" />
        </mxCell>
        <mxCell id="uBYqbTjCWljOATmxXfoV-22" value="" style="endArrow=classic;html=1;rounded=0;exitX=0.5;exitY=1;exitDx=0;exitDy=0;strokeWidth=8;strokeColor=#000000;" edge="1" parent="1" source="uBYqbTjCWljOATmxXfoV-21">
          <mxGeometry width="50" height="50" relative="1" as="geometry">
            <mxPoint x="650" y="870" as="sourcePoint" />
            <mxPoint x="543" y="1019" as="targetPoint" />
            <Array as="points">
              <mxPoint x="420" y="1019" />
            </Array>
          </mxGeometry>
        </mxCell>
        <mxCell id="uBYqbTjCWljOATmxXfoV-23" value="&lt;span style=&quot;font-size: 32px;&quot;&gt;Arm Floor&lt;/span&gt;" style="rounded=0;whiteSpace=wrap;html=1;" vertex="1" parent="1">
          <mxGeometry x="510" y="1190" width="260" height="60" as="geometry" />
        </mxCell>
        <mxCell id="uBYqbTjCWljOATmxXfoV-24" value="" style="endArrow=classic;html=1;rounded=0;exitX=0.5;exitY=0;exitDx=0;exitDy=0;strokeWidth=8;strokeColor=#000000;" edge="1" parent="1" source="uBYqbTjCWljOATmxXfoV-23">
          <mxGeometry width="50" height="50" relative="1" as="geometry">
            <mxPoint x="650" y="870" as="sourcePoint" />
            <mxPoint x="639" y="1103" as="targetPoint" />
          </mxGeometry>
        </mxCell>
      </root>
    </mxGraphModel>
  </diagram>
</mxfile>
